<svg width="99" height="71" viewBox="0 0 99 71" fill="none" xmlns="http://www.w3.org/2000/svg">
<path d="M8.27868 43.5865C8.27868 43.5865 0.944147 45.4699 2.63367 49.1023C4.70086 52.551 8.27868 55.7511 8.27868 55.7511L13.2976 52.2379L9.34706 45.2164L8.28365 43.5865H8.27868Z" fill="#008097"/>
<path d="M6.45995 29.479C6.45995 29.479 0 30.7958 0 33.4891C0.939178 36.8732 2.44484 39.2584 2.44484 39.2584H9.21786L8.59174 33.8668L6.45995 29.479Z" fill="#008097"/>
<path d="M16.6766 12.4197C13.1038 12.6682 5.20275 15.3665 3.44862 18.5666C3.44862 19.2574 6.1469 21.578 6.1469 21.578L10.5347 23.6452C10.5993 23.7098 15.0467 15.4957 16.6816 12.4197" fill="#008097"/>
<path d="M27.5244 67.7865C45.3936 75.7472 66.3388 67.7219 74.2994 49.8527C82.2601 31.9835 74.2348 11.0383 56.3656 3.07765C38.4964 -4.88797 17.5512 3.14225 9.59055 21.0115C1.62493 38.8807 9.65515 59.8259 27.5244 67.7865Z" fill="#58A0B3"/>
<path d="M40.6331 2.76459L39.4405 2.57577L38.561 3.26648L38.4964 1.82542L37.9945 2.26271L37.4926 3.64414L36.1757 4.08143L34.9831 5.33367L36.1757 5.90016L37.3684 4.77215L39.3759 4.33486L40.3151 5.21441L40.3797 5.27901L41.945 7.84808L43.5749 7.28159L42.5711 6.21322L42.5065 4.77215L40.3747 3.51991L40.6281 2.76956L40.6331 2.76459ZM40.0666 6.21322L38.8144 6.46665L39.6293 7.78348L40.5685 8.22077L41.0058 7.28159L40.0666 6.21322ZM44.0171 2.57577C44.9563 2.57577 45.9601 2.64036 46.8993 2.7L46.775 1.69622L45.2097 1.19433L44.206 1.63162L42.9537 1.31856H41.0704L40.5039 1.75585L41.8854 2.69503L42.7649 2.38197L44.0171 2.5708V2.57577ZM54.2388 14.2385L56.0575 13.99L55.7444 12.7974L54.4922 12.9862L54.0549 12.6732L53.553 13.4235L54.2437 14.2385H54.2388ZM55.9929 20.3208L56.0575 18.9393L55.1183 18.8747L54.681 20.44L55.9979 20.3158L55.9929 20.3208ZM57.0613 22.0153L58.4427 21.5134L57.9408 20.3208C58.0054 19.5058 58.0054 18.6909 57.9408 17.7517L57.2501 17.4386L56.937 18.2536L57.1259 19.0039L56.5594 20.1965L55.6798 21.7022L57.0613 22.0153ZM65.1511 15.933L63.7697 16.1814L63.4566 16.9964L60.5745 17.4983L60.0726 19.8189L61.7671 19.5058L62.2044 20.8227L62.8951 21.7618L64.212 20.445L64.2766 19.317L64.9027 18.8151L66.2195 18.3132C66.0953 17.2498 65.9064 16.6833 65.1511 15.933ZM66.9053 20.9469L67.1587 20.8823C67.0941 20.6935 66.5326 19.3766 66.468 19.1878L66.1549 19.5008L65.5884 20.6935C66.0903 20.6289 66.468 20.8177 66.9053 20.9419M64.3362 38.3788L64.9027 38.19L65.5934 40.3218L65.658 44.3965L66.1599 45.9022L65.0319 46.8414L65.4692 48.2824C65.0319 48.1582 64.6542 47.9694 64.2169 47.7805C64.1523 45.8376 64.2815 44.0785 64.4704 42.1355L63.9685 40.5702L64.3461 38.3739L64.3362 38.3788ZM44.3948 34.4283L42.5761 35.5563V38.8161L44.0817 43.5816L46.1489 42.9555L46.462 43.9592L48.4695 43.7058L48.723 44.5207L50.2883 45.2115L50.7902 46.6525L49.4733 48.2824L50.0398 50.1012L49.036 52.2329L49.1603 54.2405L47.9676 55.2443C47.4658 56.1835 47.0285 57.1872 46.5266 58.1264C46.4024 59.6321 46.3378 61.1974 46.2135 62.7676L45.5874 65.0237L45.0855 66.0274L45.9005 66.3405L47.5304 66.1517L49.036 66.8424L52.4846 65.2771L52.5492 64.3379L54.681 63.7118L54.1145 61.8931L55.9979 61.3266L57.6278 61.1377L58.5073 60.7005L58.7607 59.0706L60.3906 55.3685L62.4578 53.5498L64.4008 52.6702L67.3475 49.8477L67.7848 48.9086C67.0345 48.7197 66.3437 48.4713 65.653 48.2178L67.7202 47.4675L70.2893 46.9656L71.8546 46.2152L72.4807 44.8984C72.4161 44.3319 72.4161 43.7704 72.3565 43.2685L70.9154 43.8946L70.6023 42.7666L69.9116 41.5144L70.662 39.8199L71.2881 41.7628L72.7292 42.2001C73.0422 43.0151 73.4795 43.83 73.6683 44.7692L74.9852 44.1431C75.4871 43.1393 76.5505 37.3104 75.9243 31.7251C75.2982 26.1447 72.6 20.127 72.6 20.127L71.9738 20.5643L70.1551 21.3792L69.3402 19.1232L70.8458 19.8139L71.8496 19.312L69.2805 17.4933L67.9637 16.2411L65.4543 15.928L65.017 15.9926L66.0207 18.3132L66.5226 18.1244L67.1487 18.3728L66.3338 19.1232L66.458 19.7493C66.5823 20.1866 66.6469 20.5643 66.7115 21.0015L66.7761 21.1904L65.2108 21.4388L64.7735 22.065L62.264 22.7557L60.6987 21.5631L61.2006 20.5593L60.0726 20.6835L60.008 21.8115L59.0042 21.1854L57.752 22.065L56.4352 22.6911L54.7407 22.378L55.3072 23.7594L55.1183 24.7632L53.8661 24.2613L51.9828 24.3856L50.979 26.7658L51.6697 27.0789L51.9828 28.0826L53.8015 28.0181L55.0537 26.8254L56.4352 26.6366L56.937 26.1993L58.88 26.6366L59.3819 28.1423L60.1968 29.1461L59.0688 30.0852L60.0726 30.2095L61.0764 29.2703L60.5099 27.387L61.0118 27.5758L61.7621 29.0169L61.2602 30.1449L61.8267 31.7748L62.8305 30.1449H63.5212C63.7747 30.8952 63.9585 31.6505 64.0877 32.4009C64.0877 32.5251 64.1523 32.6493 64.1523 32.8382L65.8468 33.7177L66.5972 34.9103L65.8468 35.4122L64.4057 35.9141L62.9001 35.2234L62.2094 34.5973L61.0814 33.6581L59.9534 33.345L58.7607 33.9115L57.5681 30.776L56.3755 29.6479L54.0549 28.8976L51.8585 28.5845C50.2286 29.3349 48.4745 30.0902 46.8396 30.9648L44.1414 33.4742L44.3948 34.4134V34.4283ZM45.5874 11.8582L46.78 11.734L48.7876 10.4172C50.8548 10.6656 52.8027 10.7302 54.8699 10.6656L57.752 7.84311C56.8724 7.27662 55.9333 6.83934 54.9941 6.40205C55.9333 6.83934 56.8774 7.28159 57.752 7.84311L57.8762 7.71888L55.3072 5.14981L51.6051 3.9572L46.775 3.20685L45.5824 3.64414L46.0843 4.39449L47.4658 6.65051L46.9639 7.71888L45.4582 8.345L45.5824 11.8582H45.5874ZM11.7869 19.0039C11.7223 19.2524 12.0354 21.3842 12.0354 21.3842L13.8541 23.9532L16.0505 25.772L16.5524 27.5907L17.6804 29.5337L18.6842 29.7821L19.2507 30.4082L19.1264 30.5971L17.0593 32.7288L15.8666 33.4792V34.1053L14.3013 35.7998L14.7386 40.6299L16.0555 43.4524L16.3685 45.1469L14.9871 47.9048V49.8477L12.9199 52.6056C12.9199 52.6056 12.8553 52.6056 12.8553 52.8591C12.7907 53.1721 15.3648 56.5611 15.802 56.8096H15.8666L16.4331 56.6853L16.4977 55.935L17.8792 55.4331L18.6295 54.6828L20.4482 54.807L22.9577 52.4267V51.4876L24.3391 50.6726L26.2821 51.1099L28.1654 49.4154L29.1046 46.6575L31.3606 45.2761L32.4886 43.3927C30.9829 41.574 29.5419 39.7553 28.0362 37.8769L27.912 35.6209L26.2175 34.3687L26.4063 31.4219L24.0261 30.607L22.6446 28.2864L19.6979 29.1659L19.5737 29.4144C19.0072 28.9125 18.2568 28.5994 17.8792 27.9733L18.0034 26.4677L18.6295 25.0266L17.1884 24.5247L18.7537 21.891L17.9388 21.578L16.622 22.2687H15.6182L14.7386 21.0761L15.3051 19.5704L16.2443 18.0647L18.5649 17.4983L19.9464 18.1244L20.5725 17.4337L22.1378 18.6263L22.7043 20.8227L24.1453 18.2536L27.1567 17.374L28.8512 15.7441H29.5419L30.7941 15.8087L32.2998 14.9292L34.5558 15.4957L36.3745 14.3677L33.239 12.9266L35.6242 12.862L37.0056 13.4881L39.2616 13.677L39.8877 12.9862L39.4504 11.9825L38.7597 11.3563L39.3858 10.6656L39.3212 9.22455L37.8156 9.15995L38.5063 8.22077L37.2541 6.59088L37.1895 6.65548H37.1249L34.9285 8.22077L34.7397 9.03572H33.1744L31.6091 10.4172L31.9221 8.72266L30.168 6.77971L30.3568 5.39827L34.0539 4.96098L35.9372 4.33486L36.6876 2.95342L36.1211 2.26271L35.2415 1.76082L33.9893 2.95342C33.9893 2.95342 32.8613 2.7 32.6079 2.7C28.0958 4.08143 18.7488 7.58969 11.7919 19.0039M38.8144 14.0496L38.3125 16.0572L39.5051 15.3068L38.8144 14.0546V14.0496Z" fill="white"/>
<path d="M51.3517 14.1142C30.9134 23.019 6.39536 22.7656 3.44862 18.502C2.06719 21.573 0.939178 26.2788 0.814948 28.7833C9.34209 35.9936 36.6826 32.1673 55.6202 24.0178L56.7482 26.9049L68.0333 12.544L49.2249 10.3476L51.3566 14.1093L51.3517 14.1142Z" fill="#35758C"/>
<path d="M60.1322 39.8249L61.6975 42.8958C45.3936 51.2341 14.2318 57.5053 2.56907 49.0427C4.76546 54.6231 7.02147 58.196 8.65137 60.2035C22.5701 67.0362 49.2199 61.6446 65.7723 52.9932L67.0245 56.1288L76.0535 38.9503L60.1273 39.8298L60.1322 39.8249Z" fill="#35758C"/>
<path d="M80.824 10.9141L83.5819 14.1739C75.492 20.445 67.7152 24.957 54.2984 29.9759C32.2948 38.2546 5.83384 40.8286 0 33.4295C0 37.8769 0.437289 41.1417 1.19261 44.6499C10.7881 52.1137 43.5152 46.0314 60.1968 38.6919C74.9305 32.6096 81.0774 28.6591 89.3561 22.0153L91.4233 25.3397L98.1963 7.59465L80.8289 10.919L80.824 10.9141Z" fill="#35758C"/>
<path d="M55.1183 54.7474L54.4276 52.6156L55.3668 49.48L54.0499 50.0465L53.5481 51.9298L52.107 50.926L50.7256 51.4925L53.2946 53.187L53.9853 55.3188L55.1134 54.7523L55.1183 54.7474ZM45.7713 52.9286L45.9601 53.7436L47.59 53.1771L48.718 56.9388L49.9106 56.6257L48.7826 52.864L50.4125 52.2975L50.1591 51.4826L45.7713 52.9237V52.9286ZM43.5798 57.2568L43.2022 56.1884L45.334 55.6219L45.0805 54.807L42.9488 55.3735L42.5711 54.3697L44.7675 53.8032L44.5787 52.9883L41.1946 53.8678L42.7003 58.3848L46.1489 57.5053L45.8955 56.6903L43.5749 57.2568H43.5798ZM38.3125 54.4343L39.8778 59.0755L41.0704 58.8221L39.5051 54.1809L38.3125 54.4343ZM37.3087 58.4444C37.1199 58.509 36.8714 58.5687 36.618 58.6333C36.1161 58.6979 35.6788 58.6333 35.2366 58.4444C34.7943 58.2556 34.5458 57.878 34.4216 57.5053C34.2974 57.068 34.357 56.7549 34.5458 56.3773C34.7347 55.9996 35.172 55.8754 35.6739 55.8108C36.1757 55.7462 36.8019 55.8108 37.4926 55.9996L37.1795 54.9958C36.613 54.807 35.9869 54.7424 35.2962 54.8716C34.4813 54.9958 33.8551 55.3735 33.4129 55.8754C33.0998 56.4419 32.9756 57.068 33.224 57.6941C33.4129 58.3848 33.9148 58.8867 34.5409 59.2594C35.167 59.5724 35.9223 59.7613 36.7969 59.5724C37.423 59.5078 38.0491 59.2594 38.4914 58.8221L38.1783 57.8183C37.8007 58.196 37.4876 58.3848 37.2988 58.4444M28.9058 59.1352C28.5928 58.8817 28.3393 58.5687 28.2151 58.1314C28.0909 57.6941 28.1505 57.3164 28.3393 57.0034C28.5282 56.7499 28.9058 56.5661 29.2785 56.5015C29.7804 56.4369 30.0935 56.5661 30.4711 56.7549C30.7842 57.0083 31.0376 57.3214 31.1618 57.7587C31.2861 58.196 31.2264 58.509 31.0376 58.8867C30.8488 59.1401 30.4711 59.3886 30.0984 59.3886C29.6611 59.4532 29.2835 59.324 28.9058 59.1352ZM27.3405 56.4369C26.9032 57.0034 26.8386 57.5649 27.0275 58.2556C27.1517 58.9463 27.5939 59.5078 28.2797 59.8855C28.9058 60.3228 29.6611 60.5116 30.4761 60.452C31.291 60.3924 31.8575 60.1389 32.2948 59.5724C32.7321 59.006 32.7967 58.4444 32.6079 57.7537C32.4836 57.1276 32.0414 56.5611 31.4153 56.1238C30.7891 55.6865 30.0338 55.4977 29.2189 55.5573C28.2797 55.6219 27.6536 55.8704 27.3355 56.4369M23.2608 55.6865C22.6943 55.6865 22.3216 55.8108 22.0086 56.1238C21.7601 56.3773 21.7601 56.7499 21.8843 57.1276C22.0086 57.4407 22.1328 57.6941 22.3862 57.878C22.5751 58.0668 22.8881 58.191 23.0769 58.3798C23.3254 58.5041 23.6434 58.5687 24.0161 58.6929C24.4534 58.8171 24.7068 58.8817 24.7665 59.006C24.8261 59.1302 24.9553 59.1948 24.9553 59.2594C25.0199 59.5128 24.8907 59.6967 24.3888 59.7613C24.1404 59.7613 23.8223 59.6967 23.5739 59.637C23.3254 59.5724 22.9477 59.3836 22.5701 59.1352L22.8831 60.1389C23.5739 60.3924 24.2 60.6408 24.7665 60.6408C25.333 60.6408 25.7056 60.5166 25.9591 60.2035C26.2075 59.9501 26.2075 59.5774 26.0833 59.1998C25.9591 58.8867 25.8348 58.6333 25.5814 58.4494C25.3926 58.2606 25.0795 58.1363 24.8907 57.9475C24.6422 57.8233 24.3242 57.7587 23.9515 57.6345C23.5142 57.5102 23.2608 57.4456 23.2012 57.3214C23.0769 57.2568 23.0123 57.1972 23.0123 57.068C22.9477 56.9437 23.0123 56.8791 23.0769 56.8145C23.1415 56.7499 23.3254 56.6903 23.5788 56.6903C23.8919 56.6903 24.518 56.8145 25.2087 57.1276L24.8957 56.1884C24.3938 55.8108 23.8323 55.6865 23.2658 55.6865" fill="#E5E5E5"/>
<path d="M68.6594 31.4219L66.8407 27.9087L65.8369 28.4752L68.0333 32.7388L71.2931 31.1089L70.8558 30.3585L68.6594 31.4219ZM63.3324 32.9872L63.2082 30.9797L64.7138 32.3611L63.3324 32.9872ZM62.0752 30.2293L62.3286 35.3725L63.5212 34.806L63.4566 33.8022L65.3996 32.9226L66.1499 33.6134L67.3425 33.0469L63.392 29.5983L62.0752 30.2244V30.2293ZM58.6266 31.735L59.7546 34.4929L56.2414 32.6742L55.173 33.1115L56.9917 37.5639L58.1197 37.1266L56.9271 34.3687L60.5 36.252L61.4391 35.9389L59.6204 31.4865L58.6166 31.735H58.6266ZM51.9182 38.0061C51.6051 37.8819 51.292 37.5688 51.1678 37.1912C51.0436 36.7539 51.0436 36.3762 51.2324 35.9986C51.4212 35.6855 51.7343 35.3725 52.112 35.2482C52.5493 35.124 52.9269 35.124 53.3046 35.2482C53.6176 35.3725 53.9307 35.7501 54.0549 36.1278C54.1791 36.5651 54.1791 36.9427 53.9903 37.3204C53.8661 37.6334 53.4884 37.9465 53.1108 38.0707C52.6735 38.1353 52.2312 38.1353 51.9182 38.0061ZM50.0994 35.6855C49.7864 36.3116 49.7864 36.9378 49.9752 37.5688C50.164 38.1999 50.6659 38.6969 51.292 38.9503C51.9182 39.1987 52.6735 39.1987 53.4238 38.9503C54.1742 38.7018 54.7407 38.2596 55.0537 37.5688C55.3668 36.9427 55.3668 36.3166 55.178 35.6855C54.9891 35.0544 54.5518 34.5575 53.8611 34.3041C53.235 34.0556 52.4797 34.0556 51.7293 34.3041C50.979 34.5525 50.4771 35.0544 50.0994 35.6855ZM47.0881 35.934L48.5292 40.5752L49.7218 40.2621L48.2161 35.6209L47.0881 35.934ZM41.6965 37.4396L41.8854 38.2546L43.5153 37.7527L44.6433 41.5144L45.8359 41.2013L44.7079 37.4396L46.3378 36.9378L46.1489 36.1228L41.6965 37.4396ZM39.5051 41.0771L39.7585 39.0695L40.9511 40.6994L39.5101 41.0771H39.5051ZM38.8144 38.1304L38.064 43.2089L39.3163 42.9555L39.4405 41.9517L41.5077 41.4498L42.1338 42.2647L43.386 42.0113L40.1263 37.872L38.8094 38.1204L38.8144 38.1304ZM34.9881 39.0695L35.6788 41.9517L32.5433 39.6311L31.4153 39.8199L32.5433 44.5207L33.7359 44.3319L32.9855 41.261L36.3099 43.7704L37.2491 43.5816L36.1211 38.8807L34.9931 39.0695H34.9881ZM28.4685 41.0125C28.9704 40.9479 29.1592 41.0771 29.2189 41.4498C29.2189 41.6386 29.2189 41.7628 29.0946 41.8871C29.03 42.0113 28.8462 42.0759 28.5928 42.0759L27.9666 42.1405L27.7778 41.0125H28.4685ZM27.4001 45.0922L28.5928 44.968L28.2797 43.025L28.5928 42.9604C28.717 42.9604 28.9058 42.9604 29.0946 43.0847C29.2189 43.2089 29.4077 43.3977 29.7208 43.835C29.9692 44.2723 30.2227 44.5257 30.2873 44.6499L31.6041 44.4611C31.3556 44.0238 31.0376 43.6462 30.7891 43.2089C30.5407 42.7716 30.2227 42.5182 29.9742 42.4585C30.4761 42.1455 30.6649 41.7082 30.6003 41.2063C30.5357 40.8932 30.3518 40.5156 29.9742 40.3268C29.6611 40.1379 29.2238 40.0783 28.7816 40.1379L26.6498 40.3864L27.4001 45.0872V45.0922ZM23.7627 44.5903L23.6385 43.3977L25.8349 43.2089L25.646 42.3293L23.4496 42.5182L23.3254 41.579L25.5814 41.3902L25.4572 40.5106L21.944 40.7591L22.6347 45.5245L26.1479 45.2115L26.0833 44.3965L23.7627 44.5854V44.5903ZM16.4282 40.9529L16.4928 41.8324L18.1873 41.7678L18.6891 45.7183H19.8818L19.3799 41.7678L21.0744 41.7032L21.0098 40.8237L16.4331 40.9479L16.4282 40.9529ZM14.4852 40.8237L14.674 43.7704L11.9161 40.6348L10.7881 40.5702L11.1012 45.4003L12.2938 45.4649L12.105 42.3939L14.9275 45.7183L15.9312 45.7829L15.6182 40.8932L14.4902 40.8286L14.4852 40.8237ZM8.27868 40.1975L8.52714 45.1518L9.71975 45.3407L9.47129 40.3864L8.27868 40.1975Z" fill="#E5E5E5"/>
<path d="M56.8724 14.4273C56.3706 14.6758 56.0575 14.9938 55.8687 15.3665C55.6798 15.6795 55.7444 16.1168 55.9333 16.4945C56.0575 16.7429 56.2463 16.9964 56.5594 17.1206C56.7482 17.2448 57.0613 17.2448 57.3097 17.2448C57.5582 17.2448 57.8762 17.2448 58.2489 17.1802C58.6862 17.1156 58.875 17.1156 58.9993 17.1802C59.1235 17.2448 59.1881 17.2448 59.2527 17.3691C59.3769 17.6175 59.2527 17.871 58.8154 18.0598C58.562 18.184 58.3135 18.2486 58.0651 18.2486H57.0613L57.5632 19.1282C58.2539 19.1282 58.8154 19.0039 59.3819 18.6909C59.8838 18.4424 60.1968 18.1244 60.3857 17.7517C60.5745 17.379 60.5099 17.0013 60.3211 16.5591C60.1968 16.3106 60.008 16.0572 59.695 15.9926C59.4415 15.8684 59.1285 15.8038 58.9446 15.8038C58.6912 15.8038 58.3781 15.8038 58.0054 15.8684C57.5681 15.933 57.3793 15.933 57.2551 15.8684C57.1308 15.8684 57.0662 15.8038 57.0016 15.7441C56.937 15.6199 56.937 15.5553 57.0016 15.4311C57.0662 15.3068 57.1905 15.2422 57.4389 15.118C57.752 14.9292 58.3185 14.8696 59.0042 14.805L58.5023 13.99C57.8762 13.99 57.2501 14.1142 56.8724 14.4273ZM52.9219 19.6946L52.7977 17.6871L54.3034 19.0685L52.9219 19.6946ZM51.6697 16.8721L51.8585 22.0749L53.0511 21.5084L52.9865 20.5046L54.9941 19.6251L55.7444 20.3158L56.937 19.7493L52.9219 16.1765L51.6697 16.8672V16.8721ZM47.8434 18.6312L49.6621 23.0836L50.7902 22.6463L48.9714 18.1939L47.8434 18.6312ZM44.3302 20.8227C44.8321 20.6984 45.2097 20.6984 45.5824 20.8227C45.8955 20.9469 46.2086 21.3245 46.3328 21.7022C46.457 22.1395 46.457 22.5171 46.3328 22.8948C46.2086 23.2725 45.8309 23.5209 45.3936 23.6452L44.6433 23.8936L43.6395 21.0065L44.3302 20.8177V20.8227ZM43.7687 25.1508L45.652 24.4601C46.467 24.2116 47.0931 23.7098 47.3465 23.1433C47.6596 22.5768 47.6596 21.9507 47.4111 21.2003C47.2223 20.5096 46.7204 20.0077 46.1589 19.8189C45.5327 19.5704 44.842 19.5704 44.0917 19.8189L42.0841 20.5096L43.7786 25.1508H43.7687ZM38.9386 24.7135L39.0629 22.706L40.3151 24.2713L38.9337 24.7086L38.9386 24.7135ZM38.1237 21.8264L37.5572 26.9695L38.8094 26.6565L38.874 25.6527L40.9412 25.0266L41.5673 25.8415L42.8196 25.5285L39.4355 21.4537L38.1187 21.8314L38.1237 21.8264ZM34.4266 23.6452C34.7396 23.5806 34.9931 23.5806 35.1173 23.6452C35.2415 23.7098 35.3707 23.834 35.3707 24.0824C35.4353 24.3955 35.2465 24.7086 34.7446 24.7732L34.2427 24.8378L33.9943 23.7098L34.4316 23.6452H34.4266ZM33.7359 27.8441L34.9285 27.5957L34.4912 25.7123L35.3707 25.5235C35.8726 25.3993 36.1857 25.2105 36.3745 24.8328C36.5633 24.4551 36.6279 24.1421 36.5633 23.7048C36.4987 23.3917 36.3099 23.0141 35.9372 22.8252C35.6242 22.6364 35.1869 22.5768 34.685 22.701L32.6178 23.2029L33.7458 27.8441H33.7359ZM29.7854 23.5806C29.2189 23.6452 28.8462 23.829 28.5331 24.2067C28.2847 24.4551 28.0958 24.8974 28.2201 25.3347C28.2847 25.6477 28.4089 25.9012 28.5331 26.085C28.722 26.2739 28.9704 26.3335 29.1592 26.3981C29.3481 26.4627 29.7257 26.5223 30.0388 26.5869C30.3518 26.6515 30.6649 26.7112 30.7891 26.7758C30.9134 26.8404 30.9134 26.9 30.978 27.0242C31.0426 27.2727 30.8537 27.5261 30.3519 27.5907C30.1034 27.6553 29.7854 27.6553 29.5369 27.5907C29.2884 27.5261 28.9704 27.4665 28.6574 27.2776L28.7816 28.2168C29.4077 28.4056 29.9742 28.4653 30.6003 28.341C31.1668 28.2764 31.5395 28.0926 31.8525 27.7149C32.101 27.4019 32.2898 27.0242 32.1656 26.5869C32.101 26.3385 31.9768 26.0204 31.8525 25.8366C31.6637 25.6477 31.4153 25.5881 31.2264 25.5235C31.0376 25.4589 30.6599 25.3993 30.3469 25.3347C30.0338 25.2701 29.7208 25.2105 29.6562 25.1459C29.5319 25.0813 29.5319 25.0216 29.4673 24.957C29.4673 24.8328 29.4673 24.7682 29.5916 24.644C29.7158 24.5794 29.84 24.5197 30.0935 24.4551C30.4065 24.3905 30.973 24.4551 31.6587 24.5794L31.5345 23.6998C30.8438 23.4514 30.2823 23.4514 29.7804 23.5756M23.8273 27.9087C23.5788 27.6603 23.3254 27.3422 23.3254 26.9049C23.2608 26.4677 23.39 26.09 23.5739 25.7769C23.8223 25.5285 24.2 25.2751 24.5776 25.2751C25.0795 25.2105 25.3926 25.3397 25.7057 25.5235C25.9541 25.7123 26.2075 26.09 26.2721 26.5273C26.3367 26.9646 26.2075 27.3422 26.0237 27.6553C25.7752 27.9038 25.3976 28.1572 25.0199 28.1572C24.518 28.2218 24.1404 28.0926 23.8273 27.9087ZM22.6347 25.2105C22.1328 25.7769 22.0086 26.4031 22.0682 27.0292C22.1328 27.7199 22.5055 28.2814 23.0074 28.6591C23.5739 29.0964 24.2596 29.2852 25.0746 29.2256C25.8895 29.1659 26.5156 28.7883 26.9579 28.2864C27.4598 27.7199 27.6486 27.0938 27.584 26.4677C27.5194 25.8415 27.2709 25.2751 26.6448 24.8378C26.0783 24.4005 25.3926 24.2116 24.5776 24.2713C23.7627 24.3955 23.1366 24.6489 22.6347 25.2105ZM19.1264 25.5285C19.4395 25.5285 19.6929 25.5285 19.8172 25.6527C19.9414 25.7173 20.006 25.8415 20.006 26.09C20.006 26.4031 19.8172 26.6565 19.2556 26.6565H18.7537V25.5285H19.1314H19.1264ZM17.6208 29.479H18.8134V27.536H19.7526C20.2544 27.536 20.6321 27.4118 20.9452 27.0987C21.1936 26.8503 21.3824 26.4726 21.3824 26.095C21.3824 25.6577 21.2582 25.4043 20.9452 25.1558C20.6967 24.9073 20.2544 24.7185 19.7526 24.7185H17.6208V29.484V29.479ZM14.674 29.3498L14.7983 27.1534L16.8655 24.7732L15.4244 24.7086L14.2318 26.1496L13.2926 24.5843L11.8515 24.4601L13.546 27.1584L13.4218 29.3548H14.674V29.3498ZM10.0328 24.0228L9.78435 25.9658L7.52833 25.5285L7.77679 23.5855L6.52455 23.3967L5.89844 28.1622L7.09104 28.351L7.3395 26.408L9.66012 26.8453L9.41166 28.7883L10.6043 28.9771L11.2304 24.2116L10.0378 24.0228H10.0328Z" fill="#E5E5E5"/>
</svg>
