<svg width="15" height="18" viewBox="0 0 15 18" fill="none" xmlns="http://www.w3.org/2000/svg">
<path d="M7.73999 3.94615C8.52002 3.94615 9.4978 3.42435 10.0801 2.72861C10.6074 2.09809 10.9919 1.21755 10.9919 0.336999C10.9919 0.217418 10.981 0.0978386 10.959 0C10.0911 0.0326128 9.04736 0.57616 8.42114 1.30451C7.92676 1.85893 7.47632 2.72861 7.47632 3.62003C7.47632 3.75048 7.49829 3.88093 7.50928 3.92441C7.56421 3.93528 7.6521 3.94615 7.73999 3.94615ZM4.99341 17.1C6.05908 17.1 6.53149 16.3934 7.86084 16.3934C9.21216 16.3934 9.50879 17.0783 10.6953 17.0783C11.8599 17.0783 12.6399 16.0129 13.376 14.9693C14.2 13.7735 14.5405 12.5994 14.5625 12.5451C14.4856 12.5233 12.2554 11.621 12.2554 9.08811C12.2554 6.89218 14.0132 5.90292 14.1121 5.82683C12.9475 4.17444 11.1787 4.13096 10.6953 4.13096C9.38794 4.13096 8.32227 4.91367 7.6521 4.91367C6.927 4.91367 5.97119 4.17444 4.8396 4.17444C2.68628 4.17444 0.5 5.93554 0.5 9.26205C0.5 11.3275 1.31299 13.5126 2.31274 14.9258C3.16968 16.1216 3.91675 17.1 4.99341 17.1Z" fill="black"/>
</svg>
