<svg width="22" height="20" viewBox="0 0 22 20" fill="none" xmlns="http://www.w3.org/2000/svg">
<path d="M17 13V7C17 4.17157 17 2.75736 16.1213 1.87868C15.2426 1 13.8284 1 11 1H7C4.17157 1 2.75736 1 1.87868 1.87868C1 2.75736 1 4.17157 1 7V13C1 15.8284 1 17.2426 1.87868 18.1213C2.75736 19 4.17157 19 7 19H19M19 19C20.1046 19 21 18.1046 21 17V9C21 7.58579 21 6.87868 20.5607 6.43934C20.1213 6 19.4142 6 18 6H17V17C17 18.1046 17.8954 19 19 19ZM5 6H13M5 10H13M5 14H9" stroke="black" stroke-width="1.5" stroke-linecap="round" stroke-linejoin="round"/>
</svg>
