<svg width="15" height="15" viewBox="0 0 15 15" fill="none" xmlns="http://www.w3.org/2000/svg">
<path d="M4.99 8.67925H10.31M4.99 5.18868H7.65M3.72571 12.5189C2.86114 12.4296 2.21346 12.157 1.77909 11.701C1 10.8831 1 9.56669 1 6.93396V6.58491C1 3.95215 1 2.63578 1.77909 1.81789C2.55819 1 3.81213 1 6.32 1H8.98C11.4878 1 12.7418 1 13.5209 1.81789C14.3 2.63578 14.3 3.95215 14.3 6.58491V6.93396C14.3 9.56669 14.3 10.8831 13.5209 11.701C12.7418 12.5189 11.4878 12.5189 8.98 12.5189C8.60727 12.5276 8.31041 12.5573 8.01881 12.6271C7.22187 12.8197 6.48392 13.2478 5.75466 13.6211C4.71555 14.153 4.19599 14.419 3.86993 14.17C3.24616 13.6823 3.85587 12.1711 3.9925 11.4717" stroke="#7B7B7B" stroke-width="1.04717" stroke-linecap="round"/>
</svg>
