<svg width="20" height="20" viewBox="0 0 20 20" fill="none" xmlns="http://www.w3.org/2000/svg">
<path d="M14.4249 2.60509L15.4149 1.6151C16.2351 0.794968 17.5648 0.794968 18.3849 1.6151C19.205 2.43524 19.205 3.76493 18.3849 4.58507L17.3949 5.57506M14.4249 2.60509L7.76558 9.2644C7.25807 9.772 6.89804 10.4078 6.72397 11.1041L6 14L8.8959 13.276C9.5922 13.102 10.228 12.7419 10.7356 12.2344L17.3949 5.57506M14.4249 2.60509L17.3949 5.57506M16.9999 11.5C16.9999 14.7875 16.9999 16.4312 16.092 17.5376C15.9258 17.7401 15.7401 17.9258 15.5375 18.092C14.4312 19 12.7874 19 9.4999 19H9C5.22876 19 3.34316 19 2.17159 17.8284C1.00003 16.6569 1 14.7712 1 11V10.5C1 7.21252 1 5.56879 1.90794 4.46244C2.07417 4.2599 2.2599 4.07417 2.46244 3.90794C3.56879 3 5.21252 3 8.5 3" stroke="#ADADAD" stroke-width="1.5" stroke-linecap="round" stroke-linejoin="round"/>
</svg>
