<svg width="20" height="15" viewBox="0 0 20 15" fill="none" xmlns="http://www.w3.org/2000/svg">
<path fill-rule="evenodd" clip-rule="evenodd" d="M19 0H1C0.585786 0 0.25 0.335786 0.25 0.75V13.5C0.25 14.3284 0.921573 15 1.75 15H18.25C19.0784 15 19.75 14.3284 19.75 13.5V0.75C19.75 0.335786 19.4142 0 19 0ZM10 7.98281L2.92844 1.5H17.0716L10 7.98281ZM7.25406 7.5L1.75 12.5447V2.45531L7.25406 7.5ZM8.36406 8.51719L9.48906 9.55313C9.77592 9.81645 10.2166 9.81645 10.5034 9.55313L11.6284 8.51719L17.0659 13.5H2.92844L8.36406 8.51719ZM12.7459 7.5L18.25 2.45437V12.5456L12.7459 7.5Z" fill="black"/>
</svg>
