<svg width="19" height="18" viewBox="0 0 19 18" fill="none" xmlns="http://www.w3.org/2000/svg">
<g opacity="0.5">
<path d="M14.4988 10.5146C15.9534 10.5148 17.1316 11.6499 17.1316 13.0498C17.1314 14.4487 15.9533 15.5829 14.4988 15.583C13.045 15.583 11.8652 14.4488 11.865 13.0498C11.865 11.6498 13.0449 10.5146 14.4988 10.5146ZM8.00757 11.9688C8.64451 11.9689 9.16166 12.4661 9.16187 13.0791C9.16187 13.6914 8.64463 14.1903 8.00757 14.1904H2.97241C2.33528 14.1903 1.81812 13.6914 1.81812 13.0791C1.81832 12.4661 2.3354 11.9688 2.97241 11.9688H8.00757ZM4.45093 2.25C5.9057 2.25 7.08374 3.385 7.08374 4.78418C7.08359 6.18406 5.90561 7.31836 4.45093 7.31836C2.99721 7.31824 1.81826 6.18399 1.81812 4.78418C1.81812 3.38507 2.99712 2.25012 4.45093 2.25ZM15.9783 3.67383C16.6145 3.674 17.1316 4.17189 17.1316 4.78418C17.1314 5.39717 16.6144 5.89436 15.9783 5.89453H10.9431C10.3061 5.89446 9.78896 5.39723 9.78882 4.78418C9.78882 4.17183 10.306 3.6739 10.9431 3.67383H15.9783Z" fill="white"/>
</g>
</svg>
