<svg width="22" height="22" viewBox="0 0 22 22" fill="none" xmlns="http://www.w3.org/2000/svg">
<path d="M7.74868 17.4911L8.49678 17.4377L7.74868 17.4911ZM14.2499 17.4911L13.5018 17.4376L13.5018 17.4377L14.2499 17.4911ZM1.35139 12.2135L0.610091 12.3274L0.610092 12.3274L1.35139 12.2135ZM1.25617 7.74938L1.94604 8.04363L1.94604 8.04362L1.25617 7.74938ZM4.58114 4.64106L4.1417 4.03328L4.1417 4.03329L4.58114 4.64106ZM6.02099 3.6L6.46043 4.20778L6.46043 4.20777L6.02099 3.6ZM15.979 3.6L16.4185 2.99223L16.4185 2.99222L15.979 3.6ZM17.4188 4.64106L16.9794 5.24883L16.9794 5.24884L17.4188 4.64106ZM20.7438 7.74938L20.0539 8.04362L20.0539 8.04362L20.7438 7.74938ZM20.6486 12.2135L19.9073 12.0996L20.6486 12.2135ZM20.3476 14.1724L21.0889 14.2863L21.0889 14.2863L20.3476 14.1724ZM1.65243 14.1724L2.39373 14.0585L2.39373 14.0585L1.65243 14.1724ZM7.99931 21L8.74741 20.9466L8.49678 17.4377L7.74868 17.4911L7.00059 17.5445L7.25122 21.0534L7.99931 21ZM7.74868 17.4911L8.49678 17.4377C8.39304 15.9853 9.54327 14.75 10.9993 14.75V14V13.25C8.67276 13.25 6.83483 15.2239 7.00059 17.5445L7.74868 17.4911ZM10.9993 14V14.75C12.4554 14.75 13.6056 15.9853 13.5018 17.4376L14.2499 17.4911L14.998 17.5446C15.1638 15.2239 13.3259 13.25 10.9993 13.25V14ZM14.2499 17.4911L13.5018 17.4377L13.2512 20.9466L13.9993 21L14.7474 21.0534L14.998 17.5445L14.2499 17.4911ZM1.35139 12.2135L2.09269 12.0996C1.91382 10.9356 1.78929 10.119 1.75765 9.46553C1.72689 8.82999 1.78878 8.41233 1.94604 8.04363L1.25617 7.74938L0.566301 7.45513C0.289252 8.10468 0.222245 8.77043 0.259409 9.53806C0.295703 10.2877 0.43594 11.1941 0.610091 12.3274L1.35139 12.2135ZM1.25617 7.74938L1.94604 8.04362C2.1039 7.6735 2.36702 7.33129 2.85661 6.8969C3.35817 6.45189 4.04492 5.95427 5.02058 5.24883L4.58114 4.64106L4.1417 4.03329C3.19025 4.72122 2.43167 5.26863 1.86109 5.77487C1.27855 6.29174 0.842737 6.807 0.566298 7.45514L1.25617 7.74938ZM4.58114 4.64106L5.02058 5.24884L6.46043 4.20778L6.02099 3.6L5.58155 2.99222L4.1417 4.03328L4.58114 4.64106ZM6.02099 3.6L6.46043 4.20777C7.67318 3.33092 8.53197 2.7114 9.25786 2.30406C9.9664 1.90645 10.483 1.75 11 1.75V1V0.25C10.1339 0.25 9.35968 0.526883 8.5238 0.995946C7.70528 1.45527 6.7661 2.13575 5.58155 2.99222L6.02099 3.6ZM11 1V1.75C11.517 1.75 12.0336 1.90645 12.7421 2.30406C13.468 2.7114 14.3268 3.33092 15.5396 4.20777L15.979 3.6L16.4185 2.99222C15.2339 2.13575 14.2947 1.45527 13.4762 0.995945C12.6403 0.526887 11.8661 0.25 11 0.25V1ZM15.979 3.6L15.5396 4.20777L16.9794 5.24883L17.4188 4.64106L17.8583 4.03329L16.4185 2.99223L15.979 3.6ZM17.4188 4.64106L16.9794 5.24884C17.9551 5.95427 18.6418 6.45189 19.1434 6.8969C19.633 7.33128 19.8961 7.67349 20.0539 8.04362L20.7438 7.74938L21.4337 7.45514C21.1573 6.80701 20.7215 6.29175 20.1389 5.77488C19.5683 5.26863 18.8098 4.72122 17.8583 4.03328L17.4188 4.64106ZM20.7438 7.74938L20.0539 8.04362C20.2112 8.41233 20.2731 8.82999 20.2423 9.46553C20.2107 10.119 20.0862 10.9356 19.9073 12.0996L20.6486 12.2135L21.3899 12.3274C21.5641 11.1941 21.7043 10.2877 21.7406 9.53806C21.7777 8.77043 21.7107 8.10468 21.4337 7.45514L20.7438 7.74938ZM20.6486 12.2135L19.9073 12.0996L19.6063 14.0585L20.3476 14.1724L21.0889 14.2863L21.3899 12.3274L20.6486 12.2135ZM20.3476 14.1724L19.6063 14.0585C19.353 15.7066 19.1726 16.8709 18.9182 17.7487C18.6704 18.6039 18.3761 19.0971 17.9494 19.452L18.429 20.0286L18.9086 20.6052C19.6499 19.9887 20.0646 19.1821 20.359 18.1662C20.6468 17.1728 20.8417 15.8947 21.0889 14.2863L20.3476 14.1724ZM18.429 20.0286L17.9494 19.452C17.5197 19.8094 16.9613 20.0217 16.0361 20.134C15.0921 20.2487 13.865 20.25 12.1388 20.25V21V21.75C13.8274 21.75 15.1615 21.7513 16.2169 21.6231C17.2911 21.4926 18.1704 21.2192 18.9086 20.6052L18.429 20.0286ZM12.1388 21V20.25H9.86122V21V21.75H12.1388V21ZM9.86122 21V20.25C8.13498 20.25 6.90794 20.2487 5.96393 20.134C5.03867 20.0217 4.48034 19.8094 4.0506 19.452L3.571 20.0286L3.0914 20.6052C3.82957 21.2192 4.70891 21.4926 5.78306 21.6231C6.83847 21.7513 8.17257 21.75 9.86122 21.75V21ZM3.571 20.0286L4.0506 19.452C3.62394 19.0971 3.32959 18.6039 3.08178 17.7487C2.82742 16.8709 2.647 15.7066 2.39373 14.0585L1.65243 14.1724L0.911132 14.2863C1.1583 15.8947 1.35321 17.1728 1.64105 18.1662C1.93544 19.1821 2.35015 19.9887 3.0914 20.6052L3.571 20.0286ZM1.65243 14.1724L2.39373 14.0585L2.09269 12.0996L1.35139 12.2135L0.610092 12.3274L0.911133 14.2863L1.65243 14.1724Z" fill="black"/>
</svg>
