<svg width="18" height="18" viewBox="0 0 18 18" fill="none" xmlns="http://www.w3.org/2000/svg">
<path d="M6.00073 2.32335C6.00073 2.32335 3.02604 2.05646 2.5416 2.54089C2.05716 3.02532 2.3241 6 2.3241 6" stroke="black" stroke-width="1.5" stroke-linecap="round" stroke-linejoin="round"/>
<path d="M6.00073 15.6767C6.00073 15.6767 3.02604 15.9436 2.5416 15.4591C2.05716 14.9746 2.3241 12 2.3241 12" stroke="black" stroke-width="1.5" stroke-linecap="round" stroke-linejoin="round"/>
<path d="M12.0002 2.32335C12.0002 2.32335 14.975 2.05646 15.4594 2.54089C15.9438 3.02532 15.6769 6 15.6769 6" stroke="black" stroke-width="1.5" stroke-linecap="round" stroke-linejoin="round"/>
<path d="M12.0002 15.6767C12.0002 15.6767 14.975 15.9436 15.4594 15.4591C15.9438 14.9746 15.6769 12 15.6769 12" stroke="black" stroke-width="1.5" stroke-linecap="round" stroke-linejoin="round"/>
<path d="M10.5083 7.49885L15.0471 2.96008" stroke="black" stroke-width="1.5" stroke-linecap="round" stroke-linejoin="round"/>
<path d="M7.49844 10.5018L2.73047 15.2855" stroke="black" stroke-width="1.5" stroke-linecap="round" stroke-linejoin="round"/>
<path d="M7.49873 7.5018L2.88501 2.89417" stroke="black" stroke-width="1.5" stroke-linecap="round" stroke-linejoin="round"/>
<path d="M10.4858 10.5018L15.3971 15.3737" stroke="black" stroke-width="1.5" stroke-linecap="round" stroke-linejoin="round"/>
</svg>
