<svg width="22" height="22" viewBox="0 0 22 22" fill="none" xmlns="http://www.w3.org/2000/svg">
<path d="M10.4922 16C10.4922 16.4142 10.828 16.75 11.2422 16.75C11.6564 16.75 11.9922 16.4142 11.9922 16H10.4922ZM10.2422 9.25C9.82797 9.25 9.49219 9.58579 9.49219 10C9.49219 10.4142 9.82797 10.75 10.2422 10.75V9.25ZM10.992 6.25C10.5778 6.25 10.242 6.58579 10.242 7C10.242 7.41421 10.5778 7.75 10.992 7.75V6.25ZM11.001 7.75C11.4152 7.75 11.751 7.41421 11.751 7C11.751 6.58579 11.4152 6.25 11.001 6.25V7.75ZM21 11H21.75C21.75 5.06293 16.937 0.25 11 0.25V1V1.75C16.1086 1.75 20.25 5.89137 20.25 11H21ZM11 1V0.25C5.06294 0.25 0.25 5.06294 0.25 11H1H1.75C1.75 5.89136 5.89136 1.75 11 1.75V1ZM1 11H0.25C0.25 16.937 5.06293 21.75 11 21.75V21V20.25C5.89137 20.25 1.75 16.1086 1.75 11H1ZM11 21V21.75C16.937 21.75 21.75 16.937 21.75 11H21H20.25C20.25 16.1086 16.1086 20.25 11 20.25V21ZM11.2422 16H11.9922V11H11.2422H10.4922V16H11.2422ZM11.2422 11H11.9922C11.9922 10.7855 11.9938 10.5492 11.9672 10.3514C11.9377 10.132 11.8618 9.85186 11.626 9.61607L11.0957 10.1464L10.5654 10.6767C10.5266 10.6379 10.5009 10.595 10.4868 10.5607C10.4752 10.5324 10.4767 10.5229 10.4806 10.5513C10.4845 10.5803 10.4881 10.6276 10.4901 10.7073C10.4921 10.7865 10.4922 10.8794 10.4922 11H11.2422ZM11.0957 10.1464L11.626 9.61607C11.3902 9.38026 11.11 9.30446 10.8907 9.27498C10.693 9.24841 10.4567 9.25 10.2422 9.25V10V10.75C10.3628 10.75 10.4556 10.75 10.5349 10.752C10.6146 10.7541 10.6619 10.7577 10.6909 10.7616C10.7194 10.7654 10.7098 10.767 10.6815 10.7554C10.6473 10.7413 10.6042 10.7156 10.5654 10.6767L11.0957 10.1464ZM10.992 7V7.75H11.001V7V6.25H10.992V7Z" fill="black"/>
</svg>
