<svg width="14" height="14" viewBox="0 0 14 14" fill="none" xmlns="http://www.w3.org/2000/svg">
<path d="M5.51395 8.46332L8.46207 5.5152M7.34295 8.86705C7.78682 9.55136 7.66836 10.2528 7.15561 10.7656L5.35829 12.5629C4.77119 13.15 3.8193 13.15 3.2322 12.5629L1.44033 10.771C0.853223 10.1839 0.853223 9.23206 1.44033 8.64496L3.23765 6.84759C3.65886 6.42641 4.45941 6.18314 5.14736 6.68131M8.86699 7.34294C9.5513 7.78681 10.2528 7.66842 10.7655 7.15566L12.5628 5.35832C13.1499 4.77121 13.1499 3.81932 12.5628 3.23221L10.771 1.44033C10.1839 0.853223 9.23201 0.853223 8.64491 1.44033L6.84754 3.23766C6.42635 3.65887 6.18315 4.45943 6.68132 5.14738" stroke="black" stroke-width="0.900095" stroke-linecap="round" stroke-linejoin="round"/>
</svg>
