<svg width="79" height="39" viewBox="0 0 79 39" fill="none" xmlns="http://www.w3.org/2000/svg">
<path d="M10.6624 19.5672V38.3098H0V0.632812H10.6624V15.7851H19.3607V0.632812H30.0231V38.305H19.3607V19.5624H10.6624V19.5672Z" fill="#37474F"/>
<path d="M47.0408 0.632812V38.305H36.3784V0.632812H47.0408Z" fill="#37474F"/>
<path d="M77.438 11.1784L72.4856 12.1179C72.7007 11.1065 72.8082 10.258 72.8082 9.57734C72.8082 5.19608 70.2128 3.01024 65.0266 3.01024C60.9346 3.01024 58.8863 4.52019 58.8863 7.53531C58.8863 9.79785 61.1731 11.7392 65.7514 13.3594C74.5853 16.4704 78.9999 21.0674 78.9999 27.1599C78.9999 30.7311 77.7607 33.5976 75.2821 35.7595C72.8036 37.9214 69.5113 38.9999 65.4007 38.9999C56.3002 38.9999 51.75 35.3856 51.75 28.1522C51.75 27.5626 51.7968 26.8388 51.8856 25.9712L57.0298 24.8111C56.6323 26.4122 56.4358 27.8023 56.4358 28.9767C56.4358 33.6504 59.0453 35.9848 64.2736 35.9848C68.4544 35.9848 70.5495 34.3023 70.5495 30.9324C70.5495 28.4302 68.0429 26.23 63.0391 24.3366C55.8045 21.6138 52.1896 17.2613 52.1896 11.2838C52.1896 7.89962 53.3961 5.17211 55.8092 3.10131C58.2223 1.03052 61.3976 -0.00488281 65.3259 -0.00488281C73.4022 -0.00488281 77.4427 3.71967 77.4427 11.1736L77.438 11.1784Z" fill="#37474F"/>
</svg>
