<svg width="18" height="20" viewBox="0 0 18 20" fill="none" xmlns="http://www.w3.org/2000/svg">
<path d="M7.2496 1.70725C7.6402 1.5694 7.8451 1.14101 7.70725 0.750403C7.5694 0.3598 7.14101 0.154902 6.7504 0.292751L7.2496 1.70725ZM6.3374 1.23384L6.0878 0.526591L6.08778 0.526599L6.3374 1.23384ZM1.73464 16.3626L1.12237 16.7958L1.12239 16.7958L1.73464 16.3626ZM6.3374 18.7662L6.08777 19.4734L6.08784 19.4735L6.3374 18.7662ZM6.75044 19.7073C7.14105 19.8451 7.56943 19.6402 7.70726 19.2496C7.84509 18.8589 7.64017 18.4306 7.24956 18.2927L6.75044 19.7073ZM7 9.25C6.58579 9.25 6.25 9.58579 6.25 10C6.25 10.4142 6.58579 10.75 7 10.75V9.25ZM15.0227 6.96219C14.7257 6.67349 14.2509 6.68023 13.9622 6.97726C13.6735 7.27428 13.6802 7.74911 13.9773 8.03781L15.0227 6.96219ZM13.9773 11.9622C13.6802 12.2509 13.6735 12.7257 13.9622 13.0227C14.2509 13.3198 14.7257 13.3265 15.0227 13.0378L13.9773 11.9622ZM7 1L6.7504 0.292751L6.0878 0.526591L6.3374 1.23384L6.587 1.94109L7.2496 1.70725L7 1ZM6.3374 1.23384L6.08778 0.526599C4.81449 0.976005 3.80047 1.33273 3.01711 1.71279C2.21659 2.10117 1.58919 2.54447 1.12239 3.20424L1.73464 3.63742L2.34689 4.0706C2.61473 3.69203 2.99935 3.38862 3.67186 3.06234C4.36154 2.72773 5.28158 2.40183 6.58702 1.94108L6.3374 1.23384ZM1.73464 3.63742L1.12239 3.20424C0.655585 3.86402 0.446373 4.60319 0.346564 5.48734C0.248893 6.35255 0.25 7.4275 0.25 8.7778H1H1.75C1.75 7.3934 1.75111 6.41733 1.8371 5.65561C1.92095 4.91283 2.07906 4.44916 2.34689 4.0706L1.73464 3.63742ZM1 8.7778H0.25V11.2222H1H1.75V8.7778H1ZM1 11.2222H0.25C0.25 12.5725 0.248893 13.6474 0.346564 14.5126C0.446374 15.3968 0.655585 16.136 1.12237 16.7958L1.73464 16.3626L2.34691 15.9294C2.07905 15.5508 1.92095 15.0872 1.8371 14.3444C1.75111 13.5827 1.75 12.6066 1.75 11.2222H1ZM1.73464 16.3626L1.12239 16.7958C1.58919 17.4555 2.21659 17.8988 3.01711 18.2872C3.80047 18.6673 4.81448 19.024 6.08777 19.4734L6.3374 18.7662L6.58703 18.059C5.28159 17.5982 4.36154 17.2723 3.67187 16.9377C2.99934 16.6114 2.61473 16.308 2.34689 15.9294L1.73464 16.3626ZM6.3374 18.7662L6.08784 19.4735L6.75044 19.7073L7 19L7.24956 18.2927L6.58696 18.0589L6.3374 18.7662ZM17 10V9.25H7V10V10.75H17V10ZM17 10H17.75C17.75 9.74171 17.661 9.51926 17.5746 9.35783C17.485 9.19044 17.369 9.03484 17.2515 8.8968C17.0168 8.62133 16.7151 8.34575 16.4245 8.09955C16.1307 7.85057 15.8216 7.60953 15.5672 7.40971C15.2958 7.19652 15.114 7.05089 15.0227 6.96219L14.5 7.5L13.9773 8.03781C14.1388 8.19487 14.396 8.3971 14.6407 8.58933C14.9025 8.79494 15.1868 9.01689 15.4548 9.24395C15.726 9.47378 15.9544 9.68728 16.1095 9.8694C16.1868 9.96015 16.2306 10.0255 16.2521 10.0656C16.2767 10.1116 16.25 10.0832 16.25 10H17ZM17 10H16.25C16.25 9.91676 16.2767 9.88836 16.2521 9.93442C16.2306 9.97452 16.1868 10.0399 16.1095 10.1306C15.9544 10.3127 15.726 10.5262 15.4548 10.7561C15.1868 10.9831 14.9025 11.2051 14.6407 11.4107C14.396 11.6029 14.1389 11.8051 13.9773 11.9622L14.5 12.5L15.0227 13.0378C15.114 12.9491 15.2958 12.8035 15.5672 12.5903C15.8216 12.3905 16.1307 12.1494 16.4245 11.9005C16.7151 11.6543 17.0168 11.3787 17.2515 11.1032C17.369 10.9652 17.485 10.8096 17.5746 10.6422C17.661 10.4807 17.75 10.2583 17.75 10H17Z" fill="#35758C"/>
</svg>
