<svg width="11" height="10" viewBox="0 0 11 10" fill="none" xmlns="http://www.w3.org/2000/svg">
<path d="M3.25 3.35297L4.5739 4.17151C5.34573 4.64873 5.65425 4.64873 6.42609 4.17151L7.74999 3.35297M1.00709 5.69441C1.03652 7.13699 1.05122 7.85831 1.56023 8.39261C2.06924 8.92697 2.77765 8.94555 4.19447 8.98278C5.06768 9.00574 5.93231 9.00574 6.80553 8.98278C8.22236 8.94555 8.93074 8.92697 9.43974 8.39261C9.94878 7.85831 9.96349 7.13699 9.99288 5.69441C10.0024 5.23055 10.0024 4.76942 9.99288 4.30561C9.96349 2.86299 9.94878 2.14169 9.43974 1.60737C8.93074 1.07305 8.22236 1.05444 6.80553 1.01721C5.93231 0.994264 5.06768 0.994264 4.19447 1.01721C2.77765 1.05443 2.06924 1.07304 1.56023 1.60736C1.05122 2.14168 1.03651 2.86299 1.00709 4.30556C0.997635 4.76942 0.997635 5.23055 1.00709 5.69441Z" stroke="black" stroke-linecap="round" stroke-linejoin="round"/>
</svg>
