<svg width="5" height="20" viewBox="0 0 5 20" fill="none" xmlns="http://www.w3.org/2000/svg">
<path d="M4 2.5C4 1.67157 3.3284 1 2.5 1C1.6716 1 1 1.67157 1 2.5C1 3.32843 1.6716 4 2.5 4C3.3284 4 4 3.32843 4 2.5Z" stroke="#ADADAD" stroke-width="1.5"/>
<path d="M4 10C4 9.1716 3.3284 8.5 2.5 8.5C1.6716 8.5 1 9.1716 1 10C1 10.8284 1.6716 11.5 2.5 11.5C3.3284 11.5 4 10.8284 4 10Z" stroke="#ADADAD" stroke-width="1.5"/>
<path d="M4 17.5C4 16.6716 3.3284 16 2.5 16C1.6716 16 1 16.6716 1 17.5C1 18.3284 1.6716 19 2.5 19C3.3284 19 4 18.3284 4 17.5Z" stroke="#ADADAD" stroke-width="1.5"/>
</svg>
