<svg width="315" height="343" viewBox="0 0 315 343" fill="none" xmlns="http://www.w3.org/2000/svg">
<path d="M38.3229 234.224L28.8133 234.427L23.9896 234.506C22.3818 234.543 20.7594 234.506 19.1443 234.55H18.8184V234.224L18.7822 226.119V225.757H19.1443L28.7336 225.801C31.9276 225.801 35.1216 225.888 38.3229 225.924H38.5184V226.119C38.5184 227.496 38.4532 228.864 38.4243 230.212L38.3229 234.224ZM38.3229 234.224L38.2215 230.132C38.2215 228.777 38.1346 227.445 38.1201 226.119L38.3229 226.315C35.1216 226.315 31.9276 226.431 28.7336 226.438L19.1443 226.482L19.5064 226.119L19.463 234.224L19.1443 233.898C20.7232 233.898 22.2949 233.898 23.881 233.942L28.6467 234.021L38.3229 234.224Z" fill="#EBEBEB"/>
<path d="M27.6255 244.443L18.1159 244.646L13.2922 244.726C11.6771 244.762 10.062 244.726 8.44689 244.769H8.12097V244.443V236.339V235.977H8.47586L18.0652 236.02C21.2592 236.02 24.4532 236.107 27.6544 236.143H27.85V236.339C27.85 237.715 27.7848 239.084 27.7558 240.431L27.6255 244.443ZM27.6255 244.443L27.5168 240.351C27.5168 238.997 27.4372 237.664 27.4227 236.339L27.6255 236.534C24.4242 236.57 21.2302 236.65 18.0362 236.657L8.47586 236.701L8.83076 236.339L8.76557 244.443L8.44689 244.117C10.0258 244.117 11.5975 244.117 13.1836 244.161L17.9493 244.24L27.6255 244.443Z" fill="#EBEBEB"/>
<path d="M49.0203 236.339H29.8417V244.443H49.0203V236.339Z" fill="#EBEBEB"/>
<path d="M267.104 119.87L257.602 120.072L252.778 120.159C251.163 120.159 249.541 120.159 247.926 120.159H247.607V119.87L247.563 111.772V111.403H247.926L257.515 111.446C260.716 111.446 263.91 111.526 267.104 111.562H267.307V111.758C267.307 113.127 267.242 114.495 267.206 115.85L267.104 119.87ZM267.104 119.87L267.003 115.777C267.003 114.43 266.923 113.098 266.909 111.772L267.104 111.968C263.91 111.968 260.716 112.084 257.515 112.084L247.926 112.127L248.288 111.772L248.252 119.87L247.926 119.551C249.505 119.551 251.083 119.551 252.67 119.551L257.435 119.638L267.104 119.87Z" fill="#EBEBEB"/>
<path d="M256.407 130.111L246.904 130.313L242.074 130.4C240.466 130.4 238.843 130.4 237.228 130.437H236.91V130.111L236.866 122.042V121.68H237.228L246.818 121.724C250.012 121.724 253.213 121.803 256.407 121.84H256.61V122.042C256.61 123.418 256.552 124.787 256.515 126.142L256.407 130.111ZM256.407 130.111L256.305 126.019C256.269 124.671 256.226 123.339 256.211 122.006L256.407 122.209C253.213 122.245 250.012 122.325 246.818 122.325L237.228 122.368L237.59 122.006V130.111L237.264 129.792C238.843 129.792 240.422 129.792 242.008 129.828L246.767 129.915L256.407 130.111Z" fill="#EBEBEB"/>
<path d="M277.802 122.006H258.623V130.11H277.802V122.006Z" fill="#EBEBEB"/>
<path d="M296.205 236.339H277.027V244.443H296.205V236.339Z" fill="#EBEBEB"/>
<path d="M296.205 32.6533H277.027V40.7579H296.205V32.6533Z" fill="#EBEBEB"/>
<path d="M306.874 50.9772L297.371 51.1727L292.548 51.2596C290.933 51.2596 289.317 51.2596 287.695 51.2596H287.376V50.941L287.333 42.8364V42.467H287.695L297.284 42.5105C300.486 42.5105 303.68 42.5902 306.874 42.6264H307.077V42.8219C307.077 44.1908 307.011 45.5597 306.982 46.914L306.874 50.9772ZM306.874 50.9772L306.772 46.8778C306.772 45.5307 306.693 44.198 306.678 42.8726L306.874 43.0972C303.68 43.0972 300.486 43.213 297.284 43.213L287.695 43.2565L288.057 42.9016L288.043 50.9772L287.717 50.6513C289.303 50.6513 290.875 50.6513 292.461 50.6513L297.226 50.7382L306.874 50.9772Z" fill="#EBEBEB"/>
<path d="M27.6255 40.765L18.1159 40.9678L13.2922 41.0475C11.6771 41.0475 10.062 41.0475 8.44689 41.0475H8.12097V40.7216V32.617V32.2549H8.47586L18.0652 32.2983C21.2592 32.2983 24.4532 32.378 27.6544 32.4142H27.85V32.6098C27.85 33.9859 27.7848 35.3475 27.7558 36.7019L27.6255 40.765ZM27.6255 40.765L27.5168 36.6657C27.5168 35.3185 27.4372 33.9859 27.4227 32.6605L27.6255 32.856C24.4242 32.856 21.2302 32.9719 18.0362 32.9719L8.47586 33.0226L8.83076 32.6605L8.76557 40.765L8.47586 40.4391C10.0548 40.4391 11.6264 40.4391 13.2126 40.4826L17.9782 40.5622L27.6255 40.765Z" fill="#EBEBEB"/>
<path d="M35.6286 185.155H54.8072V177.05H35.6286V185.155Z" fill="#EBEBEB"/>
<path d="M46.3333 166.824L55.8357 166.621L60.6593 166.541C62.2744 166.541 63.8968 166.541 65.5119 166.505H65.8306V166.831L65.874 174.935V175.305H65.5119L55.9226 175.261C52.7213 175.261 49.5273 175.182 46.3333 175.145H46.1378V174.914C46.1378 173.538 46.2029 172.176 46.2392 170.822L46.3333 166.824ZM46.3333 166.824L46.4347 170.923C46.4347 172.27 46.5144 173.603 46.5289 174.928L46.3333 174.733C49.5273 174.696 52.7213 174.617 55.9226 174.617L65.5119 174.566L65.1498 174.928V166.824L65.4757 167.149C63.8968 167.149 62.3179 167.149 60.7317 167.106L55.9661 167.026L46.3333 166.824Z" fill="#EBEBEB"/>
<path d="M311.973 298.763H188.478L185.914 248.086H314.544L311.973 298.763Z" fill="#EBEBEB"/>
<path d="M193.207 253.692H246.933L245.963 271.285H194.337L193.207 253.692ZM246.274 254.315H193.888L194.938 270.662H245.391L246.274 254.315Z" fill="#DBDBDB"/>
<path d="M194.294 275.645H244.732L243.942 291.52H195.286L194.294 275.645ZM244.073 276.267H194.96L195.873 290.898H243.348L244.073 276.267Z" fill="#DBDBDB"/>
<path d="M214.631 260.153H224.401L223.851 264.397H215.16L214.631 260.153ZM223.692 260.776H215.341L215.725 263.774H223.308L223.692 260.776Z" fill="#DBDBDB"/>
<path d="M214.631 281.46H224.401L223.851 285.705H215.16L214.631 281.46ZM223.692 282.083H215.341L215.725 285.082H223.308L223.692 282.083Z" fill="#DBDBDB"/>
<path d="M253.93 253.692H307.663L306.693 271.285H255.06L253.93 253.692ZM307.004 254.315H254.596L255.646 270.662H306.099L307.004 254.315Z" fill="#DBDBDB"/>
<path d="M255.023 275.645H305.461L304.701 291.52H256.016L255.023 275.645ZM304.802 276.267H255.69L256.602 290.898H304.078L304.802 276.267Z" fill="#DBDBDB"/>
<path d="M275.361 260.153H285.146L284.595 264.397H275.904L275.361 260.153ZM284.421 260.776H276.071L276.455 263.774H284.03L284.421 260.776Z" fill="#DBDBDB"/>
<path d="M275.361 281.46H285.146L284.595 285.705H275.904L275.361 281.46ZM284.421 282.105H276.071L276.455 285.104H284.03L284.421 282.105Z" fill="#DBDBDB"/>
<path d="M300.898 298.763L301.673 304.282L303.238 315.371H306.287V298.763H300.898Z" fill="#EBEBEB"/>
<path d="M300.898 298.763L301.673 304.282H306.287V298.763H300.898Z" fill="#DBDBDB"/>
<path d="M199.552 298.763L198.777 304.282L197.22 315.371H194.171V298.763H199.552Z" fill="#EBEBEB"/>
<path d="M199.552 298.763L198.777 304.282H194.171V298.763H199.552Z" fill="#DBDBDB"/>
<path d="M278.164 248.065V210.707H268.756V248.065H278.164Z" fill="#C7C7C7"/>
<path d="M278.157 212.807V208.701H268.748V212.807H278.157Z" fill="#DBDBDB"/>
<path d="M278.157 219.594V218.073H268.748V219.594H278.157Z" fill="#DBDBDB"/>
<path d="M278.164 243.161V239.055H268.756V243.161H278.164Z" fill="#DBDBDB"/>
<path d="M268.756 248.064V204.485H262.179V248.064H268.756Z" fill="#DBDBDB"/>
<path d="M267.466 225.337V208.578H263.519V225.337H267.466Z" fill="#EBEBEB"/>
<path d="M219.963 248.037L250.955 217.4L246.332 212.723L215.34 243.36L219.963 248.037Z" fill="#C7C7C7"/>
<path d="M226.298 239.9L238.217 228.118L235.442 225.311L223.523 237.093L226.298 239.9Z" fill="#DBDBDB"/>
<path d="M262.179 248.072V214.966H251.011V248.072H262.179Z" fill="#A6A6A6"/>
<path d="M262.179 244.559V241.474H251.011V244.559H262.179Z" fill="#C7C7C7"/>
<path d="M262.179 239.453V238.258H251.011V239.453H262.179Z" fill="#C7C7C7"/>
<path d="M297.433 245.037L285.164 216.452L278.075 219.495L290.345 248.08L297.433 245.037Z" fill="#A6A6A6"/>
<path d="M294.481 241.289L293.351 238.624L286.255 241.632L287.384 244.297L294.481 241.289Z" fill="#C7C7C7"/>
<path d="M287.235 224.365L286.105 221.699L279.008 224.707L280.138 227.373L287.235 224.365Z" fill="#C7C7C7"/>
<path d="M290.076 227.866L289.633 226.834L282.545 229.876L282.988 230.908L290.076 227.866Z" fill="#C7C7C7"/>
<path d="M288.347 0.365479H287.623V55.5836H288.347V0.365479Z" fill="#C7C7C7"/>
<path d="M261.426 81.1865L263.555 85.8798H312.407L314.536 81.1865L293.743 66.7881H282.22L261.426 81.1865Z" fill="#EBEBEB"/>
<path d="M280.778 52.9182L282.22 66.7879H293.743L295.184 52.9182H280.778Z" fill="#DBDBDB"/>
<path d="M261.426 81.1865L263.563 85.887H312.414L314.544 81.1865H261.426Z" fill="#DBDBDB"/>
<path d="M231.318 0.365479H230.594V40.4392H231.318V0.365479Z" fill="#C7C7C7"/>
<path d="M204.397 66.0347L206.534 70.7352H255.386L257.515 66.0347L236.714 51.6436H225.198L204.397 66.0347Z" fill="#EBEBEB"/>
<path d="M223.75 37.7739L225.198 51.6436H236.714L238.163 37.7739H223.75Z" fill="#DBDBDB"/>
<path d="M204.397 66.042L206.534 70.7352H255.386L257.515 66.042H204.397Z" fill="#DBDBDB"/>
<path d="M20.9187 70.8077L65.3018 63.0725L58.8631 32.5881L14.48 40.3161L20.9187 70.8077Z" fill="#C7C7C7"/>
<path d="M42.5164 32.1607L58.1968 29.4302L58.8631 32.588L42.2774 35.4778L42.5164 32.1607Z" fill="#C7C7C7"/>
<path d="M20.9622 70.8003L65.3452 63.0652L62.3902 34.5942L18.0144 42.3294L20.9622 70.8003Z" fill="#DBDBDB"/>
<path d="M46.4057 34.377L62.0861 31.6465L62.3903 34.5942L45.8118 37.4841L46.4057 34.377Z" fill="#DBDBDB"/>
<path d="M39.9597 101.285L94.9533 104.682L95.9528 66.5852L40.952 63.1812L39.9597 101.285Z" fill="#DBDBDB"/>
<path d="M76.6221 61.4355L96.0542 62.6378L95.9528 66.5851L75.4053 65.3104L76.6221 61.4355Z" fill="#DBDBDB"/>
<path d="M40.0177 101.285L95.0112 104.689L99.5813 69.9749L44.5878 66.5708L40.0177 101.285Z" fill="#EBEBEB"/>
<path d="M80.6273 65.1729L100.052 66.3751L99.5813 69.9747L79.0339 68.7L80.6273 65.1729Z" fill="#EBEBEB"/>
<path d="M261.035 169.083V154.077L276.454 161.58L261.035 169.083Z" fill="#EBEBEB"/>
<path d="M305.49 165.245V157.915L313.023 161.58L305.49 165.245Z" fill="#EBEBEB"/>
<path d="M299.472 165.245V157.915L306.997 161.58L299.472 165.245Z" fill="#EBEBEB"/>
<path d="M232.006 157.915V165.245L224.474 161.58L232.006 157.915Z" fill="#EBEBEB"/>
<path d="M238.025 157.915V165.245L230.493 161.58L238.025 157.915Z" fill="#EBEBEB"/>
<path d="M224.474 155.322H222.967V167.83H224.474V155.322Z" fill="#EBEBEB"/>
<path d="M314.544 155.322H313.037V167.83H314.544V155.322Z" fill="#EBEBEB"/>
<path d="M161.354 334.55C161.354 338.895 127.096 342.466 84.8498 342.466C42.6034 342.466 8.34555 338.924 8.34555 334.55C8.34555 330.175 42.5961 326.633 84.8498 326.633C127.104 326.633 161.354 330.182 161.354 334.55Z" fill="#EBEBEB"/>
<path d="M0.34964 315.371L39.6773 315.197L79.0122 315.132L157.675 315.009L236.337 315.132L275.672 315.197L315 315.371L275.672 315.552L236.337 315.61L157.675 315.733L79.0122 315.61L39.6773 315.545L0.34964 315.371Z" fill="#263238"/>
<path d="M283.082 265.903C283.37 258.61 283.271 251.306 282.785 244.023C281.707 229.003 279.414 214.094 275.926 199.445C274.014 191.195 271.66 183.084 269.212 174.986C269.132 174.74 268.741 174.805 268.813 175.059C276.397 203.624 282.618 233.094 282.191 262.782C282.075 271.089 281.112 279.252 280.322 287.508C280.322 287.726 280.662 287.82 280.713 287.588C282.249 280.526 282.792 273.124 283.082 265.903Z" fill="#35758C"/>
<path d="M268.814 175.059C268.814 175.059 257.319 204.225 259.898 211.084C262.476 217.942 267.763 219.398 267.763 219.398C267.763 219.398 260.731 229.437 265.648 238.852C270.566 248.267 281.474 247.818 282.198 258.494C282.205 258.494 282.814 213.865 268.814 175.059Z" fill="#35758C"/>
<path d="M280.959 240.098C280.977 240.048 280.977 239.995 280.959 239.946C279.45 220.035 275.712 200.357 269.813 181.28C269.813 181.222 269.704 181.236 269.719 181.28C271.998 189.812 274.009 198.39 275.752 207.013C274.21 205.551 272.324 204.5 270.269 203.957C270.233 203.957 270.211 204 270.269 204.015C272.391 204.934 274.434 205.999 275.933 207.803C276.266 209.49 276.599 211.178 276.911 212.872C274.34 209.975 270.784 208.578 267.22 207.23C267.169 207.23 267.14 207.288 267.22 207.303C270.928 208.817 274.629 210.765 277.143 213.959C278.017 218.787 278.784 223.645 279.446 228.531C277.591 226.585 275.211 225.221 272.594 224.606C272.578 224.6 272.56 224.601 272.544 224.608C272.529 224.616 272.517 224.629 272.511 224.645C272.505 224.662 272.506 224.68 272.514 224.695C272.521 224.711 272.534 224.723 272.551 224.729C275.252 225.503 277.668 227.049 279.504 229.176L279.547 229.212C279.769 230.921 279.984 232.635 280.192 234.354C278.754 233.141 277.133 232.163 275.39 231.457C275.346 231.457 275.317 231.515 275.39 231.53C277.166 232.304 278.793 233.382 280.199 234.716C280.199 234.716 280.235 234.716 280.257 234.716C280.452 236.353 280.641 237.983 280.807 239.62C278.217 236.494 274.857 234.098 271.059 232.667C270.986 232.667 270.95 232.754 271.023 232.783C274.772 234.435 278.067 236.97 280.626 240.17C280.653 240.206 280.69 240.234 280.733 240.248C280.776 240.262 280.822 240.263 280.865 240.25C281.112 242.756 281.336 245.269 281.517 247.789C281.517 247.826 281.582 247.826 281.575 247.789C281.343 245.218 281.162 242.64 280.959 240.098Z" fill="#263238"/>
<path d="M271.725 201.038C269.648 199.736 267.271 198.988 264.823 198.865C264.811 198.865 264.8 198.87 264.792 198.878C264.784 198.886 264.779 198.897 264.779 198.909C264.779 198.92 264.784 198.931 264.792 198.939C264.8 198.948 264.811 198.952 264.823 198.952C267.186 199.39 269.48 200.14 271.645 201.183C271.662 201.183 271.679 201.178 271.693 201.17C271.708 201.161 271.72 201.149 271.728 201.134C271.736 201.119 271.74 201.103 271.74 201.086C271.739 201.069 271.734 201.052 271.725 201.038Z" fill="#263238"/>
<path d="M273.123 231.914C271.522 231 269.762 230.398 267.937 230.139C267.872 230.139 267.872 230.226 267.937 230.241C269.722 230.598 271.448 231.202 273.065 232.037C273.13 232.073 273.188 231.957 273.123 231.914Z" fill="#263238"/>
<path d="M313.291 211.554C308.431 214.914 303.968 218.814 299.986 223.179C295.887 227.801 292.722 233.172 290.665 238.997C286.295 251.144 283.947 263.926 283.712 276.833C283.563 283.979 284.251 291.118 285.761 298.104C285.772 298.157 285.803 298.204 285.848 298.233C285.893 298.263 285.948 298.274 286 298.264C286.053 298.253 286.1 298.222 286.13 298.177C286.159 298.132 286.17 298.077 286.16 298.025C284.285 285.695 284.356 273.148 286.37 260.841C288.34 248.775 291.44 235.651 299.11 225.844C303.289 220.506 308.525 216.306 313.638 211.967C313.914 211.736 313.566 211.359 313.291 211.554Z" fill="#35758C"/>
<path d="M285.406 268.142C288.173 263.668 291.423 259.513 295.097 255.749C300.848 250.006 305.686 245.921 306.432 242.119C307.178 238.316 300.674 235.521 300.674 235.521C300.674 235.521 308.641 236.969 310.814 233.609C312.987 230.248 314.044 210.939 314.044 210.939C314.044 210.939 299.566 221.267 292.823 235.752C286.08 250.238 285.406 268.142 285.406 268.142Z" fill="#35758C"/>
<path d="M308.865 229.074C307.906 228.934 306.935 228.9 305.968 228.973C305.852 228.973 305.86 229.176 305.968 229.176C306.924 229.176 307.873 229.132 308.829 229.176C308.836 229.182 308.845 229.186 308.854 229.189C308.863 229.191 308.873 229.191 308.882 229.188C308.891 229.186 308.9 229.181 308.907 229.175C308.914 229.169 308.919 229.161 308.922 229.152C308.925 229.143 308.926 229.133 308.925 229.124C308.923 229.114 308.92 229.106 308.914 229.098C308.909 229.09 308.901 229.084 308.893 229.08C308.884 229.076 308.875 229.074 308.865 229.074Z" fill="#263238"/>
<path d="M298.45 247.826C296.922 247.862 295.412 248.166 293.989 248.724C293.989 248.724 293.989 248.796 293.989 248.789C295.438 248.434 296.951 248.296 298.443 248.065C298.475 248.066 298.506 248.054 298.529 248.032C298.552 248.011 298.565 247.98 298.566 247.949C298.567 247.917 298.556 247.886 298.534 247.863C298.512 247.84 298.482 247.827 298.45 247.826Z" fill="#263238"/>
<path d="M295.329 241.351C294.695 241.341 294.061 241.397 293.439 241.517C293.373 241.517 293.373 241.633 293.439 241.633C294.072 241.666 294.708 241.637 295.336 241.546C295.357 241.54 295.376 241.526 295.389 241.508C295.402 241.49 295.408 241.468 295.407 241.446C295.406 241.423 295.398 241.402 295.384 241.385C295.37 241.368 295.351 241.356 295.329 241.351Z" fill="#263238"/>
<path d="M242.986 232.073C247.694 233.671 252.206 235.797 256.436 238.41C260.822 241.203 264.627 244.819 267.64 249.057C273.978 257.878 278.829 267.676 282.002 278.064C283.776 283.812 284.87 289.748 285.262 295.75C285.264 295.772 285.262 295.794 285.256 295.815C285.25 295.837 285.239 295.856 285.226 295.873C285.212 295.891 285.195 295.905 285.176 295.915C285.156 295.926 285.135 295.933 285.113 295.935C285.091 295.937 285.069 295.935 285.048 295.929C285.027 295.923 285.007 295.913 284.99 295.899C284.973 295.885 284.959 295.868 284.948 295.849C284.938 295.83 284.931 295.808 284.929 295.787C283.595 285.373 280.635 275.233 276.158 265.737C271.812 256.43 266.235 246.522 257.761 240.387C253.148 237.034 247.962 234.839 242.791 232.515C242.523 232.362 242.711 231.979 242.986 232.073Z" fill="#35758C"/>
<path d="M278.627 271.422C275.353 268.442 271.761 265.831 267.915 263.637C261.94 260.312 257.051 258.125 255.603 255.228C254.154 252.331 258.732 248.55 258.732 248.55C258.732 248.55 252.626 251.549 250.098 249.347C247.571 247.145 242.24 231.747 242.24 231.747C242.24 231.747 256.342 236.759 265.149 246.957C273.956 257.154 278.627 271.422 278.627 271.422Z" fill="#35758C"/>
<path d="M277.903 268.25C270.849 255.011 261.44 243.038 248.549 235.137C251.908 237.301 255.06 239.772 257.964 242.517C255.339 242.38 252.724 242.934 250.381 244.125C250.376 244.128 250.371 244.132 250.367 244.136C250.364 244.141 250.361 244.146 250.359 244.152C250.357 244.158 250.357 244.164 250.358 244.17C250.358 244.175 250.36 244.181 250.363 244.186C250.366 244.192 250.369 244.196 250.374 244.2C250.379 244.204 250.384 244.207 250.39 244.208C250.396 244.21 250.402 244.21 250.407 244.21C250.413 244.209 250.419 244.207 250.424 244.205C252.915 243.274 255.56 242.826 258.217 242.886C258.248 242.895 258.281 242.895 258.312 242.886C258.768 243.321 259.217 243.756 259.666 244.205C258.304 244.267 256.949 244.446 255.617 244.741C255.581 244.741 255.617 244.806 255.617 244.798C257.028 244.532 258.463 244.413 259.898 244.444C262.254 246.834 264.474 249.356 266.547 251.998C265.599 251.865 264.634 251.934 263.715 252.2C263.704 252.205 263.694 252.212 263.687 252.222C263.68 252.231 263.677 252.243 263.677 252.255C263.677 252.267 263.68 252.278 263.687 252.288C263.694 252.298 263.704 252.305 263.715 252.309C264.717 252.193 265.729 252.179 266.735 252.266C267.126 252.758 267.51 253.243 267.894 253.714C265.024 253.553 262.147 253.846 259.369 254.583C259.326 254.583 259.369 254.656 259.369 254.648C262.261 254.082 265.214 253.89 268.154 254.076C268.517 254.554 268.879 255.047 269.212 255.525C267.503 255.487 265.797 255.685 264.142 256.111C264.084 256.111 264.099 256.227 264.142 256.213C265.873 255.837 267.646 255.698 269.415 255.8C270.936 257.893 272.384 260.03 273.76 262.188C273.014 262.056 272.247 262.103 271.522 262.326C271.486 262.326 271.522 262.391 271.522 262.384C272.33 262.324 273.143 262.363 273.941 262.5C275.197 264.431 276.404 266.403 277.563 268.417C277.715 268.547 277.99 268.424 277.903 268.25Z" fill="#263238"/>
<path d="M254.625 241.141C253.993 241.09 253.357 241.127 252.735 241.249C252.662 241.249 252.684 241.365 252.735 241.358C253.358 241.293 253.973 241.315 254.589 241.3C254.727 241.293 254.727 241.148 254.625 241.141Z" fill="#263238"/>
<path d="M296.814 315.19H264.989L269.523 281.953L270.682 273.429H291.114L292.273 281.953L296.814 315.19Z" fill="#455A64"/>
<path d="M292.273 281.953H269.523L270.682 273.429H291.114L292.273 281.953Z" fill="#263238"/>
<path d="M294.04 270.474H267.763V277.695H294.04V270.474Z" fill="#455A64"/>
<path d="M217.217 45.6321H98.1184C96.5177 45.6463 94.9356 45.9763 93.4628 46.6033C91.99 47.2303 90.6555 48.1419 89.5358 49.2858C88.4161 50.4297 87.5333 51.7835 86.938 53.2693C86.3426 54.7552 86.0465 56.344 86.0666 57.9446V303.109C86.0396 306.333 87.2937 309.437 89.5535 311.737C91.8132 314.038 94.8938 315.347 98.1184 315.378H217.217C220.443 315.349 223.526 314.041 225.789 311.74C228.051 309.44 229.308 306.335 229.283 303.109V57.9084C229.297 56.3099 228.997 54.7242 228.398 53.242C227.799 51.7598 226.914 50.4101 225.794 49.27C224.673 48.13 223.339 47.2219 221.867 46.5977C220.396 45.9734 218.815 45.6453 217.217 45.6321ZM221.751 295.504C221.751 301.957 216.92 307.179 210.959 307.179H104.398C98.4226 307.179 93.5917 301.957 93.5917 295.504V67.2007C93.5917 54.0553 98.4226 53.4397 104.398 53.4397H125.742C126.98 53.4397 127.994 54.8882 127.994 56.5975V57.3217C127.994 61.4138 130.24 61.4283 132.992 61.4283H182.351C185.125 61.4283 187.348 61.4283 187.348 57.3217V56.5975C187.348 54.852 188.348 53.4397 189.608 53.4397H210.959C216.92 53.4397 221.751 55.1852 221.751 67.2007V295.504Z" fill="#37474F"/>
<path d="M164.403 56.3149H150.939C150.718 56.3149 150.506 56.2272 150.35 56.071C150.194 55.9148 150.106 55.7029 150.106 55.482C150.116 55.2675 150.207 55.0648 150.363 54.9163C150.518 54.7679 150.724 54.6851 150.939 54.6853H164.403C164.512 54.6844 164.62 54.705 164.721 54.7461C164.822 54.7872 164.914 54.8478 164.992 54.9246C165.069 55.0014 165.131 55.0927 165.173 55.1933C165.215 55.294 165.236 55.402 165.236 55.511C165.23 55.7274 165.14 55.933 164.984 56.0834C164.828 56.2338 164.62 56.3169 164.403 56.3149Z" fill="#263238"/>
<path d="M221.751 67.2006V295.518C221.751 301.972 216.92 307.194 210.959 307.194H104.405C98.4298 307.194 93.5917 301.972 93.5917 295.518V67.2006C93.5917 54.0552 98.4298 53.4396 104.405 53.4396H125.742C126.98 53.4396 127.994 54.8881 127.994 56.5974V57.3216C127.994 61.4137 130.24 61.4282 132.992 61.4282H182.351C185.132 61.4282 187.348 61.4282 187.348 57.3216V56.5974C187.348 54.8519 188.347 53.4396 189.608 53.4396H210.959C216.92 53.4106 221.751 55.1561 221.751 67.2006Z" fill="white"/>
<path d="M221.751 67.2006V95.744H93.5555V67.2006C93.5555 54.0552 98.3863 53.4396 104.362 53.4396H125.713C126.951 53.4396 127.965 54.8881 127.965 56.5974V57.3216C127.965 61.4137 130.203 61.4282 132.956 61.4282H182.314C185.088 61.4282 187.319 61.4282 187.319 57.3216V56.5974C187.319 54.8519 188.319 53.4396 189.579 53.4396H210.916C216.913 53.4106 221.751 55.1561 221.751 67.2006Z" fill="#35758C"/>
<path d="M106.563 83.1635L102.775 79.6146L106.563 76.0657L107.15 76.6958L104.036 79.6146L107.15 82.5334L106.563 83.1635Z" fill="white"/>
<path d="M211.828 77.4057C211.828 77.5489 211.786 77.6889 211.706 77.808C211.627 77.9271 211.513 78.02 211.381 78.0748C211.249 78.1296 211.103 78.144 210.963 78.116C210.822 78.0881 210.693 78.0191 210.592 77.9178C210.491 77.8165 210.422 77.6875 210.394 77.547C210.366 77.4065 210.38 77.2608 210.435 77.1285C210.49 76.9962 210.582 76.883 210.702 76.8035C210.821 76.7239 210.961 76.6814 211.104 76.6814C211.296 76.6814 211.48 76.7577 211.616 76.8935C211.752 77.0294 211.828 77.2136 211.828 77.4057Z" fill="white"/>
<path d="M211.828 80.0348C211.828 80.1781 211.786 80.3181 211.706 80.4372C211.627 80.5563 211.513 80.6491 211.381 80.704C211.249 80.7588 211.103 80.7731 210.963 80.7452C210.822 80.7172 210.693 80.6482 210.592 80.5469C210.491 80.4457 210.422 80.3166 210.394 80.1761C210.366 80.0356 210.38 79.89 210.435 79.7576C210.49 79.6253 210.582 79.5122 210.702 79.4326C210.821 79.353 210.961 79.3105 211.104 79.3105C211.296 79.3105 211.48 79.3869 211.616 79.5227C211.752 79.6585 211.828 79.8427 211.828 80.0348Z" fill="white"/>
<path d="M211.828 82.7001C211.828 82.8433 211.786 82.9834 211.706 83.1025C211.627 83.2216 211.513 83.3144 211.381 83.3692C211.249 83.4241 211.103 83.4384 210.963 83.4104C210.822 83.3825 210.693 83.3135 210.592 83.2122C210.491 83.1109 210.422 82.9819 210.394 82.8414C210.366 82.7009 210.38 82.5553 210.435 82.4229C210.49 82.2906 210.582 82.1775 210.702 82.0979C210.821 82.0183 210.961 81.9758 211.104 81.9758C211.296 81.9758 211.48 82.0521 211.616 82.188C211.752 82.3238 211.828 82.508 211.828 82.7001Z" fill="white"/>
<path d="M122.063 58.5386L121.853 58.7486L121.737 58.8645C121.476 58.6023 121.166 58.3943 120.825 58.2524C120.484 58.1104 120.118 58.0373 119.749 58.0373C119.379 58.0373 119.013 58.1104 118.672 58.2524C118.331 58.3943 118.021 58.6023 117.76 58.8645L117.652 58.7486C117.579 58.6834 117.514 58.611 117.449 58.5458L117.71 58.314C117.894 58.1629 118.096 58.0341 118.311 57.9302C118.565 57.8043 118.836 57.7141 119.115 57.6622C119.245 57.6622 119.376 57.6622 119.513 57.6042H119.861H120.136C120.384 57.6308 120.627 57.6892 120.86 57.7781C121.032 57.8389 121.197 57.9165 121.353 58.0098C121.523 58.105 121.683 58.2166 121.831 58.343L122.048 58.5386H122.063Z" fill="white"/>
<path d="M118.412 59.5091L118.086 59.1904C118.443 58.8241 118.912 58.5892 119.419 58.5241C119.78 58.4696 120.148 58.5009 120.494 58.6154C120.84 58.7299 121.154 58.9244 121.411 59.1832L121.085 59.5091C120.73 59.1566 120.249 58.9588 119.749 58.9588C119.248 58.9588 118.768 59.1566 118.412 59.5091Z" fill="white"/>
<path d="M120.737 59.835L120.411 60.1609C120.322 60.0711 120.216 59.9999 120.099 59.9514C119.982 59.903 119.857 59.8781 119.731 59.8785C119.603 59.878 119.476 59.9027 119.358 59.9512C119.24 59.9996 119.133 60.0709 119.042 60.1609L118.724 59.835C118.994 59.5739 119.355 59.428 119.731 59.428C120.106 59.428 120.467 59.5739 120.737 59.835Z" fill="white"/>
<path d="M120.013 60.4797C120.002 60.5495 119.966 60.6132 119.913 60.6592C119.859 60.7051 119.79 60.7304 119.72 60.7304C119.649 60.7304 119.58 60.7051 119.527 60.6592C119.473 60.6132 119.437 60.5495 119.426 60.4797C119.42 60.4373 119.422 60.394 119.434 60.3527C119.446 60.3114 119.466 60.2731 119.494 60.2405C119.522 60.2079 119.556 60.1817 119.595 60.1637C119.634 60.1458 119.677 60.1365 119.72 60.1365C119.763 60.1365 119.805 60.1458 119.844 60.1637C119.883 60.1817 119.917 60.2079 119.945 60.2405C119.973 60.2731 119.994 60.3114 120.005 60.3527C120.017 60.394 120.02 60.4373 120.013 60.4797Z" fill="white"/>
<path d="M101.95 59.1615C101.95 58.9922 102 58.8266 102.094 58.6859C102.189 58.5452 102.322 58.4357 102.479 58.3712C102.636 58.3068 102.808 58.2903 102.974 58.3238C103.14 58.3574 103.292 58.4395 103.411 58.5598C103.53 58.68 103.611 58.833 103.643 58.9992C103.676 59.1655 103.658 59.3376 103.592 59.4936C103.526 59.6496 103.415 59.7826 103.274 59.8756C103.132 59.9687 102.966 60.0176 102.797 60.0161C102.572 60.0142 102.356 59.9233 102.197 59.7633C102.039 59.6032 101.95 59.3869 101.95 59.1615Z" fill="white"/>
<path d="M104.622 59.1613C104.622 58.9922 104.672 58.827 104.766 58.6865C104.86 58.5459 104.994 58.4364 105.15 58.3717C105.306 58.307 105.478 58.2901 105.644 58.3231C105.809 58.356 105.962 58.4374 106.081 58.557C106.201 58.6765 106.282 58.8288 106.315 58.9945C106.348 59.1603 106.331 59.3322 106.266 59.4883C106.202 59.6445 106.092 59.778 105.952 59.8719C105.811 59.9658 105.646 60.0159 105.477 60.0159C105.25 60.0159 105.033 59.9259 104.873 59.7656C104.712 59.6053 104.622 59.3879 104.622 59.1613Z" fill="white"/>
<path d="M107.302 59.1614C107.304 58.9942 107.354 58.831 107.448 58.6926C107.542 58.5542 107.675 58.4468 107.83 58.3837C107.985 58.3207 108.155 58.305 108.319 58.3385C108.483 58.372 108.633 58.4532 108.751 58.572C108.869 58.6908 108.949 58.8418 108.981 59.006C109.013 59.1702 108.996 59.3402 108.932 59.4946C108.867 59.649 108.759 59.781 108.62 59.8737C108.48 59.9665 108.317 60.0161 108.149 60.0161C108.038 60.0161 107.927 59.9939 107.824 59.9509C107.72 59.9078 107.626 59.8448 107.548 59.7653C107.469 59.6859 107.407 59.5916 107.365 59.4879C107.322 59.3843 107.301 59.2733 107.302 59.1614Z" fill="white"/>
<path d="M109.975 59.1615C109.975 58.9922 110.025 58.8266 110.119 58.6859C110.213 58.5452 110.347 58.4357 110.504 58.3712C110.66 58.3068 110.833 58.2903 110.999 58.3238C111.165 58.3574 111.317 58.4395 111.436 58.5598C111.555 58.68 111.636 58.833 111.668 58.9992C111.7 59.1655 111.683 59.3376 111.617 59.4936C111.551 59.6496 111.44 59.7826 111.299 59.8756C111.157 59.9687 110.991 60.0176 110.822 60.0161C110.597 60.0142 110.381 59.9233 110.222 59.7633C110.064 59.6032 109.975 59.3869 109.975 59.1615Z" fill="white"/>
<path d="M112.647 59.1615C112.647 58.9922 112.697 58.8266 112.792 58.6859C112.886 58.5452 113.02 58.4357 113.176 58.3712C113.333 58.3068 113.505 58.2903 113.671 58.3238C113.837 58.3574 113.989 58.4395 114.109 58.5598C114.228 58.68 114.309 58.833 114.341 58.9992C114.373 59.1655 114.355 59.3376 114.289 59.4936C114.223 59.6496 114.113 59.7826 113.971 59.8756C113.83 59.9687 113.664 60.0176 113.495 60.0161C113.269 60.0142 113.054 59.9233 112.895 59.7633C112.736 59.6032 112.647 59.3869 112.647 59.1615Z" fill="white"/>
<path d="M212.14 61.0226H205.216V57.8069H212.14V61.0226ZM205.578 60.6605H211.778V58.169H205.578V60.6605Z" fill="white"/>
<path d="M210.249 58.3574H205.795V60.4723H210.249V58.3574Z" fill="white"/>
<path d="M212.755 58.5603H212.14V60.2768H212.755V58.5603Z" fill="white"/>
<path d="M113.067 293.237H112.089V297.706H110.272V295.432H107.049V297.706H105.231V293.237H104.253L108.656 288.682L113.067 293.237Z" fill="#EBEBEB"/>
<path d="M211.104 288.682H200.479V290.203H211.104V288.682Z" fill="#EBEBEB"/>
<path d="M211.104 292.433H200.479V293.954H211.104V292.433Z" fill="#EBEBEB"/>
<path d="M211.104 296.192H200.479V297.713H211.104V296.192Z" fill="#EBEBEB"/>
<path d="M160.695 292.593L157.675 295.815L154.655 292.593L155.183 292.093L157.675 294.744L160.166 292.093L160.695 292.593Z" fill="#EBEBEB"/>
<path d="M157.675 299.147C156.589 299.147 155.528 298.825 154.625 298.222C153.722 297.619 153.018 296.761 152.603 295.758C152.187 294.755 152.079 293.651 152.29 292.586C152.502 291.521 153.025 290.543 153.793 289.775C154.561 289.008 155.539 288.485 156.604 288.273C157.669 288.061 158.773 288.17 159.776 288.585C160.779 289.001 161.636 289.705 162.24 290.607C162.843 291.51 163.165 292.572 163.165 293.657C163.163 295.113 162.584 296.508 161.555 297.537C160.526 298.566 159.13 299.145 157.675 299.147ZM157.675 288.899C156.732 288.899 155.81 289.179 155.026 289.703C154.243 290.227 153.632 290.971 153.271 291.843C152.911 292.714 152.817 293.672 153.001 294.597C153.186 295.522 153.64 296.371 154.308 297.037C154.975 297.703 155.825 298.157 156.75 298.34C157.674 298.523 158.633 298.427 159.504 298.065C160.374 297.704 161.118 297.092 161.641 296.307C162.164 295.522 162.442 294.6 162.44 293.657C162.439 292.395 161.936 291.184 161.042 290.292C160.149 289.4 158.938 288.899 157.675 288.899Z" fill="#EBEBEB"/>
<path d="M208.83 221.013H207.019V220.289H208.106V219.203H208.83V221.013Z" fill="#35758C"/>
<path d="M204.202 221.013H201.377V220.289H204.202V221.013ZM198.56 221.013H195.742V220.289H198.56V221.013ZM192.918 221.013H190.1V220.289H192.918V221.013ZM187.283 221.013H184.473V220.289H187.297L187.283 221.013ZM181.641 221.013H178.823V220.289H181.641V221.013ZM175.999 221.013H173.181V220.289H175.999V221.013ZM170.364 221.013H167.539V220.289H170.364V221.013ZM164.722 221.013H161.905V220.289H164.722V221.013ZM159.08 221.013H156.262V220.289H159.08V221.013ZM153.445 221.013H150.62V220.289H153.445V221.013ZM147.803 221.013H144.986V220.289H147.803V221.013ZM142.161 221.013H139.344V220.289H142.161V221.013ZM136.526 221.013H133.702V220.289H136.526V221.013ZM130.884 221.013H128.067V220.289H130.877L130.884 221.013ZM125.242 221.013H122.425V220.289H125.242V221.013ZM119.607 221.013H116.783V220.289H119.607V221.013ZM113.965 221.013H111.148V220.289H113.965V221.013Z" fill="#35758C"/>
<path d="M108.331 221.013H106.52V219.203H107.244V220.289H108.331V221.013Z" fill="#35758C"/>
<path d="M107.244 216.32H106.52V213.423H107.244V216.32ZM107.244 210.526H106.52V207.629H107.244V210.526ZM107.244 204.768H106.52V201.871H107.244V204.768ZM107.244 198.974H106.52V196.077H107.244V198.974ZM107.244 193.18H106.52V190.283H107.244V193.18ZM107.244 187.422H106.52V184.525H107.244V187.422ZM107.244 181.628H106.52V178.73H107.244V181.628ZM107.244 175.833H106.52V172.936H107.244V175.833ZM107.244 170.039H106.52V167.142H107.244V170.039ZM107.244 164.281H106.52V161.384H107.244V164.281ZM107.244 158.487H106.52V155.59H107.244V158.487ZM107.244 152.693H106.52V149.796H107.244V152.693ZM107.244 146.935H106.52V144.038H107.244V146.935Z" fill="#35758C"/>
<path d="M107.244 141.402H106.52V139.591H108.331V140.316H107.244V141.402Z" fill="#35758C"/>
<path d="M204.202 140.316H201.377V139.591H204.202V140.316ZM198.56 140.316H195.742V139.591H198.56V140.316ZM192.918 140.316H190.1V139.591H192.918V140.316ZM187.283 140.316H184.473V139.591H187.297L187.283 140.316ZM181.641 140.316H178.823V139.591H181.641V140.316ZM175.999 140.316H173.181V139.591H175.999V140.316ZM170.364 140.316H167.539V139.591H170.364V140.316ZM164.722 140.316H161.905V139.591H164.722V140.316ZM159.08 140.316H156.262V139.591H159.08V140.316ZM153.445 140.316H150.62V139.591H153.445V140.316ZM147.803 140.316H144.986V139.591H147.803V140.316ZM142.161 140.316H139.344V139.591H142.161V140.316ZM136.526 140.316H133.702V139.591H136.526V140.316ZM130.884 140.316H128.067V139.591H130.877L130.884 140.316ZM125.242 140.316H122.425V139.591H125.242V140.316ZM119.607 140.316H116.783V139.591H119.607V140.316ZM113.965 140.316H111.148V139.591H113.965V140.316Z" fill="#35758C"/>
<path d="M208.83 141.402H208.106V140.316H207.019V139.591H208.83V141.402Z" fill="#35758C"/>
<path d="M208.83 216.32H208.106V213.423H208.83V216.32ZM208.83 210.526H208.106V207.629H208.83V210.526ZM208.83 204.768H208.106V201.871H208.83V204.768ZM208.83 198.974H208.106V196.077H208.83V198.974ZM208.83 193.18H208.106V190.283H208.83V193.18ZM208.83 187.422H208.106V184.525H208.83V187.422ZM208.83 181.628H208.106V178.73H208.83V181.628ZM208.83 175.833H208.106V172.936H208.83V175.833ZM208.83 170.039H208.106V167.142H208.83V170.039ZM208.83 164.281H208.106V161.384H208.83V164.281ZM208.83 158.487H208.106V155.59H208.83V158.487ZM208.83 152.693H208.106V149.796H208.83V152.693ZM208.83 146.935H208.106V144.038H208.83V146.935Z" fill="#35758C"/>
<path d="M119.846 190.616C119.847 193.076 120.777 195.444 122.451 197.247C124.125 199.05 126.418 200.153 128.871 200.336H184.045C187.003 200.356 189.854 199.231 192 197.197C194.147 195.162 195.423 192.376 195.562 189.422C195.7 186.467 194.69 183.574 192.743 181.348C190.797 179.121 188.064 177.734 185.117 177.478C184.972 173.003 183.276 168.718 180.318 165.356C177.361 161.995 173.326 159.767 168.906 159.054C164.486 158.341 159.956 159.187 156.091 161.448C152.226 163.708 149.268 167.242 147.723 171.445C146.135 170.645 144.381 170.231 142.603 170.235C139.688 170.233 136.883 171.344 134.759 173.34C132.635 175.336 131.353 178.067 131.174 180.976C130.652 180.889 130.124 180.845 129.595 180.846C128.313 180.846 127.044 181.099 125.859 181.59C124.675 182.081 123.6 182.801 122.694 183.709C121.788 184.616 121.071 185.693 120.582 186.879C120.094 188.064 119.844 189.334 119.846 190.616Z" fill="#35758C"/>
<path d="M162.651 187.653H152.692V200.364H162.651V187.653Z" fill="white"/>
<path d="M149.273 187.654H166.069L157.675 179.274L149.273 187.654Z" fill="white"/>
<path d="M140.171 82.1979H140.085L140.023 82.1366C140.028 82.104 140.028 82.071 140.023 82.0385L137.125 75.1615C137.061 75.0022 137.062 74.8237 137.128 74.6651C137.195 74.5066 137.322 74.3809 137.482 74.3157C137.559 74.2835 137.642 74.2668 137.726 74.2667C137.81 74.2665 137.893 74.2828 137.97 74.3147C138.048 74.3466 138.118 74.3934 138.178 74.4524C138.237 74.5115 138.284 74.5817 138.316 74.6589L140.625 80.1139L142.921 74.6589C142.988 74.4964 143.117 74.367 143.279 74.2991C143.441 74.2313 143.624 74.2307 143.787 74.2973C143.95 74.364 144.079 74.4925 144.147 74.6545C144.215 74.8166 144.216 74.999 144.149 75.1615L141.239 82.0385C141.243 82.071 141.243 82.104 141.239 82.1366C141.239 82.1366 141.239 82.1366 141.239 82.1979H141.165L141.067 82.2592H140.969H140.686H140.588L140.49 82.1856L140.171 82.1979Z" fill="white"/>
<path d="M145.979 74.0588C145.977 73.9662 145.998 73.8743 146.042 73.7884C146.086 73.7026 146.152 73.6246 146.235 73.5591C146.318 73.4937 146.417 73.4421 146.526 73.4075C146.635 73.3729 146.752 73.356 146.869 73.3578C147.105 73.3578 147.332 73.4317 147.499 73.5631C147.666 73.6946 147.759 73.8729 147.759 74.0588V81.5581C147.759 81.744 147.666 81.9223 147.499 82.0537C147.332 82.1852 147.105 82.259 146.869 82.259C146.752 82.2608 146.635 82.2439 146.526 82.2093C146.417 82.1748 146.318 82.1232 146.235 82.0577C146.152 81.9923 146.086 81.9143 146.042 81.8284C145.998 81.7426 145.977 81.6506 145.979 81.5581V74.0588Z" fill="white"/>
<path d="M149.54 81.5582V74.0588C149.538 73.9662 149.554 73.8743 149.588 73.7884C149.621 73.7026 149.671 73.6246 149.735 73.5591C149.798 73.4937 149.874 73.4421 149.957 73.4075C150.041 73.3729 150.13 73.356 150.22 73.3578H151.682C152.787 73.4199 153.826 73.9159 154.586 74.7437C155.347 75.5716 155.771 76.6683 155.771 77.8085C155.771 78.9486 155.347 80.0454 154.586 80.8733C153.826 81.7011 152.787 82.1971 151.682 82.2592H150.22C150.039 82.2592 149.866 82.1853 149.739 82.0538C149.611 81.9224 149.54 81.7441 149.54 81.5582ZM150.913 80.8439H151.682C152.43 80.7931 153.13 80.4511 153.642 79.8875C154.154 79.3238 154.439 78.5806 154.439 77.8085C154.439 77.0364 154.154 76.2932 153.642 75.7295C153.13 75.1658 152.43 74.8239 151.682 74.773H150.913V80.8439Z" fill="white"/>
<path d="M158.441 81.5693V74.0597C158.44 73.9671 158.456 73.875 158.489 73.789C158.522 73.703 158.572 73.6249 158.635 73.5594C158.698 73.4938 158.773 73.4422 158.855 73.4076C158.938 73.3729 159.026 73.356 159.115 73.3578H163.108C163.287 73.3578 163.458 73.4318 163.585 73.5634C163.711 73.695 163.782 73.8736 163.782 74.0597C163.782 74.2472 163.711 74.4271 163.585 74.5608C163.459 74.6946 163.288 74.7715 163.108 74.7749H159.789V77.106H162.65C162.829 77.106 163 77.1799 163.127 77.3116C163.253 77.4432 163.324 77.6217 163.324 77.8079C163.324 77.9941 163.253 78.1726 163.127 78.3043C163 78.4359 162.829 78.5099 162.65 78.5099H159.789V80.8409H163.108C163.272 80.8644 163.423 80.9491 163.532 81.0793C163.641 81.2096 163.702 81.3766 163.702 81.5495C163.702 81.7223 163.641 81.8893 163.532 82.0196C163.423 82.1499 163.272 82.2346 163.108 82.258H159.153C159.063 82.2634 158.972 82.2497 158.887 82.2176C158.801 82.1856 158.723 82.1359 158.657 82.0716C158.59 82.0073 158.537 81.9297 158.5 81.8433C158.463 81.757 158.443 81.6638 158.441 81.5693Z" fill="white"/>
<path d="M172.393 74.6554C173.151 75.5065 173.574 76.6352 173.574 77.8085C173.574 78.9819 173.151 80.1105 172.393 80.9616C172.033 81.3683 171.599 81.693 171.118 81.916C170.637 82.139 170.118 82.2557 169.593 82.2592C169.057 82.2588 168.527 82.1437 168.033 81.9209C167.54 81.698 167.093 81.3718 166.72 80.9616C165.976 80.1033 165.562 78.9774 165.562 77.8085C165.562 76.6397 165.976 75.5138 166.72 74.6554C167.09 74.2404 167.536 73.911 168.03 73.6877C168.524 73.4645 169.056 73.3522 169.593 73.3579C170.119 73.3551 170.639 73.4691 171.121 73.6925C171.604 73.9159 172.037 74.2438 172.393 74.6554ZM172.235 77.8085C172.237 77.0019 171.955 76.2238 171.444 75.6286C171.211 75.35 170.926 75.1264 170.607 74.9722C170.289 74.818 169.943 74.7366 169.593 74.7333C169.235 74.731 168.881 74.8096 168.554 74.9639C168.226 75.1182 167.933 75.3448 167.694 75.6286C167.179 76.2211 166.896 77.0009 166.903 77.8085C166.895 78.6124 167.179 79.3884 167.694 79.9755C167.929 80.2577 168.218 80.4837 168.541 80.6384C168.864 80.7931 169.215 80.8731 169.569 80.8731C169.923 80.8731 170.273 80.7931 170.597 80.6384C170.92 80.4837 171.208 80.2577 171.444 79.9755C171.954 79.3849 172.236 78.6112 172.235 77.8085Z" fill="white"/>
<path d="M147.216 234.528C146.997 234.528 146.78 234.485 146.577 234.401C146.375 234.317 146.191 234.193 146.036 234.038C145.881 233.882 145.759 233.698 145.675 233.495C145.592 233.292 145.55 233.075 145.551 232.855V230.798C145.55 230.756 145.557 230.714 145.573 230.675C145.589 230.636 145.612 230.601 145.642 230.571C145.672 230.541 145.707 230.517 145.746 230.502C145.785 230.486 145.827 230.479 145.869 230.48C145.954 230.48 146.035 230.513 146.095 230.573C146.154 230.633 146.188 230.714 146.188 230.798V232.855C146.188 233.128 146.296 233.39 146.489 233.582C146.682 233.775 146.944 233.884 147.216 233.884C147.489 233.884 147.751 233.775 147.944 233.582C148.137 233.39 148.245 233.128 148.245 232.855V230.798C148.245 230.756 148.253 230.714 148.27 230.675C148.286 230.635 148.31 230.6 148.341 230.57C148.371 230.541 148.407 230.517 148.447 230.502C148.486 230.486 148.528 230.479 148.571 230.48C148.613 230.479 148.655 230.486 148.694 230.502C148.733 230.517 148.769 230.541 148.798 230.571C148.828 230.601 148.852 230.636 148.867 230.675C148.883 230.714 148.89 230.756 148.889 230.798V232.855C148.889 233.299 148.713 233.724 148.399 234.038C148.086 234.352 147.66 234.528 147.216 234.528Z" fill="#C7C7C7"/>
<path d="M150.186 235.303V233.094V231.95C150.186 231.869 150.218 231.792 150.275 231.735C150.332 231.678 150.409 231.646 150.49 231.646C150.563 231.642 150.634 231.664 150.693 231.707C150.751 231.751 150.792 231.814 150.809 231.885C150.997 231.756 151.213 231.673 151.439 231.644C151.665 231.614 151.895 231.638 152.11 231.714C152.325 231.79 152.519 231.916 152.676 232.082C152.834 232.247 152.95 232.447 153.015 232.665C153.08 232.884 153.093 233.115 153.052 233.339C153.011 233.564 152.918 233.775 152.78 233.957C152.642 234.138 152.463 234.285 152.257 234.384C152.052 234.483 151.826 234.533 151.598 234.528C151.321 234.532 151.05 234.449 150.823 234.289V235.31C150.819 235.396 150.782 235.476 150.72 235.534C150.658 235.592 150.575 235.624 150.49 235.622C150.408 235.618 150.331 235.583 150.274 235.523C150.217 235.464 150.186 235.385 150.186 235.303ZM150.823 233.087C150.818 233.194 150.835 233.301 150.874 233.401C150.912 233.5 150.972 233.591 151.048 233.666C151.117 233.743 151.202 233.804 151.297 233.845C151.392 233.887 151.495 233.907 151.598 233.905C151.7 233.906 151.802 233.885 151.895 233.844C151.989 233.803 152.073 233.742 152.141 233.666C152.286 233.508 152.366 233.301 152.366 233.087C152.364 232.873 152.284 232.667 152.141 232.507C152.073 232.431 151.989 232.371 151.895 232.33C151.802 232.289 151.7 232.268 151.598 232.268C151.495 232.267 151.392 232.287 151.297 232.328C151.202 232.369 151.117 232.431 151.048 232.507C150.973 232.584 150.915 232.675 150.876 232.774C150.837 232.874 150.82 232.98 150.823 233.087Z" fill="#C7C7C7"/>
<path d="M154.249 230.479C154.334 230.479 154.415 230.513 154.474 230.573C154.534 230.633 154.568 230.714 154.568 230.798V234.209C154.568 234.294 154.534 234.375 154.474 234.435C154.415 234.495 154.334 234.528 154.249 234.528C154.165 234.528 154.083 234.495 154.024 234.435C153.964 234.375 153.93 234.294 153.93 234.209V230.798C153.93 230.714 153.964 230.633 154.024 230.573C154.083 230.513 154.165 230.479 154.249 230.479Z" fill="#C7C7C7"/>
<path d="M155.589 234.108C155.328 233.833 155.185 233.466 155.191 233.087C155.194 232.711 155.336 232.35 155.589 232.073C155.717 231.936 155.872 231.827 156.044 231.752C156.216 231.678 156.401 231.639 156.588 231.638C156.771 231.639 156.95 231.678 157.116 231.753C157.282 231.828 157.431 231.937 157.552 232.073C157.814 232.345 157.96 232.709 157.957 233.087C157.961 233.467 157.816 233.834 157.552 234.108C157.431 234.244 157.282 234.353 157.116 234.428C156.95 234.503 156.771 234.542 156.588 234.542C156.401 234.542 156.216 234.503 156.044 234.428C155.872 234.354 155.717 234.245 155.589 234.108ZM155.821 233.087C155.818 233.31 155.892 233.527 156.031 233.702C156.182 233.843 156.382 233.919 156.588 233.912C156.686 233.915 156.783 233.898 156.874 233.861C156.965 233.825 157.048 233.771 157.117 233.702C157.266 233.532 157.346 233.313 157.342 233.087C157.346 232.865 157.266 232.65 157.117 232.486C156.972 232.352 156.785 232.275 156.588 232.268C156.382 232.271 156.184 232.348 156.031 232.486C155.893 232.655 155.818 232.868 155.821 233.087Z" fill="#C7C7C7"/>
<path d="M161.383 233.087V234.224C161.381 234.298 161.352 234.369 161.302 234.424C161.251 234.478 161.182 234.512 161.108 234.519C161.034 234.526 160.96 234.506 160.9 234.462C160.84 234.419 160.798 234.354 160.782 234.282C160.555 234.44 160.284 234.526 160.007 234.528C159.824 234.528 159.643 234.49 159.475 234.418C159.307 234.346 159.155 234.24 159.029 234.108C158.768 233.833 158.625 233.466 158.631 233.087C158.627 232.71 158.77 232.346 159.029 232.073C159.248 231.832 159.547 231.68 159.871 231.646C160.194 231.613 160.519 231.7 160.782 231.892C160.794 231.821 160.83 231.757 160.884 231.711C160.939 231.665 161.008 231.639 161.079 231.638C161.119 231.638 161.16 231.646 161.197 231.662C161.234 231.678 161.268 231.701 161.297 231.73C161.325 231.759 161.347 231.793 161.362 231.831C161.377 231.869 161.384 231.909 161.383 231.95V233.087ZM160.775 233.087C160.779 232.867 160.698 232.655 160.55 232.493C160.482 232.417 160.398 232.356 160.304 232.315C160.211 232.274 160.109 232.253 160.007 232.254C159.906 232.254 159.806 232.275 159.714 232.317C159.621 232.358 159.539 232.418 159.471 232.493C159.331 232.659 159.254 232.869 159.254 233.087C159.254 233.304 159.331 233.515 159.471 233.681C159.54 233.753 159.623 233.81 159.715 233.849C159.808 233.888 159.907 233.907 160.007 233.905C160.108 233.905 160.208 233.885 160.301 233.847C160.394 233.808 160.479 233.752 160.55 233.681C160.698 233.519 160.779 233.306 160.775 233.087Z" fill="#C7C7C7"/>
<path d="M165.135 234.217C165.134 234.293 165.106 234.367 165.054 234.424C165.003 234.481 164.932 234.517 164.856 234.525C164.78 234.533 164.703 234.513 164.641 234.468C164.579 234.423 164.536 234.357 164.519 234.282C164.286 234.439 164.011 234.524 163.73 234.528C163.346 234.528 162.977 234.375 162.705 234.104C162.434 233.832 162.281 233.464 162.281 233.08C162.281 232.695 162.434 232.327 162.705 232.055C162.977 231.784 163.346 231.631 163.73 231.631C164.006 231.631 164.276 231.715 164.505 231.87V230.784C164.507 230.7 164.541 230.621 164.601 230.563C164.66 230.505 164.74 230.472 164.823 230.472C164.906 230.472 164.985 230.505 165.044 230.563C165.102 230.622 165.135 230.701 165.135 230.784V233.072V234.217ZM163.73 232.268C163.629 232.269 163.529 232.29 163.436 232.331C163.344 232.372 163.261 232.432 163.194 232.507C163.045 232.662 162.963 232.869 162.963 233.083C162.963 233.298 163.045 233.504 163.194 233.659C163.261 233.734 163.344 233.794 163.436 233.835C163.529 233.876 163.629 233.898 163.73 233.898C163.833 233.9 163.936 233.879 164.031 233.838C164.126 233.797 164.211 233.736 164.28 233.659C164.425 233.502 164.506 233.297 164.506 233.083C164.506 232.87 164.425 232.664 164.28 232.507C164.211 232.43 164.126 232.369 164.031 232.328C163.936 232.287 163.833 232.267 163.73 232.268Z" fill="#C7C7C7"/>
<path d="M166.699 233.702C166.814 233.704 166.923 233.75 167.004 233.831C167.085 233.913 167.132 234.022 167.134 234.137C167.134 234.193 167.122 234.25 167.101 234.302C167.079 234.354 167.046 234.402 167.006 234.441C166.966 234.481 166.918 234.513 166.865 234.534C166.812 234.555 166.756 234.565 166.699 234.564C166.643 234.565 166.587 234.555 166.535 234.533C166.482 234.512 166.435 234.481 166.395 234.441C166.355 234.401 166.324 234.354 166.302 234.301C166.281 234.249 166.271 234.193 166.272 234.137C166.272 234.023 166.317 233.913 166.397 233.832C166.476 233.751 166.585 233.704 166.699 233.702Z" fill="#C7C7C7"/>
<path d="M168.032 233.702C168.146 233.704 168.256 233.75 168.337 233.831C168.418 233.913 168.465 234.022 168.466 234.137C168.466 234.193 168.455 234.25 168.433 234.302C168.411 234.354 168.379 234.402 168.339 234.441C168.298 234.481 168.25 234.513 168.198 234.534C168.145 234.555 168.089 234.565 168.032 234.564C167.975 234.565 167.919 234.555 167.867 234.533C167.815 234.512 167.767 234.481 167.727 234.441C167.688 234.401 167.656 234.354 167.635 234.301C167.614 234.249 167.604 234.193 167.604 234.137C167.604 234.023 167.649 233.913 167.729 233.832C167.809 233.751 167.918 233.704 168.032 233.702Z" fill="#C7C7C7"/>
<path d="M169.357 233.702C169.472 233.704 169.581 233.75 169.662 233.831C169.744 233.913 169.79 234.022 169.792 234.137C169.778 234.241 169.727 234.338 169.648 234.407C169.568 234.477 169.466 234.515 169.361 234.515C169.255 234.515 169.153 234.477 169.074 234.407C168.995 234.338 168.944 234.241 168.93 234.137C168.932 234.023 168.977 233.915 169.057 233.834C169.136 233.753 169.244 233.706 169.357 233.702Z" fill="#C7C7C7"/>
<path d="M202.652 238.743H112.691V244.421H202.652V238.743Z" fill="#EBEBEB"/>
<path d="M142.885 239.75H113.784V243.429H142.885V239.75Z" fill="#35758C"/>
<path opacity="0.1" d="M119.644 239.75H116.623L113.784 243.422H116.804L119.644 239.75Z" fill="black"/>
<path opacity="0.1" d="M125.459 239.75H122.447L119.6 243.422H122.613L125.459 239.75Z" fill="black"/>
<path opacity="0.1" d="M131.283 239.75H128.262L125.423 243.422H128.436L131.283 239.75Z" fill="black"/>
<path opacity="0.1" d="M137.098 239.75H134.078L131.239 243.422H134.252L137.098 239.75Z" fill="black"/>
<path opacity="0.1" d="M142.914 239.75H139.901L137.055 243.422H140.068L142.914 239.75Z" fill="black"/>
<path opacity="0.1" d="M171.993 243.422V243.386L171.965 243.422H171.993Z" fill="black"/>
<path d="M241.118 110.621L239.387 112.337L238.409 113.351C236.224 111.159 233.628 109.419 230.769 108.232C227.911 107.045 224.846 106.434 221.751 106.434C218.655 106.434 215.591 107.045 212.732 108.232C209.874 109.419 207.277 111.159 205.093 113.351C204.788 113.033 204.477 112.699 204.158 112.381C203.593 111.801 203.028 111.236 202.456 110.664H202.406V110.621L202.529 110.519C203.253 109.868 203.977 109.201 204.701 108.578C206.26 107.312 207.962 106.233 209.771 105.363C211.889 104.304 214.144 103.546 216.471 103.11C217.579 102.907 218.702 102.799 219.817 102.661C220.201 102.618 222.671 102.61 222.75 102.61C223.511 102.668 224.271 102.705 225.032 102.784C227.132 103.016 229.197 103.502 231.181 104.233C232.618 104.763 234.009 105.412 235.338 106.174C236.742 106.98 238.07 107.91 239.307 108.955C239.923 109.491 240.524 110.049 241.132 110.599L241.118 110.621Z" fill="#35758C"/>
<path d="M210.546 118.754L207.809 116.038C210.803 112.997 214.72 111.033 218.948 110.454C225.408 109.578 230.956 111.541 235.664 115.995L232.919 118.725C231.452 117.257 229.71 116.092 227.792 115.297C225.875 114.502 223.819 114.093 221.743 114.093C219.668 114.093 217.612 114.502 215.695 115.297C213.777 116.092 212.035 117.257 210.568 118.725L210.546 118.754Z" fill="#35758C"/>
<path d="M230.188 121.478L227.472 124.215C226.722 123.46 225.831 122.861 224.848 122.452C223.865 122.043 222.811 121.832 221.747 121.832C220.683 121.832 219.629 122.043 218.646 122.452C217.664 122.861 216.772 123.46 216.022 124.215L213.306 121.499C214.408 120.381 215.721 119.492 217.169 118.884C218.618 118.277 220.172 117.963 221.743 117.961C223.313 117.959 224.868 118.269 226.318 118.872C227.768 119.476 229.084 120.362 230.188 121.478Z" fill="#35758C"/>
<path d="M224.199 126.663C224.199 127.149 224.055 127.624 223.785 128.027C223.515 128.431 223.132 128.746 222.683 128.932C222.234 129.117 221.741 129.166 221.264 129.071C220.788 128.977 220.351 128.743 220.007 128.399C219.664 128.056 219.43 127.619 219.335 127.142C219.241 126.666 219.289 126.172 219.475 125.724C219.661 125.275 219.976 124.892 220.379 124.622C220.783 124.352 221.258 124.208 221.743 124.208C222.395 124.208 223.019 124.467 223.48 124.927C223.94 125.388 224.199 126.012 224.199 126.663Z" fill="#35758C"/>
<path d="M74.9129 286.487C74.9129 286.487 72.7401 316.24 72.7401 316.254C72.7401 322.085 72.7908 327.191 73.0733 329.834C73.0705 329.846 73.0705 329.858 73.0733 329.87C73.0744 330.496 73.2181 331.112 73.4934 331.674L73.5296 331.71C75.2606 332.898 121.809 334.491 123.453 333.999C125.097 333.506 123.823 328.791 122.063 327.285C120.303 325.778 102.754 317.203 102.754 317.203L104.608 287.465L74.9129 286.487Z" fill="#774442"/>
<path d="M123.489 333.999C121.845 334.492 75.2967 332.898 73.5657 331.71L73.5295 331.674C73.2551 331.115 73.1114 330.501 73.1094 329.878C73.1061 329.864 73.1061 329.849 73.1094 329.835C72.827 327.191 72.7473 322.085 72.7763 316.262C72.7763 316.262 73.1457 311.098 73.5802 305.079L103.463 306.477L102.797 317.203C102.797 317.203 120.339 325.786 122.106 327.285C123.873 328.784 125.134 333.528 123.489 333.999Z" fill="#EBEBEB"/>
<path d="M123.692 334.079C122.026 334.564 74.7463 333.253 72.9936 332.051C72.3273 331.594 72.1752 315.74 73.1239 307.708L103.572 308.903C103.572 308.903 103.529 317.073 103.898 317.261C106.889 318.789 120.715 325.894 122.309 327.263C124.083 328.784 125.365 333.586 123.692 334.079Z" fill="#35758C"/>
<path d="M123.091 332.159C115.175 331.667 83.2202 330.421 75.3547 330.53C75.2967 330.53 75.2895 330.58 75.3547 330.58C83.1912 331.247 115.189 332.232 123.084 332.29C123.25 332.29 123.258 332.166 123.091 332.159Z" fill="#263238"/>
<path d="M119.332 325.438C118.453 325.382 117.572 325.509 116.744 325.811C115.916 326.112 115.16 326.582 114.523 327.191C113.369 328.28 112.679 329.771 112.596 331.355C112.596 331.399 112.683 331.406 112.691 331.355C113.023 329.802 113.849 328.397 115.047 327.353C116.244 326.308 117.748 325.68 119.332 325.561C119.348 325.561 119.364 325.555 119.376 325.543C119.387 325.532 119.394 325.516 119.394 325.5C119.394 325.483 119.387 325.468 119.376 325.456C119.364 325.445 119.348 325.438 119.332 325.438Z" fill="#263238"/>
<path d="M105.781 317.855C102.616 317.688 98.8933 318.666 96.8292 321.187C96.7495 321.281 96.8871 321.397 96.9812 321.353C99.8097 320.005 102.774 318.963 105.825 318.246C105.867 318.23 105.903 318.201 105.927 318.162C105.95 318.124 105.961 318.079 105.956 318.034C105.951 317.989 105.931 317.947 105.899 317.914C105.867 317.882 105.826 317.861 105.781 317.855Z" fill="#263238"/>
<path d="M108.193 318.898C105.028 318.731 101.305 319.716 99.241 322.229C99.1613 322.331 99.2989 322.439 99.3931 322.396C102.219 321.048 105.181 320.006 108.229 319.289C108.281 319.284 108.329 319.259 108.362 319.219C108.395 319.179 108.411 319.127 108.407 319.075C108.402 319.023 108.377 318.976 108.336 318.942C108.296 318.909 108.245 318.893 108.193 318.898Z" fill="#263238"/>
<path d="M110.597 319.948C107.425 319.782 103.71 320.759 101.646 323.28C101.566 323.374 101.704 323.49 101.798 323.446C104.623 322.097 107.586 321.055 110.634 320.339C110.686 320.335 110.733 320.309 110.767 320.269C110.8 320.229 110.816 320.178 110.811 320.126C110.806 320.074 110.781 320.026 110.741 319.993C110.701 319.959 110.649 319.943 110.597 319.948Z" fill="#263238"/>
<path d="M113.017 320.991C109.844 320.824 106.129 321.81 104.065 324.323C103.978 324.424 104.123 324.533 104.217 324.489C107.042 323.14 110.005 322.098 113.053 321.382C113.105 321.377 113.152 321.352 113.186 321.312C113.219 321.272 113.235 321.22 113.23 321.169C113.225 321.117 113.2 321.069 113.16 321.036C113.12 321.002 113.068 320.986 113.017 320.991Z" fill="#263238"/>
<path d="M78.0055 310.83C74.4493 310.707 74.2538 316.233 77.8172 316.356C81.3806 316.479 81.6268 310.953 78.0055 310.83Z" fill="#263238"/>
<path d="M109.526 309.526C107.976 308.135 105.904 309.352 104.861 310.699C104.38 311.327 103.951 311.993 103.579 312.691C102.712 314.306 102.108 316.05 101.79 317.855C101.763 317.991 101.746 318.129 101.74 318.268C101.729 318.284 101.724 318.303 101.724 318.322C101.724 318.342 101.729 318.36 101.74 318.377C101.714 318.484 101.695 318.593 101.682 318.703C101.681 318.716 101.684 318.729 101.69 318.742C101.695 318.754 101.704 318.765 101.714 318.773C101.725 318.782 101.737 318.787 101.75 318.79C101.764 318.793 101.777 318.793 101.79 318.789C101.805 318.866 101.841 318.937 101.895 318.994C101.949 319.05 102.019 319.09 102.095 319.108C102.133 319.125 102.175 319.133 102.218 319.133C102.26 319.133 102.302 319.125 102.341 319.108C102.978 318.703 103.652 318.297 104.318 317.899L104.673 317.681C106.332 316.769 107.83 315.589 109.105 314.19C110.148 312.908 110.996 310.837 109.526 309.526ZM105.39 316.146C104.869 316.493 104.347 316.827 103.826 317.16C103.304 317.493 102.833 317.804 102.377 318.152C102.321 318.186 102.267 318.225 102.218 318.268L102.044 318.384L102.109 318.21C102.109 318.21 102.109 318.21 102.109 318.174C102.602 316.943 103.058 315.682 103.645 314.48C103.746 314.241 103.869 314.002 103.992 313.756C104.354 313.031 104.766 312.332 105.223 311.663C105.948 310.641 109.171 308.099 109.352 311.561C109.446 313.444 106.715 315.219 105.39 316.146Z" fill="#263238"/>
<path d="M102.363 318.543C102.406 318.499 102.421 318.449 102.363 318.405C102.306 318.344 102.245 318.286 102.182 318.231L102.116 318.166L101.805 317.884C99.8109 316.145 97.433 314.904 94.8664 314.262C93.2151 313.871 90.8395 314.262 90.5208 316.29C90.2022 318.318 92.1722 319.311 93.78 319.615C95.4044 319.872 97.059 319.872 98.6833 319.615C99.8349 319.47 100.986 319.282 102.102 319.151C102.167 319.141 102.229 319.114 102.281 319.074C102.333 319.033 102.374 318.98 102.4 318.919C102.426 318.858 102.436 318.792 102.43 318.726C102.423 318.66 102.4 318.597 102.363 318.543ZM97.8649 318.746C96.2715 318.898 93.034 319.238 91.9042 317.703C89.869 314.893 93.9539 314.806 95.1634 315.161C95.9448 315.39 96.7095 315.673 97.4521 316.008C98.917 316.682 100.344 317.436 101.725 318.268L101.877 318.355C101.822 318.347 101.766 318.347 101.711 318.355C101.551 318.355 101.392 318.355 101.233 318.355C100.117 318.492 99.0092 318.637 97.8649 318.746Z" fill="#263238"/>
<path d="M72.7184 303.355L106.035 304.724C106.035 304.724 107.57 258.255 106.831 238.707C106.027 217.472 96.9089 154.294 96.9089 154.294H69.3868C69.3868 154.294 76.4194 217.718 76.5715 238.961C76.6729 258.654 72.7184 303.355 72.7184 303.355Z" fill="#37474F"/>
<path d="M91.4624 154.294L74.9346 211.511C72.9791 184.445 69.3505 154.294 69.3505 154.294H91.4624Z" fill="#263238"/>
<path d="M74.5725 157.408L76.3252 176.239L77.9403 195.106C78.976 207.694 79.961 220.282 80.707 232.891C80.8953 236.049 81.004 239.214 80.9605 242.379C80.9171 245.544 80.765 248.702 80.6056 251.853C80.2773 258.168 79.8717 264.472 79.3889 270.763C78.9108 277.057 77.1509 295.598 77.1509 295.598C77.1509 295.598 78.4256 277.021 78.8384 270.727C79.2512 264.433 79.6641 258.125 79.9538 251.824C80.1059 248.673 80.2218 245.522 80.2725 242.372C80.3232 239.221 80.1855 236.085 79.9972 232.956C79.3092 220.354 78.3097 207.766 77.3971 195.171L74.5725 157.408Z" fill="#263238"/>
<path d="M104.955 298.481C99.8856 298.133 101.334 298.162 96.2643 297.872C93.78 297.735 77.4333 296.822 75.1012 297.097C75.0505 297.097 75.0433 297.191 75.1012 297.199C77.4044 297.691 93.7511 298.321 96.2425 298.415C101.312 298.604 99.8639 298.495 104.934 298.626C104.943 298.627 104.953 298.626 104.962 298.624C104.972 298.622 104.98 298.618 104.988 298.612C104.996 298.606 105.002 298.599 105.007 298.591C105.012 298.583 105.016 298.573 105.017 298.564C105.018 298.554 105.018 298.545 105.016 298.535C105.013 298.526 105.009 298.517 105.004 298.51C104.998 298.502 104.991 298.495 104.982 298.49C104.974 298.485 104.965 298.482 104.955 298.481Z" fill="#263238"/>
<path d="M22.0414 269.619L6.83181 295.316C4.20997 300.516 2.00096 305.122 1.08114 307.628C1.08114 307.628 1.08114 307.628 1.08114 307.672C0.799996 308.229 0.653626 308.844 0.65382 309.468C0.649978 309.476 0.64798 309.484 0.64798 309.493C0.64798 309.502 0.649978 309.511 0.65382 309.518C1.66779 311.351 42.6613 333.521 44.3199 333.81C45.9784 334.1 46.9779 329.313 46.0726 327.183C45.1672 325.054 33.2748 309.547 33.2748 309.547L48.1874 283.756L22.0414 269.619Z" fill="#774442"/>
<path d="M44.356 333.796C42.6612 333.506 1.70397 311.344 0.682755 309.504C0.678462 309.488 0.678462 309.47 0.682755 309.454C0.682961 308.831 0.826702 308.216 1.10283 307.657C1.09969 307.643 1.09969 307.628 1.10283 307.614C2.02989 305.122 4.23166 300.516 6.8535 295.301L12.5535 285.647L38.685 300.212L33.311 309.519C33.311 309.519 45.1889 325.018 46.1015 327.147C47.0141 329.277 46.0436 334.093 44.356 333.796Z" fill="#EBEBEB"/>
<path d="M44.5082 333.956C42.7917 333.651 1.05217 311.409 0.0164724 309.548C-0.381874 308.824 6.53487 294.584 10.9746 287.82L37.7073 302.457C37.7073 302.457 34.028 309.743 34.2743 310.077C36.2733 312.778 45.4859 325.286 46.3044 327.234C47.2097 329.393 46.2174 334.253 44.5082 333.956Z" fill="#35758C"/>
<path d="M44.8123 331.971C37.9535 328.002 9.89545 312.647 2.80488 309.243C2.74694 309.243 2.72521 309.243 2.80488 309.287C9.52608 313.371 37.7073 328.501 44.8123 332.087C44.8993 332.159 44.9572 332.079 44.8123 331.971Z" fill="#263238"/>
<path d="M44.4502 324.279C43.6898 323.841 42.8472 323.564 41.9749 323.465C41.1026 323.367 40.2194 323.449 39.3803 323.707C37.8597 324.177 36.5785 325.215 35.8025 326.604C35.8025 326.648 35.8532 326.691 35.8821 326.648C36.8703 325.399 38.2371 324.505 39.7771 324.1C41.317 323.695 42.9467 323.801 44.4212 324.402C44.4376 324.406 44.4547 324.403 44.469 324.395C44.4833 324.386 44.4934 324.372 44.4973 324.355C44.5011 324.339 44.4983 324.322 44.4895 324.308C44.4807 324.293 44.4665 324.283 44.4502 324.279Z" fill="#263238"/>
<path d="M35.6938 311.452C32.9344 309.895 29.1755 309.113 26.1987 310.446C26.0828 310.496 26.1553 310.663 26.2639 310.663C29.3931 310.709 32.5084 311.09 35.5562 311.8C35.598 311.803 35.6396 311.793 35.6751 311.771C35.7106 311.749 35.7381 311.716 35.7535 311.677C35.7689 311.638 35.7714 311.595 35.7607 311.555C35.75 311.515 35.7265 311.479 35.6938 311.452Z" fill="#263238"/>
<path d="M37.3886 313.466C34.6292 311.902 30.8702 311.127 27.8863 312.459C27.7704 312.51 27.8863 312.669 27.9514 312.677C31.0836 312.726 34.2013 313.112 37.251 313.828C37.297 313.839 37.3453 313.832 37.3869 313.81C37.4286 313.788 37.4608 313.751 37.4775 313.707C37.4943 313.663 37.4945 313.614 37.4782 313.57C37.4619 313.526 37.43 313.489 37.3886 313.466Z" fill="#263238"/>
<path d="M39.0834 315.472C36.3167 313.915 32.565 313.133 29.5811 314.465C29.4652 314.523 29.5376 314.683 29.6463 314.683C32.776 314.739 35.8909 315.127 38.9386 315.841C38.9844 315.849 39.0315 315.841 39.0719 315.818C39.1124 315.795 39.1437 315.759 39.1606 315.715C39.1776 315.672 39.1792 315.624 39.1652 315.58C39.1511 315.536 39.1223 315.498 39.0834 315.472Z" fill="#263238"/>
<path d="M40.771 317.486C38.0115 315.929 34.2526 315.146 31.2686 316.479C31.1599 316.53 31.2686 316.696 31.341 316.696C34.471 316.749 37.5863 317.137 40.6334 317.855C40.6823 317.873 40.7366 317.871 40.7841 317.85C40.8316 317.828 40.8686 317.788 40.8868 317.739C40.9051 317.69 40.9031 317.636 40.8814 317.588C40.8597 317.541 40.8199 317.504 40.771 317.486Z" fill="#263238"/>
<path d="M13.9876 292.803C10.8588 291.108 8.19345 295.968 11.3513 297.662C14.5091 299.357 17.1237 294.497 13.9876 292.803Z" fill="#263238"/>
<path d="M42.7554 305.666C41.9877 303.725 39.5904 303.898 38.0622 304.637C37.3427 304.987 36.6524 305.394 35.998 305.854C34.4995 306.91 33.1812 308.202 32.0942 309.678C32.008 309.785 31.9305 309.899 31.8625 310.019C31.8461 310.029 31.8324 310.042 31.8223 310.059C31.8123 310.075 31.8062 310.094 31.8045 310.113C31.7485 310.189 31.6977 310.269 31.6524 310.352C31.645 310.363 31.6404 310.375 31.639 310.388C31.6376 310.401 31.6396 310.415 31.6446 310.427C31.6496 310.439 31.6576 310.45 31.6678 310.458C31.678 310.467 31.6902 310.472 31.7031 310.475C31.6839 310.551 31.6866 310.63 31.711 310.705C31.7353 310.779 31.7804 310.845 31.8407 310.895C31.8709 310.925 31.9074 310.947 31.9475 310.961C31.9877 310.975 32.0304 310.98 32.0725 310.975C32.7968 310.895 33.608 310.83 34.3829 310.772H34.7958C36.6948 310.693 38.5684 310.306 40.3436 309.627C41.7922 308.968 43.4942 307.491 42.7554 305.666ZM36.1212 309.714L34.2743 309.932C33.6804 309.997 33.0937 310.062 32.5143 310.163C32.4493 310.156 32.3838 310.156 32.3188 310.163H32.1087C32.158 310.124 32.2041 310.08 32.2463 310.033C33.2386 309.149 34.2019 308.222 35.2665 307.411C35.4621 307.237 35.6794 307.078 35.8966 306.919C36.5452 306.433 37.2251 305.99 37.9318 305.593C39.04 305.014 43.0524 304.145 41.669 307.346C40.9375 309.142 37.7073 309.512 36.1212 309.714Z" fill="#263238"/>
<path d="M32.3333 310.547C32.3912 310.547 32.4202 310.489 32.4057 310.431L32.3188 310.192V310.105C32.3226 310.093 32.3226 310.081 32.3188 310.069L32.1667 309.678C31.1596 307.227 29.586 305.051 27.5748 303.326C26.2711 302.24 23.9535 301.508 22.7729 303.203C21.5924 304.898 22.9105 306.643 24.2215 307.628C25.5642 308.578 27.0477 309.311 28.6178 309.801C29.7114 310.185 30.7906 310.525 31.8842 310.902C31.9373 310.91 31.9915 310.907 32.0434 310.893C32.0953 310.88 32.1438 310.855 32.1859 310.822C32.2281 310.789 32.2629 310.747 32.2882 310.7C32.3136 310.653 32.3289 310.6 32.3333 310.547ZM28.2122 308.722C26.7129 308.142 23.6638 307.013 23.3379 305.1C22.7729 301.682 26.4595 303.442 27.3938 304.282C27.9875 304.836 28.544 305.429 29.0596 306.057C30.0716 307.315 31.0145 308.628 31.8842 309.989C31.9138 310.043 31.9477 310.094 31.9856 310.141L31.8263 310.083C31.6823 310.013 31.5348 309.95 31.3845 309.895C30.3415 309.504 29.2768 309.135 28.2122 308.722Z" fill="#263238"/>
<path d="M94.0552 154.265C93.9321 154.83 92.0128 163.76 90.0138 171.43C88.5653 177.028 87.0733 181.953 86.2187 182.468C85.2482 183.04 80.5187 185.133 78.9398 185.792C78.9398 185.792 68.3076 238.844 62.7017 255.322C57.5232 270.531 42.893 299.502 42.893 299.502L12.6694 282.829C12.6694 282.829 29.2841 254.221 31.8335 246.826C35.788 235.375 50.6137 179.469 50.6137 179.469C50.6137 179.469 50.4978 161.964 56.4079 154.315L94.0552 154.265Z" fill="#37474F"/>
<path d="M44.1822 292.6C39.7424 290.115 41.0678 290.796 36.5846 288.334C34.4118 287.146 20.0134 279.338 17.7537 278.592C17.703 278.592 17.6595 278.65 17.703 278.679C19.5789 280.128 34.0859 287.667 36.2949 288.819C40.8144 291.166 39.5396 290.441 44.0808 292.737C44.099 292.751 44.1219 292.756 44.1443 292.753C44.1667 292.75 44.1868 292.737 44.2003 292.719C44.2137 292.701 44.2194 292.678 44.216 292.656C44.2126 292.633 44.2004 292.613 44.1822 292.6Z" fill="#263238"/>
<path d="M58.588 174.552C59.4426 174.334 60.3479 174.262 61.217 174.124C61.9413 174.016 62.6221 173.893 63.3102 173.741C64.6415 173.501 65.9031 172.969 67.0039 172.183C68.2062 171.249 68.8218 169.83 69.4012 168.461C69.7489 167.649 70.1255 166.846 70.4659 166.042C70.6397 165.658 70.8136 165.267 70.9946 164.883C71.2391 164.426 71.4591 163.957 71.6537 163.478C71.6537 163.413 71.7841 163.478 71.7551 163.478C71.6366 163.807 71.5375 164.143 71.4582 164.484C71.3423 164.876 71.2336 165.267 71.1105 165.658C70.8932 166.382 70.6832 167.048 70.4587 167.744C70.1086 169.005 69.6102 170.221 68.9739 171.365C67.692 173.407 65.3961 174.262 63.1001 174.523C62.4483 174.602 61.782 174.653 61.1229 174.689C60.2891 174.762 59.4507 174.762 58.6169 174.689C58.4938 174.762 58.4503 174.588 58.588 174.552Z" fill="#263238"/>
<path d="M88.7247 181.244C85.3511 182.467 82.0915 183.984 78.9833 185.778C78.8601 185.843 78.9398 186.038 79.0702 185.98C82.3584 184.568 85.7045 183.221 88.8985 181.635C88.9409 181.606 88.9719 181.564 88.986 181.515C89.0001 181.466 88.9965 181.413 88.9757 181.366C88.955 181.32 88.9184 181.282 88.8725 181.259C88.8266 181.237 88.7742 181.231 88.7247 181.244Z" fill="#263238"/>
<path d="M89.7096 158.763C89.7096 158.647 89.5069 158.625 89.5069 158.763C89.5069 162.659 89.2823 166.085 88.9564 169.728C88.8043 171.416 87.4427 180.759 84.5094 180.078C84.0241 179.962 83.7851 179.484 83.691 178.738C83.7071 177.772 83.8384 176.812 84.0821 175.877C84.408 173.922 84.6687 171.959 84.8064 169.982C85.1517 166.303 85.1129 162.599 84.6905 158.929C84.6905 158.904 84.6806 158.88 84.6629 158.863C84.6452 158.845 84.6213 158.835 84.5963 158.835C84.5714 158.835 84.5474 158.845 84.5297 158.863C84.5121 158.88 84.5022 158.904 84.5022 158.929C84.5972 164.031 84.3067 169.132 83.6331 174.19C83.2709 176.623 82.0469 180.281 84.5891 180.65C87.1313 181.019 88.8478 174.907 89.1664 173.226C89.9742 168.449 90.1568 163.587 89.7096 158.763Z" fill="#263238"/>
<path d="M84.5891 180.317C84.3252 180.946 84.105 181.592 83.93 182.251C83.7417 182.761 83.6484 183.301 83.6548 183.844C83.6548 183.946 83.8069 183.953 83.8576 183.888C84.1645 183.41 84.3943 182.887 84.5384 182.338C84.7629 181.737 85.0019 181.143 85.2047 180.541C85.2195 180.501 85.2261 180.458 85.2242 180.415C85.2224 180.372 85.2121 180.33 85.1939 180.291C85.1758 180.252 85.1501 180.217 85.1184 180.188C85.0867 180.159 85.0496 180.136 85.0092 180.121C84.9687 180.107 84.9258 180.1 84.8828 180.102C84.8398 180.104 84.7976 180.114 84.7586 180.132C84.7196 180.15 84.6846 180.176 84.6555 180.208C84.6264 180.239 84.6038 180.277 84.5891 180.317Z" fill="#263238"/>
<path d="M20.1946 278.643C24.6198 270.314 31.5728 257.313 33.7239 253.192C35.751 249.111 37.3973 244.851 38.6416 240.467C41.3794 231.573 43.9722 222.64 46.4202 213.669C48.8683 204.698 51.1666 195.678 53.3153 186.611C53.8585 184.351 54.4451 182.084 54.8797 179.795C55.2707 177.487 55.2707 175.129 54.8797 172.821C54.5458 170.662 54.5287 168.466 54.829 166.302C55.1763 164.152 55.6847 162.031 56.3499 159.958C56.6903 158.864 57.0742 157.785 57.4363 156.691C57.4798 156.575 57.6681 156.626 57.6319 156.749C56.292 161.138 54.9231 165.571 55.2056 170.213C55.3432 172.444 55.9299 174.638 55.9299 176.884C55.7819 179.114 55.4033 181.323 54.8 183.475C52.6852 192.586 50.4158 201.658 47.9919 210.692C45.568 219.726 42.9896 228.717 40.2567 237.664C38.9386 242.01 37.7073 246.442 35.8315 250.592C33.9556 254.742 26.8723 267.489 22.1139 275.587C21.5151 276.625 20.9092 277.653 20.2959 278.672C20.2597 278.774 20.1583 278.708 20.1946 278.643Z" fill="#263238"/>
<path d="M79.1281 107.767C88.616 112.974 104.782 122.593 111.343 123.353C116.413 123.947 140.234 108.144 147.419 101.958C149.592 100.068 137.243 86.488 134.73 88.2914C127.799 93.2889 109.04 105.051 108.2 105.203C105.1 105.746 92.6791 102.306 81.6341 100.206C69.3143 97.8373 74.529 105.247 79.1281 107.767Z" fill="#FFA8A7"/>
<path d="M96.3729 118.573L103.876 104.66C103.876 104.66 85.3134 98.8657 76.9408 99.59C68.5683 100.314 73.7468 104.761 77.991 107.68C82.2352 110.599 96.3729 118.573 96.3729 118.573Z" fill="#C7C7C7"/>
<path d="M96.3729 118.573L103.876 104.66C103.876 104.66 85.3134 98.8657 76.9408 99.59C68.5683 100.314 73.7468 104.761 77.991 107.68C82.2352 110.599 96.3729 118.573 96.3729 118.573Z" fill="#35758C"/>
<path d="M103.862 104.66L103.797 104.776C103.623 104.696 103.449 104.624 103.268 104.558C103.005 104.443 102.737 104.342 102.464 104.254L101.646 103.993C101.37 103.914 101.088 103.863 100.805 103.798L100.385 103.696L99.958 103.639C97.6819 103.291 95.3565 103.464 93.1571 104.146C90.9669 104.844 88.874 105.818 86.9285 107.043C85.3858 107.97 83.9083 108.984 82.4308 110.005L82.2062 110.157L82.0541 110.258L81.7717 110.085C81.8296 110.085 81.8803 110.012 81.9382 109.976L82.1628 109.824C83.6765 108.788 85.1975 107.745 86.7836 106.804C88.7528 105.57 90.8732 104.596 93.092 103.907C95.2617 103.264 97.5452 103.101 99.7842 103.429C101.703 103.957 103.094 104.37 103.63 104.537L103.862 104.66ZM98.9006 113.192C96.8582 113.851 94.8809 114.64 92.8964 115.459L91.7086 115.922L92.0563 116.118L93.0123 115.741C94.9968 114.944 96.9668 114.119 98.9875 113.452L99.1613 113.394L99.3424 113.054L98.9006 113.192ZM82.4308 110.005L82.1628 109.824C81.4553 109.332 80.6759 108.954 79.8524 108.701L79.3381 108.578L80.0624 109.034C80.7255 109.272 81.3577 109.588 81.9455 109.976L82.2135 110.157C82.4018 110.287 82.5901 110.425 82.7712 110.57C82.9522 110.715 83.1188 110.845 83.2854 110.997L84.2704 111.584C83.8457 111.154 83.3958 110.75 82.9233 110.374C82.7567 110.237 82.5973 110.113 82.4308 109.998V110.005Z" fill="white"/>
<path d="M93.6207 116.342C94.4898 114.307 95.6269 112.359 96.6771 110.411C97.7273 108.462 98.973 106.492 100.088 104.522C100.088 104.464 100.219 104.522 100.19 104.573C99.1758 106.557 98.2488 108.578 97.1551 110.519C96.1009 112.532 94.938 114.485 93.6714 116.371C93.6714 116.371 93.6062 116.371 93.6207 116.342Z" fill="#263238"/>
<path opacity="0.1" d="M100.226 111.417L96.3729 118.573C96.3729 118.573 82.2352 110.606 77.991 107.709C75.4054 105.927 72.4721 103.573 72.4721 101.85L100.226 111.417Z" fill="black"/>
<path d="M51.8667 159.748C51.9826 159.871 97.1334 159.074 97.5607 158.574C98.1546 157.85 91.8462 115.785 85.4727 104.559C82.4308 99.1846 74.0945 96.331 69.2346 104.646C57.6319 124.534 51.4684 159.306 51.8667 159.748Z" fill="#35758C"/>
<path d="M97.5172 157.046C97.3072 157.046 97.0899 157.046 96.8799 157.046H96.4453H96.0107C95.721 157.046 95.4313 157.046 95.1416 157.003L94.2797 156.894C93.9922 156.853 93.7069 156.798 93.4251 156.727C92.857 156.613 92.296 156.465 91.7448 156.286C91.2016 156.083 90.6584 155.902 90.1297 155.648C89.601 155.395 89.094 155.141 88.5725 154.881C88.051 154.62 87.573 154.308 87.124 153.983C86.6749 153.657 86.168 153.331 85.6755 152.998C85.183 152.664 84.7484 152.273 84.2993 151.94C83.8503 151.607 83.2636 151.085 82.7567 150.636C82.6927 150.585 82.6323 150.529 82.5756 150.47C81.4095 149.449 80.2869 148.369 79.1643 147.29C77.4985 145.697 75.8472 144.075 74.0365 142.655C73.1413 141.941 72.1838 141.308 71.1756 140.765C70.9728 140.656 70.7628 140.555 70.5528 140.468C70.4572 140.417 70.3579 140.373 70.2558 140.337C69.5188 140.022 68.741 139.813 67.9454 139.714C67.6629 139.714 67.3805 139.671 67.098 139.664H66.2361C65.949 139.649 65.6614 139.649 65.3743 139.664L64.5196 139.751L64.0923 139.801L63.6722 139.874L62.7959 140.149C62.2454 140.308 61.6805 140.424 61.1445 140.634C60.9055 140.714 60.6593 140.808 60.4203 140.902C60.3111 140.938 60.2046 140.982 60.1016 141.033C59.3773 141.33 58.6531 141.677 57.9867 142.032C57.0235 142.517 56.053 143.003 55.039 143.401L55.0824 143.22C56.0457 142.829 56.9728 142.351 57.9071 141.873C58.5517 141.54 59.1963 141.214 59.8626 140.931L60.1668 140.794C60.4637 140.663 60.7679 140.547 61.0721 140.446C61.6153 140.229 62.1802 140.106 62.7379 139.939L63.5926 139.772L64.0199 139.693L64.4544 139.642L65.3163 139.541C65.606 139.541 65.8957 139.541 66.1854 139.497H67.0546C67.3515 139.497 67.6412 139.497 67.9382 139.541C68.7945 139.644 69.6314 139.87 70.4224 140.214L70.7049 140.352C70.8932 140.431 71.0742 140.526 71.2553 140.62C72.277 141.179 73.2466 141.829 74.1524 142.561C75.9703 144.009 77.6071 145.646 79.2584 147.254C80.41 148.377 81.5616 149.492 82.7567 150.557L82.9377 150.723C83.4013 151.136 83.872 151.542 84.35 151.933C85.2333 152.674 86.1622 153.358 87.1312 153.983C87.6092 154.301 88.1162 154.576 88.5798 154.873C89.0433 155.17 89.601 155.409 90.1369 155.598C90.6729 155.786 91.2016 156.018 91.7448 156.213C92.2922 156.387 92.8482 156.532 93.4106 156.648C93.6931 156.691 93.9683 156.771 94.258 156.8L95.1126 156.901C95.3951 156.901 95.6848 156.901 95.9745 156.945H96.4018H96.8364C97.0464 156.945 97.2492 156.945 97.4593 156.909C97.4809 156.953 97.5003 156.999 97.5172 157.046ZM96.1483 147.022L96.0325 147.088C94.1752 148.133 92.2108 148.976 90.1732 149.601C88.1288 150.202 86.0102 150.514 83.8793 150.528C83.5099 150.528 83.155 150.528 82.7711 150.528H82.5684C80.8756 150.445 79.1971 150.176 77.5637 149.724C76.5348 149.442 75.5239 149.099 74.5362 148.695C73.5485 148.293 72.5816 147.841 71.6392 147.341C69.8937 146.443 68.2279 145.407 66.5693 144.372L66.3013 144.205L66.1275 144.096C64.3318 142.927 62.4644 141.873 60.5362 140.938H60.4637C60.3826 140.895 60.2978 140.859 60.2102 140.83C58.8881 140.231 57.4889 139.819 56.053 139.606C56.0253 139.689 56.0035 139.773 55.9878 139.859C56.4751 139.926 56.9586 140.018 57.4363 140.135C58.2748 140.317 59.0981 140.564 59.8988 140.873L60.1378 140.975L60.4275 141.098C62.3589 142.003 64.2312 143.028 66.0333 144.169L66.1637 144.248L66.4389 144.408C68.1337 145.436 69.8285 146.465 71.5957 147.363C72.5445 147.855 73.5223 148.312 74.4928 148.717C75.482 149.129 76.4955 149.479 77.5275 149.767C79.2269 150.253 80.9767 150.543 82.7422 150.629H82.945C83.2564 150.629 83.5606 150.629 83.872 150.629C86.022 150.632 88.162 150.337 90.2311 149.753C92.293 149.15 94.2804 148.317 96.1556 147.269L96.1483 147.022ZM93.4324 132.008C92.9398 131.784 92.4401 131.61 91.9331 131.429C91.3811 131.25 90.8203 131.101 90.2528 130.98C89.9631 130.929 89.6879 130.849 89.3982 130.82L88.5363 130.712C88.2466 130.676 87.9569 130.712 87.6672 130.661H87.2326C87.0878 130.661 86.9429 130.661 86.7981 130.661C84.4662 130.72 82.178 131.307 80.1058 132.378C78.0482 133.451 76.1394 134.787 74.4276 136.354C73.0442 137.571 71.7406 138.874 70.4514 140.164L70.2486 140.366L69.4446 141.17C68.4162 142.191 67.3805 143.22 66.2868 144.176C66.2399 144.208 66.1962 144.244 66.1565 144.285C65.5553 144.799 64.9397 145.291 64.2951 145.733C63.3693 146.402 62.3616 146.95 61.2966 147.363C60.2307 147.765 59.0965 147.954 57.9578 147.92C56.8151 147.906 55.6788 147.747 54.5754 147.45L54.1336 147.312C54.1336 147.392 54.0974 147.471 54.0829 147.551L54.503 147.689C55.6269 148 56.7847 148.173 57.9505 148.203H58.3923H58.8269H59.2687L59.7033 148.13L60.1378 148.058C60.2827 148.058 60.4203 147.986 60.5651 147.949L60.9852 147.834C61.1301 147.79 61.2604 147.732 61.398 147.681C62.4893 147.261 63.5215 146.701 64.4689 146.016C65.1497 145.533 65.8049 145.016 66.4317 144.466L66.5548 144.364L67.1415 143.77C67.9961 142.988 68.8218 142.177 69.6402 141.359L70.5238 140.468L70.7121 140.272C71.9796 138.997 73.247 137.723 74.5869 136.535C76.279 134.976 78.1598 133.635 80.1855 132.544C82.2226 131.472 84.4755 130.873 86.7763 130.792H87.2109H87.6382C87.9279 130.792 88.2104 130.792 88.5001 130.835L89.3547 130.936C89.6372 130.936 89.9197 131.038 90.2021 131.088C90.7644 131.202 91.3205 131.345 91.8679 131.516C92.4039 131.711 92.9326 131.885 93.4468 132.124L93.4324 132.008ZM86.617 106.898C85.0888 107.818 83.6258 108.817 82.1628 109.795L81.9382 109.947L80.9967 110.592C79.1317 111.936 77.1599 113.125 75.1012 114.148C74.7318 114.322 74.3769 114.474 73.9713 114.619L73.7395 114.706C73.125 114.926 72.4925 115.093 71.8492 115.205C70.7276 115.398 69.5792 115.374 68.4669 115.133C67.3461 114.913 66.2582 114.55 65.2294 114.054C65.0411 113.96 64.8528 113.858 64.6717 113.75C64.6717 113.822 64.6065 113.894 64.5776 113.967C64.7514 114.075 64.9325 114.177 65.1135 114.271C66.1589 114.789 67.2664 115.171 68.4089 115.408L68.8363 115.502L69.2781 115.56L69.7126 115.618H70.1544H70.589L71.0308 115.582H71.4726C71.6174 115.582 71.7551 115.531 71.8999 115.509C72.6406 115.384 73.368 115.19 74.0727 114.93L74.3117 114.836C74.6304 114.713 74.9491 114.582 75.2605 114.438C76.3116 113.948 77.3301 113.392 78.3097 112.772C79.2947 112.163 80.2579 111.519 81.2067 110.86L82.2424 110.135L82.467 109.983C83.8793 109.013 85.2916 108.035 86.7619 107.144L86.617 106.898ZM89.8472 116.589C89.4344 116.733 89.0143 116.864 88.5942 116.987L88.4132 117.038C87.8917 117.19 87.363 117.327 86.8343 117.436C84.7645 117.922 82.6102 117.922 80.5404 117.436C78.4502 117.041 76.4543 116.252 74.6594 115.111C74.527 115.031 74.3989 114.944 74.2755 114.85L73.9713 114.648C72.5184 113.484 70.9945 112.413 69.4084 111.439C68.463 110.912 67.4654 110.485 66.4317 110.164H66.3375V110.215L66.4607 110.251C66.9604 110.44 67.4602 110.621 67.9527 110.838C68.4479 111.054 68.9314 111.295 69.4012 111.562C70.9366 112.523 72.4076 113.582 73.8047 114.735L74.1017 114.945C74.2683 115.068 74.4348 115.176 74.6087 115.292C76.4181 116.466 78.4332 117.286 80.5476 117.711C82.6575 118.211 84.8548 118.211 86.9646 117.711C87.5368 117.588 88.109 117.451 88.6667 117.284L88.8477 117.233C89.2316 117.117 89.6155 116.994 89.9921 116.864C89.9052 116.784 89.8762 116.683 89.8472 116.589ZM90.7453 120.022L89.5937 118.349L88.8188 117.255L88.6305 116.987C87.6165 115.538 86.588 114.133 85.4364 112.801C84.6854 111.914 83.8538 111.1 82.9522 110.367C82.7929 110.237 82.6335 110.114 82.467 109.998L82.199 109.817C81.4915 109.325 80.7121 108.947 79.8886 108.694L79.0339 108.484L78.1721 108.361C77.8896 108.325 77.5999 108.267 77.3102 108.245L76.4411 108.18H76.0065H74.7028C74.1229 108.216 73.5452 108.281 72.9718 108.375C71.8288 108.568 70.7009 108.841 69.5967 109.194C68.5538 109.513 67.5036 109.81 66.4317 110.034L66.3738 110.15V110.201H66.4896C67.5615 109.991 68.619 109.694 69.6692 109.389C70.7669 109.046 71.8874 108.779 73.0225 108.593C73.589 108.506 74.1595 108.448 74.7318 108.419H76.021L76.4555 108.455L77.3102 108.52C77.5926 108.52 77.8751 108.6 78.1648 108.643L79.0122 108.774L79.8379 108.977C80.6059 109.221 81.337 109.57 82.0107 110.012L82.2786 110.193C82.4669 110.324 82.6553 110.461 82.8363 110.606C83.7308 111.323 84.5575 112.121 85.3061 112.989C86.4432 114.285 87.4789 115.676 88.4856 117.081L88.6739 117.349L89.4923 118.486L90.9409 120.463C90.8177 120.282 90.7815 120.152 90.7453 120.022Z" fill="white"/>
<path d="M82.438 108.114C80.439 108.353 75.992 104.899 74.1307 101.85C74.0075 101.639 74.2248 99.3653 74.3697 96.5841C74.4421 94.8966 74.4928 93.0207 74.4131 91.3042L85.3133 93.4191C84.8016 95.595 84.5584 97.8255 84.5891 100.061C84.6012 100.305 84.6352 100.547 84.6905 100.785C84.6952 100.823 84.6952 100.862 84.6905 100.901C84.9874 102.204 85.5741 107.745 82.438 108.114Z" fill="#FFA8A7"/>
<path d="M74.3842 96.1063C76.7163 99.2497 80.1783 102.27 84.8209 101.553C84.8209 101.27 84.7484 101.039 84.7122 100.879C84.7094 100.841 84.7094 100.802 84.7122 100.763C84.6469 100.527 84.6104 100.284 84.6036 100.039C84.5743 97.8017 84.8175 95.569 85.3279 93.3903L74.4639 91.2827C74.4928 92.8544 74.4566 94.5202 74.3842 96.1063Z" fill="#263238"/>
<path d="M71.5306 79.0424C70.5528 82.9244 73.1095 93.8609 75.9486 96.1858C80.0624 99.5609 86.5301 99.5898 89.3258 94.7372C92.0418 90.0005 88.4567 75.8049 85.3134 73.7335C80.678 70.6192 72.9791 73.3207 71.5306 79.0424Z" fill="#FFA8A7"/>
<path d="M82.3511 84.6338C82.3511 84.6338 82.3004 84.6845 82.3149 84.7135C82.5322 85.4377 82.6698 86.3068 82.0759 86.7269C82.0759 86.7269 82.0759 86.7776 82.0759 86.7704C82.8653 86.43 82.677 85.2856 82.3511 84.6338Z" fill="#263238"/>
<path d="M81.4892 84.0544C80.2941 84.2862 80.8446 86.669 81.9527 86.4517C83.0608 86.2344 82.4959 83.8588 81.4892 84.0544Z" fill="#263238"/>
<path d="M86.6967 83.4678C86.6967 83.4678 86.7619 83.4678 86.7619 83.5185C86.914 84.2427 87.211 85.0901 87.9352 85.177V85.2205C87.0733 85.2929 86.6967 84.1993 86.6967 83.4678Z" fill="#263238"/>
<path d="M87.153 82.548C88.3119 82.1786 88.9637 84.5325 87.8773 84.8729C86.7909 85.2133 86.1753 82.8522 87.153 82.548Z" fill="#263238"/>
<path d="M80.2942 83.1854C80.5862 83.0196 80.8691 82.8383 81.1416 82.6422C81.4675 82.4321 81.7427 82.3018 81.8658 81.9179C81.8966 81.8079 81.8914 81.6909 81.851 81.5841C81.8106 81.4773 81.7371 81.3861 81.6413 81.324C81.4311 81.2343 81.2007 81.2025 80.974 81.2318C80.7474 81.2611 80.5327 81.3504 80.3521 81.4906C79.9424 81.7175 79.6323 82.0895 79.483 82.5335C79.4443 82.6413 79.4402 82.7585 79.4713 82.8687C79.5024 82.979 79.567 83.0768 79.6563 83.1485C79.7456 83.2202 79.855 83.2623 79.9693 83.269C80.0837 83.2756 80.1972 83.2463 80.2942 83.1854Z" fill="#263238"/>
<path d="M87.7614 81.4254C87.421 81.4254 87.1023 81.4254 86.7619 81.4254C86.406 81.4665 86.0465 81.3874 85.7407 81.2009C85.6573 81.1247 85.6009 81.0235 85.58 80.9124C85.5591 80.8014 85.5748 80.6866 85.6248 80.5853C85.7582 80.3998 85.9384 80.2531 86.1472 80.1602C86.3559 80.0673 86.5855 80.0316 86.8126 80.0566C87.2801 80.0381 87.7376 80.1958 88.0945 80.4984C88.1652 80.5723 88.2139 80.6645 88.2352 80.7646C88.2564 80.8647 88.2493 80.9687 88.2147 81.065C88.1801 81.1613 88.1194 81.246 88.0393 81.3097C87.9592 81.3733 87.863 81.4134 87.7614 81.4254Z" fill="#263238"/>
<path d="M83.5244 89.2473C83.7784 89.4962 84.0817 89.6893 84.4147 89.814C84.7477 89.9387 85.1032 89.9924 85.4582 89.9716C85.7687 89.959 86.0759 89.9029 86.3708 89.805C86.429 89.7909 86.485 89.7689 86.5374 89.7398L86.6967 89.6819C86.7332 89.6631 86.7632 89.6336 86.7826 89.5974C86.802 89.5612 86.8099 89.5199 86.8053 89.4791C86.8083 89.4526 86.8083 89.4259 86.8053 89.3994V89.3342C86.6894 88.7621 86.4287 87.8857 86.4287 87.8857C86.6605 87.9364 87.8266 88.1682 87.7469 87.8857C87.0808 85.347 86.1612 82.8818 85.0019 80.5271C84.9585 80.4475 84.8426 80.5271 84.8715 80.5706C85.4654 82.9245 86.4794 85.1552 87.1168 87.5091C86.7006 87.4199 86.2734 87.393 85.8493 87.4294C85.7696 87.4729 86.3708 89.059 86.407 89.3197C85.9529 89.476 85.4719 89.5391 84.9929 89.5055C84.5138 89.4719 84.0464 89.3423 83.6186 89.1242C83.5099 89.1387 83.4665 89.1966 83.5244 89.2473Z" fill="#263238"/>
<path d="M85.9725 89.595C85.7541 90.0724 85.4176 90.4862 84.9947 90.7972C84.7561 90.9544 84.4764 91.0376 84.1908 91.0363C83.5679 91.0363 83.423 90.4786 83.423 89.9933C83.4265 89.7343 83.4605 89.4766 83.5244 89.2256C84.281 89.6041 85.1379 89.7335 85.9725 89.595Z" fill="#263238"/>
<path d="M84.9947 90.7975C84.7561 90.9547 84.4764 91.0378 84.1908 91.0365C83.5679 91.0365 83.423 90.4788 83.423 89.9935C83.737 89.9356 84.0613 89.983 84.3455 90.1284C84.6297 90.2738 84.8579 90.509 84.9947 90.7975Z" fill="#FF99BA"/>
<path d="M72.2114 88.3276C71.784 87.3788 67.5905 77.0942 67.6919 75.8847C67.7861 74.7838 69.0173 75.0373 69.0246 74.9793C69.0318 74.9214 68.9159 73.9436 69.4591 73.4874C69.6531 73.371 69.8688 73.2956 70.093 73.2657C70.3172 73.2358 70.5452 73.2521 70.7628 73.3135C70.7628 73.3135 70.7628 72.2634 71.3857 71.865C71.5899 71.7638 71.8171 71.7179 72.0445 71.7319C72.272 71.7459 72.4918 71.8192 72.6821 71.9447C72.6986 71.6649 72.7831 71.3933 72.9282 71.1535C73.0734 70.9137 73.2748 70.7129 73.515 70.5686C73.7351 70.4695 73.981 70.4435 74.2169 70.4943C74.4528 70.5451 74.6663 70.6701 74.826 70.851C74.826 70.851 74.9491 69.8371 75.5864 69.5473C76.2238 69.2576 76.9191 69.8878 76.9191 69.8878C76.9191 69.8878 77.1509 68.9462 77.962 68.8086C78.2204 68.7896 78.4786 68.8484 78.7032 68.9775C78.9278 69.1066 79.1086 69.3 79.2223 69.5329C79.2223 69.5329 79.5699 68.6058 80.3304 68.4682C81.0909 68.3306 81.4965 69.2359 81.4965 69.2359C81.4965 69.2359 81.6775 68.3451 82.4018 68.2871C83.1261 68.2292 83.452 69.2142 83.452 69.2142C83.4582 69.1046 83.4892 68.9979 83.5427 68.9021C83.5961 68.8063 83.6707 68.7239 83.7607 68.6612C83.8506 68.5984 83.9537 68.5569 84.0621 68.5397C84.1705 68.5226 84.2813 68.5304 84.3863 68.5624C85.7479 68.7796 87.3485 75.4719 88.0583 78.1154C88.0583 78.1154 87.2182 76.1671 86.6605 76.2034C86.1028 76.2396 85.8276 77.1811 84.8353 77.565C83.423 78.1082 80.7287 76.7683 78.7805 77.507C76.8322 78.2458 75.753 80.5055 75.5213 83.685C75.2243 87.2774 73.2036 90.5801 72.2114 88.3276Z" fill="#263238"/>
<path d="M74.3335 87.9219C74.3335 87.9219 71.5957 84.5323 70.0386 85.5318C68.4814 86.5313 70.7121 91.5722 72.6604 92.1444C72.9049 92.2363 73.1655 92.2775 73.4263 92.2656C73.6872 92.2537 73.943 92.1889 74.178 92.0751C74.4131 91.9613 74.6226 91.8009 74.7937 91.6036C74.9649 91.4064 75.0941 91.1764 75.1736 90.9276L74.3335 87.9219Z" fill="#FFA8A7"/>
<path d="M70.7121 86.9587V87.0094C72.081 87.4585 72.8849 88.6463 73.4499 89.9065C73.363 89.7779 73.2492 89.6696 73.1163 89.5893C72.9835 89.509 72.8348 89.4584 72.6805 89.4412C72.5262 89.424 72.37 89.4405 72.2228 89.4896C72.0755 89.5386 71.9406 89.6191 71.8275 89.7254C71.8233 89.7325 71.8212 89.7406 71.8214 89.7487C71.8217 89.7569 71.8242 89.7649 71.8287 89.7717C71.8333 89.7785 71.8396 89.7839 71.8471 89.7872C71.8546 89.7906 71.8629 89.7918 71.871 89.7906C72.1008 89.7009 72.3526 89.6841 72.5923 89.7424C72.832 89.8007 73.0479 89.9313 73.2109 90.1165C73.4885 90.4271 73.7314 90.7671 73.9351 91.1305C74.0075 91.2464 74.2176 91.1305 74.1596 91.0364C74.0293 89.2909 72.5445 87.0022 70.7121 86.9587Z" fill="#263238"/>
<path d="M85.3785 102.386H85.3423C85.8131 104.472 86.7909 109.346 83.4086 109.578C82.0384 109.557 80.7031 109.142 79.5627 108.383C78.389 107.703 77.2915 106.899 76.289 105.985C75.1362 104.994 74.0657 103.912 73.0878 102.748C73.0515 102.697 72.9719 102.748 73.0153 102.82C74.0076 103.979 74.8767 105.218 75.9848 106.29C77.0377 107.333 78.2265 108.229 79.5192 108.955C80.7355 109.728 82.1564 110.117 83.5969 110.07C84.2161 109.999 84.7919 109.717 85.2273 109.271C85.6627 108.825 85.931 108.243 85.9869 107.622C86.1765 105.853 85.9686 104.064 85.3785 102.386Z" fill="#263238"/>
<path d="M188.206 86.0247L86.6701 95.4976L94.2268 176.495L195.763 167.023L188.206 86.0247Z" fill="#263238"/>
<path d="M129.342 147.942L126.669 119.232L157.508 130.835L129.342 147.942Z" fill="white"/>
<path d="M97.5981 98.6031L91.5911 99.1636L91.9853 103.389L97.9924 102.829L97.5981 98.6031Z" fill="white"/>
<path d="M98.4057 107.182L92.3986 107.743L92.7929 111.969L98.7999 111.408L98.4057 107.182Z" fill="white"/>
<path d="M99.1981 115.748L93.191 116.309L93.5853 120.534L99.5923 119.974L99.1981 115.748Z" fill="white"/>
<path d="M100.006 124.32L93.9987 124.881L94.3929 129.107L100.4 128.546L100.006 124.32Z" fill="white"/>
<path d="M100.799 132.901L94.7917 133.461L95.186 137.687L101.193 137.126L100.799 132.901Z" fill="white"/>
<path d="M101.599 141.466L95.5915 142.026L95.9858 146.252L101.993 145.692L101.599 141.466Z" fill="white"/>
<path d="M102.399 150.046L96.3919 150.606L96.7861 154.832L102.793 154.271L102.399 150.046Z" fill="white"/>
<path d="M103.199 158.618L97.1922 159.179L97.5865 163.405L103.594 162.844L103.199 158.618Z" fill="white"/>
<path d="M103.999 167.183L97.9919 167.744L98.3862 171.97L104.393 171.409L103.999 167.183Z" fill="white"/>
<path d="M184.039 90.5431L178.032 91.1035L178.427 95.3294L184.434 94.7689L184.039 90.5431Z" fill="white"/>
<path d="M184.846 99.108L178.839 99.6685L179.234 103.894L185.241 103.334L184.846 99.108Z" fill="white"/>
<path d="M185.639 107.688L179.632 108.249L180.027 112.474L186.034 111.914L185.639 107.688Z" fill="white"/>
<path d="M186.44 116.261L180.433 116.821L180.827 121.047L186.834 120.487L186.44 116.261Z" fill="white"/>
<path d="M187.239 124.833L181.232 125.394L181.627 129.619L187.634 129.059L187.239 124.833Z" fill="white"/>
<path d="M188.04 133.406L182.033 133.966L182.427 138.192L188.434 137.632L188.04 133.406Z" fill="white"/>
<path d="M188.84 141.978L182.833 142.539L183.227 146.764L189.234 146.204L188.84 141.978Z" fill="white"/>
<path d="M189.641 150.558L183.633 151.119L184.028 155.345L190.035 154.784L189.641 150.558Z" fill="white"/>
<path d="M190.44 159.124L184.433 159.685L184.827 163.91L190.834 163.35L190.44 159.124Z" fill="white"/>
<path d="M77.7013 113.199C79.664 118.877 87.2978 141.895 88.4349 142.938C93.0195 147.167 104.564 154.584 105.969 156.119C107.896 158.212 99.2337 171.119 96.2063 170.757C94.9533 170.612 79.5482 160.45 74.7245 155.467C70.8714 151.448 68.8652 125.772 68.7493 113.808C68.6479 103.559 73.9061 102.19 77.7013 113.199Z" fill="#FFA8A7"/>
<path d="M68.9884 133.189L84.7919 132.131C84.7919 132.131 79.7944 113.351 74.7391 106.637C69.6837 99.9232 68.6697 106.681 68.4452 111.83C68.2207 116.98 68.9884 133.189 68.9884 133.189Z" fill="#35758C"/>
<path d="M84.5239 131.074C83.1369 131.333 81.7934 131.787 80.5332 132.421H79.9682C80.0198 132.389 80.073 132.36 80.1276 132.334C81.499 131.645 82.9626 131.157 84.4732 130.886C84.4659 130.958 84.5239 131.016 84.5239 131.074ZM78.0707 112.562C77.1199 113.154 76.1357 113.691 75.1229 114.17C74.7535 114.343 74.3986 114.495 73.993 114.64L73.7613 114.727C73.1467 114.948 72.5142 115.115 71.8709 115.227C70.7493 115.42 69.6009 115.396 68.4886 115.155H68.4307V115.444L68.858 115.538L69.2998 115.596L69.7343 115.654H70.1761H70.6107L71.0525 115.618H71.4943C71.6392 115.618 71.7768 115.567 71.9216 115.546C72.6623 115.42 73.3897 115.226 74.0944 114.966L74.3334 114.872C74.6521 114.749 74.9708 114.619 75.2822 114.474C76.298 114.001 77.2826 113.464 78.23 112.866L78.0707 112.562ZM80.0334 117.313C78.1317 116.902 76.319 116.154 74.6811 115.104C74.5487 115.024 74.4206 114.937 74.2972 114.843L73.993 114.64C72.5401 113.477 71.0162 112.406 69.4302 111.432C69.1332 111.265 68.829 111.106 68.5176 110.961C68.5176 111.004 68.5176 111.055 68.5176 111.106C68.8112 111.238 69.0966 111.388 69.3722 111.555C70.9076 112.515 72.3786 113.575 73.7758 114.727L74.0727 114.937C74.2393 115.06 74.4059 115.169 74.5797 115.285C76.2831 116.397 78.1756 117.187 80.1638 117.617C80.0914 117.516 80.0551 117.414 80.0117 117.313H80.0334ZM75.782 108.151H74.6883C74.1084 108.187 73.5307 108.252 72.9573 108.346C71.8143 108.539 70.6864 108.812 69.5822 109.165L68.6335 109.447C68.6299 109.508 68.6299 109.568 68.6335 109.628L69.6474 109.339C70.7451 108.995 71.8657 108.729 73.0008 108.542C73.5673 108.455 74.1377 108.397 74.7101 108.368H75.9268L75.782 108.151Z" fill="white"/>
<path d="M69.4085 129.669C71.5813 129.328 73.8555 129.249 76.0645 129.104C78.2735 128.959 80.5984 128.966 82.8653 128.865C82.9305 128.865 82.9378 128.973 82.8653 128.981C80.6491 129.176 78.4401 129.459 76.2166 129.575C73.9514 129.745 71.6789 129.795 69.4085 129.727C69.4085 129.727 69.3795 129.676 69.4085 129.669Z" fill="#263238"/>
<path d="M67.7716 119.869C67.9309 120.826 68.0975 121.774 68.2713 122.723C68.2713 120.746 68.2713 118.761 68.3148 116.784C68.3148 116.733 68.4017 116.733 68.4017 116.784C68.6117 119.536 68.7349 122.303 68.829 125.055C68.9232 127.807 69.097 130.393 69.0029 133.022L69.5968 133.066C69.6179 133.066 69.6382 133.074 69.6531 133.089C69.668 133.104 69.6764 133.124 69.6764 133.145C69.6764 133.166 69.668 133.187 69.6531 133.202C69.6382 133.217 69.6179 133.225 69.5968 133.225L68.8725 133.319C68.8525 133.322 68.8321 133.321 68.8124 133.316C68.7928 133.311 68.7744 133.303 68.7582 133.29C68.742 133.278 68.7284 133.263 68.7182 133.246C68.708 133.228 68.7013 133.209 68.6987 133.189C68.3727 130.458 68.3583 127.648 68.3003 124.903C68.3003 124.454 68.3003 124.005 68.3003 123.556C68.0081 122.341 67.788 121.11 67.6412 119.869C67.6472 119.857 67.6564 119.847 67.668 119.84C67.6795 119.832 67.6928 119.829 67.7064 119.829C67.72 119.829 67.7334 119.832 67.7449 119.84C67.7564 119.847 67.7657 119.857 67.7716 119.869Z" fill="#263238"/>
<path d="M84.2053 132.182L84.7847 132.095L84.7412 132.153C84.2922 130.987 83.8938 129.806 83.4882 128.633C83.0827 127.46 82.7205 126.258 82.3584 125.062C81.9962 123.867 81.6341 122.672 81.3372 121.441C81.0402 120.21 80.6998 119.029 80.4463 117.82C80.9099 118.979 81.3227 120.152 81.721 121.333C82.1194 122.513 82.5032 123.701 82.8726 124.896C83.242 126.091 83.5969 127.279 83.9156 128.517C84.2342 129.756 84.5602 130.929 84.8354 132.139V132.197H84.1908L84.2053 132.182Z" fill="#263238"/>
<path d="M81.8151 119.145C82.1163 120.315 82.1828 121.534 82.0107 122.73C81.6998 121.561 81.6332 120.341 81.8151 119.145Z" fill="#263238"/>
<path d="M113.567 163.326C112.843 162.369 113.364 161.993 115.399 162.565C117.435 163.137 124.996 167.113 126.162 164.361C127.328 161.609 116.573 156.141 113.125 155.453C109.678 154.765 103.833 154.859 103.833 154.859C105.701 156.315 109.917 160.342 113.567 163.326Z" fill="#FFA8A7"/>
<path d="M94.4898 169.778C99.9363 174.617 106.469 179.049 114.045 179.81C114.884 179.913 115.733 179.732 116.457 179.295C119.846 179.694 121.056 178.216 121.056 178.216C124.322 177.622 125.351 175.935 125.351 175.935C125.351 175.935 128.11 175.935 128.248 173.994C128.385 172.053 123.989 170.611 120.853 168.634C113.683 164.115 105.767 156.322 103.833 154.83L94.4898 169.778Z" fill="#FFA8A7"/>
<path d="M111.018 169.844C113.105 171.199 115.283 172.409 117.536 173.465C120.066 174.46 122.666 175.266 125.315 175.877C125.332 175.877 125.348 175.884 125.361 175.896C125.373 175.908 125.38 175.925 125.38 175.942C125.38 175.959 125.373 175.976 125.361 175.988C125.348 176 125.332 176.007 125.315 176.007C120.077 175.34 115.123 173.245 110.996 169.952C110.865 169.844 110.909 169.771 111.018 169.844Z" fill="#263238"/>
<path d="M107.657 173.769C109.83 174.907 113.596 176.884 121.07 178.115V178.158C116.272 177.999 111.612 176.506 107.613 173.849C107.476 173.791 107.519 173.697 107.657 173.769Z" fill="#263238"/>
<path d="M105.897 175.913C109.62 177.717 112.198 178.376 116.45 179.274V179.325C111.517 178.803 109.786 178.057 105.825 176.036C105.68 175.964 105.745 175.848 105.897 175.913Z" fill="#263238"/>
<path d="M132.803 87.8206C135.527 86.5169 138.902 83.2433 141.125 82.968C141.676 82.882 142.239 82.9767 142.732 83.2378C143.224 83.4989 143.618 83.9125 143.856 84.4166C143.856 84.4166 144.949 82.1931 147.014 82.2438C148.078 82.2872 148.94 84.0182 148.94 84.0182C149.217 83.5273 149.623 83.1223 150.115 82.8475C150.607 82.5728 151.166 82.4391 151.729 82.4611C153.177 82.6059 153.836 84.3224 153.836 84.3224C153.836 84.3224 155.538 83.0767 156.972 83.6995C159.869 84.9743 159.934 97.5475 155.314 99.5103C153.141 100.423 153.307 97.3375 153.307 97.3375C153.307 97.3375 152.025 101.683 149.433 101.777C146.84 101.871 147.26 97.8734 147.26 97.8734C147.26 97.8734 145.971 102.096 143.276 101.908C140.466 101.705 141.596 97.801 141.596 97.801C141.596 97.801 139.706 100.604 137.678 99.9738C134.324 98.9454 138.518 93.6365 137.844 90.877L133.281 89.3706L132.803 87.8206Z" fill="#FFA8A7"/>
<path d="M136.758 85.2856C134.071 86.2924 130.739 82.9752 128.031 83.5764C124.409 84.3875 127.98 88.4941 133.303 89.3705H137.562L136.758 85.2856Z" fill="#FFA8A7"/>
<path d="M153.974 84.5686C153.974 84.5251 154.032 84.5179 154.039 84.5686C155.119 88.861 154.866 93.3803 153.315 97.5257C153.264 97.6561 153.025 97.6271 153.061 97.475C153.992 93.2402 154.299 88.8922 153.974 84.5686Z" fill="#263238"/>
<path d="M148.984 83.9531C148.984 83.9024 149.056 83.8952 149.071 83.9531C150.218 88.6969 149.627 93.6948 147.405 98.0401C147.325 98.1922 147.101 98.2429 147.18 98.0401C148.535 95.0344 149.331 88.0018 148.984 83.9531Z" fill="#263238"/>
<path d="M141.343 98.069C143.465 93.8031 144.015 89.2837 143.907 84.5542C143.907 84.4963 143.993 84.4963 144.008 84.5542C144.689 86.8501 144.442 89.8703 144.051 92.2025C143.732 94.3771 142.848 96.43 141.487 98.1559C141.437 98.2139 141.292 98.1414 141.343 98.069Z" fill="#263238"/>
</svg>
