<svg width="11" height="12" viewBox="0 0 11 12" fill="none" xmlns="http://www.w3.org/2000/svg">
<path d="M5 8.475C5 8.75114 5.22385 8.975 5.5 8.975C5.77614 8.975 6 8.75114 6 8.475H5ZM6 7.375C6 7.09886 5.77614 6.875 5.5 6.875C5.22385 6.875 5 7.09886 5 7.375H6ZM1.15064 9.76459L1.64597 9.69638L1.64597 9.69638L1.15064 9.76459ZM3.00231 11.4455L2.97985 11.945H2.97986L3.00231 11.4455ZM7.99767 11.4455L8.02011 11.945H8.02012L7.99767 11.4455ZM9.84936 9.76459L10.3447 9.8328L10.3447 9.83277L9.84936 9.76459ZM9.84936 6.08542L10.3447 6.01724L10.3447 6.01721L9.84936 6.08542ZM7.99767 4.4045L8.02012 3.905H8.02012L7.99767 4.4045ZM3.00231 4.4045L2.97986 3.905H2.97985L3.00231 4.4045ZM1.15064 6.08542L1.64597 6.15362L1.64597 6.15362L1.15064 6.08542ZM2.46875 4.35C2.46875 4.62614 2.69261 4.85 2.96875 4.85C3.24489 4.85 3.46875 4.62614 3.46875 4.35H2.46875ZM7.53125 4.35C7.53125 4.62614 7.7551 4.85 8.03125 4.85C8.30739 4.85 8.53125 4.62614 8.53125 4.35H7.53125ZM5.5 8.475H6V7.375H5.5H5V8.475H5.5ZM1.15064 9.76459L0.655317 9.83279C0.814676 10.9901 1.79147 11.8916 2.97985 11.945L3.00231 11.4455L3.02476 10.946C2.31917 10.9143 1.7396 10.3764 1.64597 9.69638L1.15064 9.76459ZM3.00231 11.4455L2.97986 11.945C3.78439 11.9811 4.60134 12 5.5 12V11.5V11C4.61588 11 3.81391 10.9815 3.02475 10.946L3.00231 11.4455ZM5.5 11.5V12C6.39867 12 7.21559 11.9811 8.02011 11.945L7.99767 11.4455L7.97523 10.946C7.18608 10.9815 6.38413 11 5.5 11V11.5ZM7.99767 11.4455L8.02012 11.945C9.20855 11.8916 10.1853 10.9901 10.3447 9.8328L9.84936 9.76459L9.35404 9.69638C9.2604 10.3764 8.68084 10.9143 7.97522 10.946L7.99767 11.4455ZM9.84936 9.76459L10.3447 9.83277C10.4282 9.22628 10.5 8.58514 10.5 7.925H10H9.5C9.5 8.51622 9.43559 9.10389 9.35403 9.69641L9.84936 9.76459ZM10 7.925H10.5C10.5 7.26486 10.4282 6.62372 10.3447 6.01724L9.84936 6.08542L9.35403 6.1536C9.43559 6.74611 9.5 7.33378 9.5 7.925H10ZM9.84936 6.08542L10.3447 6.01721C10.1853 4.85987 9.20855 3.95843 8.02012 3.905L7.99767 4.4045L7.97522 4.904C8.68084 4.93571 9.2604 5.47363 9.35404 6.15362L9.84936 6.08542ZM7.99767 4.4045L8.02012 3.905C7.21558 3.86884 6.39866 3.85 5.5 3.85V4.35V4.85C6.38413 4.85 7.18608 4.86853 7.97522 4.904L7.99767 4.4045ZM5.5 4.35V3.85C4.60135 3.85 3.7844 3.86884 2.97986 3.905L3.00231 4.4045L3.02476 4.904C3.8139 4.86853 4.61587 4.85 5.5 4.85V4.35ZM3.00231 4.4045L2.97985 3.905C1.79147 3.95843 0.814675 4.85987 0.655317 6.01721L1.15064 6.08542L1.64597 6.15362C1.7396 5.47363 2.31918 4.93571 3.02476 4.904L3.00231 4.4045ZM1.15064 6.08542L0.655317 6.01721C0.571798 6.62373 0.5 7.26487 0.5 7.925H1H1.5C1.5 7.33377 1.56438 6.7461 1.64597 6.15362L1.15064 6.08542ZM1 7.925H0.5C0.5 8.58513 0.571798 9.22627 0.655317 9.83279L1.15064 9.76459L1.64597 9.69638C1.56438 9.1039 1.5 8.51623 1.5 7.925H1ZM2.96875 4.35H3.46875V2.975H2.96875H2.46875V4.35H2.96875ZM2.96875 2.975H3.46875C3.46875 1.89477 4.36752 1 5.5 1V0.5V0C3.83654 0 2.46875 1.32142 2.46875 2.975H2.96875ZM5.5 0.5V1C6.63249 1 7.53125 1.89477 7.53125 2.975H8.03125H8.53125C8.53125 1.32142 7.16347 0 5.5 0V0.5ZM8.03125 2.975H7.53125V4.35H8.03125H8.53125V2.975H8.03125Z" fill="black"/>
</svg>
