<svg width="20" height="20" viewBox="0 0 20 20" fill="none" xmlns="http://www.w3.org/2000/svg">
<path d="M9.09949 1.00012C5.45052 1.00669 3.53971 1.09629 2.31856 2.31764C1.00073 3.63568 1.00073 5.75704 1.00073 9.9997C1.00073 14.2424 1.00073 16.3638 2.31856 17.6818C3.63638 18.9999 5.7574 18.9999 9.99949 18.9999C14.2414 18.9999 16.3625 18.9999 17.6803 17.6818C18.9014 16.4605 18.991 14.5493 18.9976 10.8998M18.5564 1.49612L9.04907 11.0586M18.5564 1.49612C18.0624 1.00151 14.7347 1.04761 14.0312 1.05762M18.5564 1.49612C19.0504 1.99074 19.0043 5.32273 18.9943 6.02714" stroke="#141B34" stroke-width="1.5" stroke-linecap="round" stroke-linejoin="round"/>
</svg>
