<svg width="19" height="20" viewBox="0 0 19 20" fill="none" xmlns="http://www.w3.org/2000/svg">
<path fill-rule="evenodd" clip-rule="evenodd" d="M18.3103 5.37844L14.1216 1.18875C13.8402 0.907371 13.4587 0.749289 13.0608 0.749289C12.6629 0.749289 12.2813 0.907371 12 1.18875L0.439687 12.75C0.157107 13.0303 -0.00127172 13.4123 0 13.8103V18C0 18.8284 0.671573 19.5 1.5 19.5H5.68969C6.08773 19.5013 6.46966 19.3429 6.75 19.0603L18.3103 7.5C18.5917 7.21869 18.7498 6.8371 18.7498 6.43922C18.7498 6.04133 18.5917 5.65975 18.3103 5.37844ZM1.81031 13.5L9.75 5.56031L11.3147 7.125L3.375 15.0637L1.81031 13.5ZM1.5 15.3103L4.18969 18H1.5V15.3103ZM6 17.6897L4.43531 16.125L12.375 8.18531L13.9397 9.75L6 17.6897ZM15 8.68969L10.8103 4.5L13.0603 2.25L17.25 6.43875L15 8.68969Z" fill="black"/>
</svg>
