<svg width="11" height="12" viewBox="0 0 11 12" fill="none" xmlns="http://www.w3.org/2000/svg">
<path d="M4.07914 2.15747L3.87781 1.60382C3.74617 1.24181 3.68035 1.0608 3.58191 0.922283C3.45854 0.748685 3.29774 0.620963 3.11784 0.553686C2.9743 0.5 2.81223 0.5 2.48811 0.5C2.01396 0.5 1.77688 0.5 1.57787 0.611399C1.34343 0.742623 1.13172 1.02756 1.04736 1.32537C0.975754 1.57818 0.996269 1.83798 1.03729 2.35759C1.47395 7.88845 3.95492 10.9207 8.48015 11.4544C8.9053 11.5046 9.1179 11.5296 9.3247 11.4421C9.5684 11.339 9.8015 11.0802 9.9089 10.7937C10 10.5504 10 10.2607 10 9.6812C10 9.28502 10 9.08696 9.9561 8.91151C9.90105 8.69163 9.79655 8.4951 9.6545 8.34434C9.5412 8.22401 9.3931 8.14359 9.0969 7.98268L8.6439 7.73659C8.32315 7.56236 8.16275 7.47528 7.99979 7.45633C7.84379 7.43818 7.68654 7.46495 7.54054 7.53443C7.38799 7.60703 7.25319 7.74435 6.98349 8.01898C6.71509 8.29239 6.58089 8.4291 6.41689 8.50231C6.27149 8.56721 6.07929 8.59129 5.92619 8.56366C5.75344 8.53256 5.62119 8.44621 5.35664 8.27339C4.53364 7.73585 4.07977 7.18115 3.63994 6.1752C3.49857 5.85192 3.42789 5.69022 3.40244 5.47915C3.37987 5.29196 3.39954 5.05705 3.45265 4.8794C3.51256 4.67894 3.62441 4.51491 3.8481 4.18683C4.07282 3.85725 4.18518 3.69245 4.24458 3.506C4.30143 3.32757 4.32332 3.13535 4.30848 2.94474C4.29298 2.74554 4.2217 2.54952 4.07914 2.15747Z" stroke="black" stroke-linecap="round"/>
</svg>
