<svg width="18" height="21" viewBox="0 0 18 21" fill="none" xmlns="http://www.w3.org/2000/svg">
<path fill-rule="evenodd" clip-rule="evenodd" d="M17.0306 6.21938L11.7806 0.969375C11.6399 0.828758 11.449 0.749844 11.25 0.75H2.25C1.42157 0.75 0.75 1.42157 0.75 2.25V18.75C0.75 19.5784 1.42157 20.25 2.25 20.25H15.75C16.5784 20.25 17.25 19.5784 17.25 18.75V6.75C17.2502 6.55103 17.1712 6.36015 17.0306 6.21938ZM12 3.31031L14.6897 6H12V3.31031ZM15.75 18.75H2.25V2.25H10.5V6.75C10.5 7.16421 10.8358 7.5 11.25 7.5H15.75V18.75Z" fill="black"/>
</svg>
