<svg width="22" height="21" viewBox="0 0 22 21" fill="none" xmlns="http://www.w3.org/2000/svg">
<path d="M21 9.5C21 9.0086 20.9947 8.5172 20.9842 8.02439C20.9189 4.95886 20.8862 3.42609 19.7551 2.29066C18.6239 1.15523 17.0497 1.11568 13.9012 1.03657C11.9607 0.987811 10.0393 0.987811 8.09882 1.03656C4.95033 1.11566 3.37608 1.15521 2.24495 2.29065C1.11382 3.42608 1.08114 4.95885 1.01576 8.02438C0.99474 9.0101 0.99475 9.9899 1.01577 10.9756C1.08114 14.0412 1.11383 15.5739 2.24496 16.7094C3.37608 17.8448 4.95033 17.8843 8.09883 17.9634C9.06911 17.9878 10.0345 18 11 18M6 6L8.94202 7.73943C10.6572 8.7535 11.3428 8.7535 13.058 7.73943L16 6M21.0002 20.0003C20.8841 17.4758 20.987 16.5573 19.3439 15.3793C18.5363 14.8003 16.9116 14.4188 14.7178 14.6248M16.452 12.0928L14.1553 14.2464C13.9612 14.4406 13.9598 14.7561 14.152 14.9521L16.452 17.1401" stroke="#ADADAD" stroke-width="1.5" stroke-linecap="round" stroke-linejoin="round"/>
</svg>
