<svg width="12" height="12" viewBox="0 0 12 12" fill="none" xmlns="http://www.w3.org/2000/svg">
<path d="M11.5039 0.505994C11.2121 0.206519 10.7803 0.0949506 10.3776 0.212392L0.987957 2.94289C0.563117 3.06092 0.261993 3.39974 0.180877 3.83016C0.0980096 4.26821 0.387462 4.8243 0.765616 5.05683L3.70157 6.86131C4.00269 7.04628 4.39135 6.99989 4.64054 6.74857L8.0025 3.36568C8.17173 3.18952 8.45185 3.18952 8.62108 3.36568C8.79032 3.53597 8.79032 3.81196 8.62108 3.98812L5.25329 7.37159C5.00352 7.62233 4.95683 8.01282 5.14066 8.31581L6.93456 11.2812C7.14464 11.6335 7.50646 11.8332 7.90329 11.8332C7.94997 11.8332 8.0025 11.8332 8.04918 11.8273C8.50437 11.7686 8.86618 11.4574 9.0004 11.017L11.784 1.6393C11.9066 1.24 11.7957 0.805468 11.5039 0.505994Z" fill="white"/>
</svg>
