<svg width="72" height="60" viewBox="0 0 72 60" fill="none" xmlns="http://www.w3.org/2000/svg">
<path d="M48.0791 5.70129C48.5742 5.70129 48.9842 6.09202 48.9844 6.58313C48.9844 7.07436 48.5743 7.46497 48.0791 7.46497C43.964 7.46498 40.2611 10.0491 38.9355 13.7882L38.8154 14.1534C38.6817 14.591 38.2324 14.8484 37.7852 14.7677L37.7812 14.7726L37.6914 14.7462C37.2152 14.6086 36.9373 14.1197 37.082 13.6486L37.2227 13.2218C38.7643 8.85671 43.0333 5.70131 48.0791 5.70129Z" fill="#35758C" stroke="#F1F9FA" stroke-width="0.3"/>
<path d="M58.6466 42.4384H54.1174C53.7006 42.4384 53.3625 42.1107 53.3625 41.7067C53.3625 41.3027 53.7006 40.9749 54.1174 40.9749H58.6466C64.8899 40.9749 69.9698 36.0509 69.9698 29.999C69.9698 23.9471 64.8899 19.023 58.6466 19.023H58.5377C58.3188 19.023 58.1106 18.9311 57.9672 18.7706C57.8238 18.6101 57.7591 18.3974 57.7904 18.1873C57.8578 17.7315 57.8917 17.2737 57.8917 16.8279C57.8917 11.5829 53.4891 7.31531 48.0783 7.31531C45.9732 7.31531 43.9658 7.95296 42.2726 9.15978C41.9006 9.42478 41.3722 9.30718 41.157 8.91047C36.362 0.0596993 23.8378 -1.12887 17.3446 6.57053C14.6093 9.81417 13.5346 14.0336 14.3958 18.146C14.4907 18.6002 14.1321 19.0236 13.656 19.0236H13.3535C7.11017 19.0236 2.03034 23.9477 2.03034 29.9996C2.03034 36.0514 7.11017 40.9755 13.3535 40.9755H17.8827C18.2995 40.9755 18.6376 41.3032 18.6376 41.7072C18.6376 42.1113 18.2995 42.439 17.8827 42.439H13.3535C6.27754 42.439 0.520508 36.8585 0.520508 29.9995C0.520508 23.3329 5.95882 17.8742 12.7609 17.5731C12.122 13.3066 13.3438 9.00295 16.1756 5.64437C23.1275 -2.5996 36.4502 -1.67556 42.082 7.51707C43.8787 6.42522 45.9346 5.85244 48.078 5.85244C54.6336 5.85244 59.8283 11.261 59.3737 17.58C66.1131 17.9463 71.4792 23.3763 71.4792 29.999C71.4792 36.8585 65.7222 42.4384 58.6463 42.4384L58.6466 42.4384Z" fill="#35758C"/>
<path d="M35.8984 22.8496C46.383 22.8496 54.9209 31.1196 54.9209 41.2939C54.9206 51.4679 46.3829 59.7373 35.8984 59.7373C25.4142 59.7373 16.8762 51.468 16.876 41.2939C16.876 31.1198 25.4139 22.8497 35.8984 22.8496ZM35.8984 24.6143C26.4035 24.6143 18.6865 32.1014 18.6865 41.2939C18.6868 50.4864 26.4038 57.9736 35.8984 57.9736C45.3932 57.9736 53.1101 50.4863 53.1104 41.2939C53.1104 32.1013 45.3933 24.6143 35.8984 24.6143Z" fill="#35758C" stroke="#F1F9FA" stroke-width="0.3"/>
<path d="M36.2432 34.0431C36.6267 34.0431 36.9453 34.3466 36.9453 34.7296V48.6573C36.9453 49.0408 36.6266 49.3438 36.2432 49.3439C35.8596 49.3439 35.54 49.0404 35.54 48.6573V34.7296C35.54 34.3466 35.8596 34.0431 36.2432 34.0431Z" fill="#35758C" stroke="#35758C" stroke-width="0.3"/>
<path d="M35.748 34.2435C36.0217 33.978 36.4643 33.9784 36.7383 34.2435L41.1602 38.5297L41.251 38.6371C41.4067 38.8659 41.4066 39.1661 41.251 39.3949L41.1602 39.5023C41.057 39.6027 40.9299 39.6651 40.7979 39.6898L40.665 39.7015C40.5317 39.7015 40.397 39.6648 40.2803 39.5902L40.1699 39.5023L36.2432 35.6967L32.3174 39.5023C32.078 39.7348 31.7095 39.7642 31.4375 39.5902L31.3271 39.5023C31.0506 39.2341 31.0505 38.7979 31.3271 38.5297L35.748 34.2435Z" fill="#35758C" stroke="#35758C" stroke-width="0.3"/>
</svg>
