<?xml version="1.0" ?><svg id="Icons" viewBox="0 0 24 24" xmlns="http://www.w3.org/2000/svg"><defs><style>.cls-1{fill:#232323;}</style></defs><path class="cls-1" d="M19,0H5A5.006,5.006,0,0,0,0,5V19a5.006,5.006,0,0,0,5,5H19a5.006,5.006,0,0,0,5-5V5A5.006,5.006,0,0,0,19,0Zm3,19a3,3,0,0,1-3,3H5a3,3,0,0,1-3-3V5A3,3,0,0,1,5,2H19a3,3,0,0,1,3,3Z"/><path class="cls-1" d="M19,16H5a1,1,0,0,0,0,2H19a1,1,0,0,0,0-2Z"/><path class="cls-1" d="M9.168,12.63a2.452,2.452,0,0,0,2.4.108L14.638,11.2a2.464,2.464,0,0,0,0-4.408L11.566,5.262A2.464,2.464,0,0,0,8,7.465v3.07A2.448,2.448,0,0,0,9.168,12.63ZM10,7.465a.452.452,0,0,1,.22-.394A.474.474,0,0,1,10.464,7a.466.466,0,0,1,.208.051l3.071,1.534a.464.464,0,0,1,0,.83l-3.072,1.534a.458.458,0,0,1-.452-.02.452.452,0,0,1-.22-.394Z"/></svg>