<svg width="19" height="18" viewBox="0 0 19 18" fill="none" xmlns="http://www.w3.org/2000/svg">
<g opacity="0.5">
<path d="M6.27039 10.1025C7.34978 10.1028 8.21472 10.9586 8.21472 12.0234V14.5801C8.21456 15.6373 7.34968 16.4998 6.27039 16.5H3.68152C2.6099 16.4997 1.73735 15.6373 1.73718 14.5801V12.0234C1.73718 10.9586 2.60979 10.1028 3.68152 10.1025H6.27039ZM15.1063 10.1025C16.1781 10.1028 17.0507 10.9586 17.0507 12.0234V14.5801C17.0505 15.6373 16.178 16.4998 15.1063 16.5H12.5175C11.4382 16.4998 10.5733 15.6373 10.5731 14.5801V12.0234C10.5731 10.9586 11.4381 10.1028 12.5175 10.1025H15.1063ZM6.27039 1.5C7.34978 1.50023 8.21472 2.36279 8.21472 3.4209V5.97754C8.2147 7.04238 7.34977 7.89724 6.27039 7.89746H3.68152C2.60981 7.89721 1.7372 7.04237 1.73718 5.97754V3.4209C1.73718 2.3628 2.60979 1.50025 3.68152 1.5H6.27039ZM15.1063 1.5C16.1781 1.50023 17.0507 2.36279 17.0507 3.4209V5.97754C17.0506 7.04238 16.1781 7.89723 15.1063 7.89746H12.5175C11.4381 7.89722 10.5731 7.04237 10.5731 5.97754V3.4209C10.5731 2.3628 11.4381 1.50025 12.5175 1.5H15.1063Z" fill="white"/>
</g>
</svg>
