<svg width="19" height="18" viewBox="0 0 19 18" fill="none" xmlns="http://www.w3.org/2000/svg">
<g opacity="0.5">
<path d="M8.58254 2.25001C9.38134 2.25001 10.127 2.81349 10.396 3.7168C10.4948 4.09441 10.5342 4.47317 10.5728 4.8379L10.6089 5.16993C10.747 6.27747 10.747 11.7158 10.6089 12.8311L10.5728 13.1748C10.5382 13.5219 10.5029 13.8814 10.4009 14.2647C10.1319 15.1655 9.41511 15.75 8.60109 15.75C8.57547 15.75 8.54984 15.7498 8.52102 15.749C8.07143 15.749 7.5822 15.4791 7.30519 15.2432L4.605 13.0371H3.21926C2.14912 13.0371 1.36539 12.2781 1.22316 11.1035C1.05939 9.92886 1.09153 7.91349 1.22316 6.84571C1.37812 5.73373 2.1988 4.9629 3.21926 4.9629H4.605L7.25441 2.78907C7.57396 2.51709 8.13718 2.24852 8.58254 2.25001ZM15.1157 2.41602C15.4353 2.19379 15.8751 2.27473 16.0943 2.59278C17.2953 4.32475 17.9566 6.60136 17.9566 9.00001C17.9566 11.4003 17.2954 13.6762 16.0943 15.4082C15.9634 15.5974 15.7465 15.7109 15.5161 15.7109C15.3734 15.7109 15.2354 15.667 15.1167 15.585C14.7989 15.362 14.7202 14.9233 14.94 14.6045C15.9789 13.1052 16.5513 11.1144 16.5513 9.00001C16.5513 6.88636 15.9789 4.89577 14.94 3.39649C14.7201 3.07851 14.7988 2.63908 15.1157 2.41602ZM12.6948 4.69337C13.0152 4.47202 13.4526 4.55234 13.6734 4.8711C14.4489 5.99032 14.8775 7.45645 14.8775 9.00001C14.8775 10.5436 14.4489 12.0097 13.6734 13.1289C13.5417 13.3181 13.3266 13.4316 13.0962 13.4316C12.9535 13.4316 12.8145 13.3886 12.6958 13.3066C12.3779 13.0836 12.2992 12.6433 12.52 12.3252C13.1341 11.4387 13.4722 10.2576 13.4722 9.00001C13.4722 7.74158 13.1342 6.56131 12.52 5.67481C12.2992 5.35676 12.3777 4.91641 12.6948 4.69337Z" fill="white"/>
</g>
</svg>
